<svg xmlns="http://www.w3.org/2000/svg" viewBox="0 0 2743.89 1848.92"><g style="isolation:isolate"><g id="Layer_1" data-name="Layer 1"><path d="M376.47,1791.23s-363.81-207.6-163.56-717S931.12,697.73,1123.4,468.51s579.71-578,1006-316.55,321.38,673.31,474.76,839,470.93,874.54-465.47,910.08S376.47,1791.23,376.47,1791.23Z" transform="translate(-38.11 -58.86)" style="fill:#fff8e9"/><path d="M2248.94,703.89c38.2-1.11,75.85-9.62,114-11.66,41.49-2.22,84.84,2.94,123.16-13.1.73-.31,1.44-.64,2.16-1-12.07-48-26.05-97.94-45.06-148.27-.83.24-1.67.46-2.5.71-24.5,7.36-47.46,19.24-72,26.42a199.49,199.49,0,0,1-140.08-11.17c-48.65-23.11-87.64-65.94-139.63-80-37.91-10.25-78.18-3.88-117.25-7.85s-81.94-23.84-91.37-62c-1.77-7.17-2.17-15,1.05-21.69,6.75-14,25.2-16.52,40.7-17.23,39.56-1.81,79.36-3.62,118.63,1.53,50,6.55,100.47,24.27,149.59,13,15-3.45,29.31-9.54,44.23-13.38,39.68-10.23,81.42-4.13,121.79,3.86-52.1-75.09-124.06-147-227-210.14q-4.41-2.72-8.82-5.32c-39.54,21.45-74,52.67-115.48,70.53-49.74,21.43-105.77,22.07-159.84,19-32.32-1.83-67.9-3.95-93.62,15.7-18.83,14.39-28.54,37.92-46.06,53.89-21.19,19.3-50.89,25.23-78.68,32.28-35.26,8.94-70.93,21.52-97.47,46.4s-41.88,64.69-29,98.73c16.31,43.22,68.37,60.26,114.4,64.18,58.89,5,119.49-2.12,176.26,14.31,38.58,11.17,73.19,32.64,109.21,50.42,62.28,30.74,129.31,50.63,196.5,68.25C2146.57,693.39,2197.44,705.38,2248.94,703.89Z" transform="translate(-38.11 -58.86)" style="fill:#fff;opacity:0.30000000000000004"/><path d="M320.33,887.38l32.16,14.87c29.76,13.77,60,27.68,92.4,32.79,29.84,4.7,60.3,1.73,90.36-1.24,36.65-3.63,73.59-7.31,108.74-18.29,38.73-12.1,74.59-32.85,114.11-42.06,43.48-10.13,88.8-5.74,133.42-4.24,59.27,2,119.68-1.42,175.54-21.31S1174.19,790,1200.15,736.68c13.73-28.19,20.66-60.64,42-83.57,22.13-23.74,56-33,80.15-54.67,35.87-32.08,43.28-91.38,16.39-131.29-2.61-3.87-5.62-7.67-9.76-9.83-6.46-3.36-14.23-2.08-21.46-1.21a161.24,161.24,0,0,1-78.1-10c-20.77-8.19-39.91-20.71-60-30.35-16.38,18-31.76,35.75-46,52.78-19,22.61-41.1,41.68-65.79,58.21a254.89,254.89,0,0,1,49.06,18.84c13.11,6.67,27.1,16.77,27.92,31.46.79,14.3-11.42,25.83-23.6,33.37-33.37,20.65-75.4,29.3-100.68,59.31-22.32,26.51-28.56,66.68-58.06,84.85-13.17,8.11-29,10.37-44.46,11.51-51.3,3.77-105-2.62-152.47,17.11-10.41,4.33-20.34,9.86-31,13.45-14,4.68-28.89,5.9-43.62,6.79A1085.61,1085.61,0,0,1,424,788.2,594.7,594.7,0,0,0,320.33,887.38Z" transform="translate(-38.11 -58.86)" style="fill:#fff;opacity:0.30000000000000004"/><path d="M2014.58,565.71c32.07,291.68-132.41,706-132.41,706S2107,1060,2102.06,809.24l-71.9-1.24s37-24.16,68.5-43.86C2090,698.91,2064.52,631.81,2014.58,565.71Z" transform="translate(-38.11 -58.86)" style="fill:#07085b"/><path d="M1756.66,903.14l45.43-26.84-39.23-5.73c11.71-48.86,33-92.17,58.33-129.68,29.63,9,63.53,18.4,63.53,18.4l-37.46-53.41c74.94-91.87,167.32-140.17,167.32-140.17,32.07,291.68-132.41,706-132.41,706C1769.83,1128.33,1742.14,1004.89,1756.66,903.14Z" transform="translate(-38.11 -58.86)" style="fill:#55769f"/><path d="M2128,853.79a364.85,364.85,0,0,0-120.55,83.47c4.51,20.34,9.39,44.81,9.39,44.81L1986.51,961c-110.39,136.15-108.89,320.4-108.89,320.4,108.43-44.68,173.24-104.06,211.21-164.31-7.73-11.23-19.45-27.74-19.45-27.74l31,8a323,323,0,0,0,31.92-88.84c-16.14-4-34.24-9.13-34.24-9.13l38.59-18C2145.31,908.26,2128,853.79,2128,853.79Z" transform="translate(-38.11 -58.86)" style="fill:#ff5b7e"/><path d="M2088.83,1117.08c-7.73-11.23-19.45-27.74-19.45-27.74l31,8a323,323,0,0,0,31.92-88.84c-16.14-4-34.24-9.13-34.24-9.13l38.59-18c8.7-73.12-8.65-127.59-8.65-127.59-139.34,150.4-250.34,427.6-250.34,427.6C1986.05,1236.71,2050.86,1177.33,2088.83,1117.08Z" transform="translate(-38.11 -58.86)" style="fill:#e03268"/><rect x="1660.3" y="1212.9" width="749.5" height="380.88" transform="translate(-228.5 2420.66) rotate(-60.4)" style="fill:#8fd0d6"/><path d="M2358,1183.76l-346.24,609.42-299.69-170.27,346.24-609.42ZM2003.27,1762.3l323.86-570-260.31-147.89-323.86,570Z" transform="translate(-38.11 -58.86)" style="fill:#cbefef"/><ellipse cx="2035.65" cy="1403.38" rx="141.43" ry="155.37" transform="translate(-228.24 2421.2) rotate(-60.4)" style="fill:#cbefef"/><path d="M2005.86,1359.08c-8.35-2.21-16.06-2.54-23.58,2.78a24.43,24.43,0,0,0,2.6,2.12c11.57,6.67,23.2,13.23,34.71,20,2.52,1.48,3.94,1.17,6.09-.8a190.11,190.11,0,0,1,15.77-13c19.32-14.06,39.43-11.54,57.4,1.77,21.66,16,27.72,36.42,19.62,62.28-1.48,4.71-.37,6.94,3.74,8.82,3,1.37,5.77,3.24,8.92,5.06l-8.58,14.93-13.42-7.71c-24,29.56-53,25.9-71.24,17.24,4.11-9.39,8.22-18.79,12.43-28.43,11.19,3.06,21.68,2.88,33.12-3.49l-17.54-10.08c-7.58-4.35-15.23-8.58-22.7-13.12-2.75-1.68-4.58-1.62-7,.61-7.81,7.11-16.39,13.09-26.74,16-21,5.83-38.62-1.31-52.81-16-13.25-13.74-15.17-30.89-8.95-48.87.42-1.2.85-2.39,1.24-3.6.14-.45.17-.93.33-1.82l-11.21-6.44c2.92-5.08,5.64-9.82,8.72-15.16,2.66,1.53,5.49,2.91,8,4.69s4.31,1.18,6.28-1.23c8.81-10.79,19.84-17.72,34.06-18.65a49.79,49.79,0,0,1,22.34,3.79Zm47.11,43.69,40.15,23.07c4.42-9.75.5-21.9-9.08-28.55C2074.67,1390.78,2062.73,1392.69,2053,1402.77Zm-80.12-25.17c-1.4,10.55,3.05,20.11,10.63,23.88,8.37,4.15,18.9,2.64,24.85-3.49Z" transform="translate(-38.11 -58.86)" style="fill:#8fd0d6"/><path d="M1920.88,1604.29a20.65,20.65,0,1,0,7.75,28.15A20.66,20.66,0,0,0,1920.88,1604.29Z" transform="translate(-38.11 -58.86)" style="fill:#cbefef"/><path d="M2170.76,1164.46a20.65,20.65,0,1,0,7.76,28.15A20.65,20.65,0,0,0,2170.76,1164.46Z" transform="translate(-38.11 -58.86)" style="fill:#cbefef"/><path d="M2301.73,1319.46c-1.15-.94,26.42-46.5,26.42-46.5l-357.6,138.16,4.74,28.2Z" transform="translate(-38.11 -58.86)" style="fill:#8fd0d6;mix-blend-mode:multiply"/><rect x="1840.89" y="1362.97" width="749.5" height="380.88" transform="translate(-439.6 806.99) rotate(-20.31)" style="fill:#8fd0d6"/><path d="M2604.13,1593.36,1946.81,1836.7l-119.67-323.24,657.32-243.34ZM1960.19,1807.6,2575,1580l-103.94-280.76-614.83,227.61Z" transform="translate(-38.11 -58.86)" style="fill:#cbefef"/><ellipse cx="2216.07" cy="1553.83" rx="141.43" ry="155.37" transform="translate(-439.72 807.14) rotate(-20.31)" style="fill:#cbefef"/><path d="M2221.8,1500.75c-5-7.06-10.65-12.28-19.83-13a21.21,21.21,0,0,0,.63,3.29c4.55,12.55,9.23,25.06,13.67,37.66,1,2.75,2.26,3.42,5.18,3.31a185.65,185.65,0,0,1,20.43.22c23.83,1.67,37.59,16.55,42.78,38.3,6.24,26.22-2.25,45.72-25.09,60.29-4.17,2.65-4.76,5.07-2.82,9.16,1.41,3,2.32,6.19,3.57,9.61l-16.18,5.9c-1.8-4.91-3.57-9.77-5.31-14.54-37.36,7.18-57.23-14.32-65.6-32.68l27.82-13.75c6.59,9.54,14.72,16.16,27.58,18.65-2.55-7-4.74-13-6.93-19-3-8.21-6.13-16.38-8.92-24.66-1-3-2.46-4.18-5.77-4-10.55.4-21-.54-30.74-5-19.79-9-28.7-25.87-30.09-46.27-1.29-19,8.28-33.39,24.62-43.14,1.09-.66,2.19-1.29,3.27-2a18.15,18.15,0,0,0,1.42-1.18c-1.41-3.86-2.85-7.83-4.43-12.15l16.43-6c1.06,2.89,2.33,5.77,3.14,8.77.86,3.19,2.54,3.69,5.61,3.11,13.68-2.58,26.58-.78,38.06,7.66a49.73,49.73,0,0,1,14.65,17.29Zm7.91,63.76c5.39,14.78,10.62,29.13,15.87,43.51,9.66-4.62,14.48-16.44,11.43-27.69C2254,1569.31,2243.67,1563.09,2229.71,1564.51Zm-45.09-70.84c-7.87,7.17-10.61,17.35-7.24,25.11,3.72,8.57,12.76,14.19,21.26,13.34C2194.05,1519.51,2189.44,1506.88,2184.62,1493.67Z" transform="translate(-38.11 -58.86)" style="fill:#8fd0d6"/><path d="M1998.89,1633.65a20.65,20.65,0,1,0-12.19,26.53A20.65,20.65,0,0,0,1998.89,1633.65Z" transform="translate(-38.11 -58.86)" style="fill:#cbefef"/><path d="M2473.28,1458a20.64,20.64,0,1,0-12.19,26.53A20.64,20.64,0,0,0,2473.28,1458Z" transform="translate(-38.11 -58.86)" style="fill:#cbefef"/><rect x="1763.17" y="1519.56" width="749.5" height="380.88" transform="translate(-43.36 -52.27) rotate(-0.18)" style="fill:#8fd0d6"/><path d="M2488.91,1881.26,1788,1883.42l-1.06-344.68,700.9-2.16Zm-678.33-20.56,655.61-2-.92-299.38-655.62,2Z" transform="translate(-38.11 -58.86)" style="fill:#cbefef"/><ellipse cx="2138.18" cy="1710.55" rx="141.43" ry="155.37" transform="translate(-43.41 -52.21) rotate(-0.18)" style="fill:#cbefef"/><path d="M2161.84,1662.68c-2.23-8.34-5.77-15.2-14.13-19.07a22.85,22.85,0,0,0-.54,3.3c-.05,13.35,0,26.71-.13,40.06,0,2.93.95,4,3.72,4.89a188,188,0,0,1,19.11,7.24c21.8,9.78,29.6,28.48,27,50.7-3.17,26.75-17.85,42.14-44.31,48-4.83,1.07-6.22,3.13-5.8,7.63.3,3.29,0,6.62,0,10.26l-17.23,0c0-5.24,0-10.41,0-15.48-37.56-6.13-48.81-33.15-50.34-53.27l30.85-3.33c2.9,11.23,8.26,20.24,19.47,27,0-7.42,0-13.82,0-20.22,0-8.74-.12-17.49.11-26.22.09-3.22-.87-4.78-4-5.8-10-3.24-19.49-7.72-27.13-15.28-15.47-15.3-18-34.17-12.32-53.8,5.34-18.32,19.27-28.5,38-32,1.25-.23,2.5-.45,3.74-.72a15.88,15.88,0,0,0,1.74-.61c0-4.1,0-8.33,0-12.93l17.49,0c0,3.08.2,6.22-.07,9.32-.29,3.28,1.11,4.33,4.19,4.85,13.73,2.28,25.23,8.41,33.1,20.3a49.57,49.57,0,0,1,7.8,21.27Zm-14.53,62.59c0,15.73,0,31-.08,46.31,10.66-1,19.26-10.44,20.27-22.06C2168.5,1738.15,2160.91,1728.74,2147.31,1725.27Zm-17.94-82c-9.86,4-15.94,12.63-15.45,21.08.55,9.33,7.1,17.72,15.38,19.84C2129.32,1670.74,2129.35,1657.3,2129.37,1643.24Z" transform="translate(-38.11 -58.86)" style="fill:#8fd0d6"/><path d="M1906.8,1710.71a20.65,20.65,0,1,0-20.58,20.71A20.64,20.64,0,0,0,1906.8,1710.71Z" transform="translate(-38.11 -58.86)" style="fill:#cbefef"/><path d="M2412.66,1709.15a20.65,20.65,0,1,0-20.59,20.72A20.65,20.65,0,0,0,2412.66,1709.15Z" transform="translate(-38.11 -58.86)" style="fill:#cbefef"/><polygon points="2474.37 1587.56 2473.97 1459.55 1950.65 1460.65 1945.56 1430.33 2502.65 1428.56 2502.97 1577.14 2474.37 1587.56" style="fill:#8fd0d6;mix-blend-mode:multiply"/><rect x="542.43" y="854.72" width="159.41" height="165.27" transform="translate(-246.51 119.62) rotate(-14.01)" style="fill:#cfe8ea"/><rect x="55.74" y="976.14" width="159.41" height="165.27" transform="translate(-290.37 5.42) rotate(-14.01)" style="fill:#cfe8ea"/><path d="M829.85,1440.67,719.47,998.24,564.8,1036.83l111.79,448.09.79,2.28A306.58,306.58,0,0,1,688.6,1552c2,30.42.23,74.29-20,110.51-19.65,35.27-54.31,59.26-105.83,73.24q-6.83,1.56-13.4,2.72h0l38.64,154.89c2.38-.49,4.75-1,7.14-1.51l0,.18q3.1-.78,6.17-1.59c2.07-.49,4.13-1,6.2-1.5l0-.17c45.83-12.81,86-31.92,119.61-56.9a289.39,289.39,0,0,0,81.47-93.12c17.84-32.42,29.87-68.9,35.77-108.44a419.06,419.06,0,0,0,2.8-95C843.44,1488.12,833.37,1452.13,829.85,1440.67Z" transform="translate(-38.11 -58.86)" style="fill:#74bdc1"/><path d="M435,1720.78c-34.84-22.5-57-60.38-69.53-88.19A305.88,305.88,0,0,1,345,1570.14l-.38-2.39L232.78,1119.66,78.11,1158.25l110.38,442.44c2.28,11.76,10.28,48.26,29.13,91.7a419,419,0,0,0,47.07,82.52c23.78,32.14,51.54,58.7,82.52,78.94a289.25,289.25,0,0,0,115.66,43.93c39.26,6,81.29,4.45,125.19-4.45l-38.64-154.89C503.52,1746.59,465.94,1740.77,435,1720.78Z" transform="translate(-38.11 -58.86)" style="fill:#ff5b7e"/><circle cx="1949.82" cy="1632.97" r="271.05" transform="translate(-621.7 1798.16) rotate(-45)" style="fill:#f4a640"/><circle cx="1949.82" cy="1632.97" r="243.78" transform="translate(-621.7 1798.16) rotate(-45)" style="fill:#f9cc4b"/><path d="M1952.26,1861.18c-125.84,1.35-229.31-99.93-230.65-225.77s99.94-229.31,225.77-230.66,229.31,99.94,230.66,225.78S2078.1,1859.84,1952.26,1861.18Zm-4.79-448c-121.21,1.29-218.77,101-217.48,222.18s101,218.77,222.18,217.48,218.78-101,217.48-222.18S2068.69,1411.84,1947.47,1413.14Z" transform="translate(-38.11 -58.86)" style="fill:#f4a640"/><path d="M1987,1560.78c-3.58-12.74-9.15-23.2-22-29a34,34,0,0,0-.77,5.07c.19,20.49.57,41,.58,61.45,0,4.48,1.51,6.11,5.79,7.43a283.55,283.55,0,0,1,29.44,10.73c33.63,14.58,46,43.12,42.35,77.24-4.33,41.1-26.56,65-67,74.4-7.39,1.72-9.48,4.92-8.76,11.82.53,5,.2,10.14.26,15.73l-26.42.28c-.08-8-.17-16-.25-23.74-57.72-8.68-75.5-49.91-78.24-80.74l47.26-5.7c4.67,17.17,13.06,30.89,30.39,41-.12-11.4-.23-21.21-.33-31-.15-13.41-.52-26.82-.33-40.22.07-4.94-1.43-7.31-6.28-8.81-15.47-4.79-30-11.48-41.91-22.92-24-23.18-28.33-52.06-19.93-82.27,7.84-28.22,29-44.09,57.62-49.86,1.91-.39,3.82-.74,5.72-1.17a26.06,26.06,0,0,0,2.66-1c-.07-6.29-.14-12.77-.21-19.83l26.82-.28c.05,4.71.43,9.53.07,14.29-.38,5,1.79,6.62,6.52,7.35,21.11,3.24,38.86,12.42,51.15,30.5a76.16,76.16,0,0,1,12.38,32.48Zm-21.08,96.27c.26,24.12.51,47.56.76,71,16.34-1.75,29.34-16.39,30.67-34.22C1998.62,1676.4,1986.8,1662.11,1965.88,1657.05Zm-29.09-125.47c-15,6.36-24.21,19.68-23.29,32.63,1,14.29,11.23,27,24,30.13C1937.24,1573.77,1937,1553.14,1936.79,1531.58Z" transform="translate(-38.11 -58.86)" style="fill:#fff9ff;opacity:0.5"/><path d="M649.9,1768S769,1603.33,707.16,1572.87c0,0-11-17.47-55.5,45,0,0-27.47,9-29-22.83s43.55-80.33,14.78-108-43.61,22.08-63.88,31.52-10.67-117.58-38.78-131.2-35.76,36.48-51.5,42.33S421,1287.58,345.81,1315.09,356.52,1398,392.6,1432.3s-38.4,15.16-46.18,59,125.15,8.54,113.11,51.18-50.14,18.34-57.24,50.19c-11.48,51.49,120.23,2,117.26,37.45-2.37,28.27-50.13,9.67-55.22,31.53S541.93,1761.84,649.9,1768Z" transform="translate(-38.11 -58.86)" style="fill:#07085b"/><path d="M711.34,1575.33c-.54-.38-1.11-.74-1.69-1.09-2.26,6.77-5,14.15-8.47,21.84-12.57,28.25-36.49,66.37-79.07,88.22a683,683,0,0,0-40.27-73.83c11.3-64.37,33.87-100.32,50.82-119.15,1.46-1.64,2.91-3.16,4.34-4.6-.49-.46-1-.9-1.45-1.31q-2.09,2.1-4.23,4.47c-17,18.81-39.5,54.53-51,118.11-.07-.11-.14-.21-.2-.32-16.5-26.27-35.63-53.6-57.2-81.73a467.14,467.14,0,0,1-3.88-62.49c.16-23.37,2.42-53.13,10.91-77.82-.65-.16-1.29-.28-1.92-.37-8.51,24.9-10.78,54.74-10.94,78.18a477.22,477.22,0,0,0,3.46,59.42q-24.78-32.1-53.67-65.47c-53.67-62-105.25-112.2-132.15-137.46l-1.8,1c26.72,25.08,78.53,75.49,132.47,137.74,9.07,10.47,18.44,21.56,27.93,33.15a472.22,472.22,0,0,0-57.67-6c-23.95-1.08-56.33-.7-89.16,5.2l-.06.31c-.11.59-.18,1.16-.23,1.72,32.85-6,65.33-6.36,89.33-5.28a455.27,455.27,0,0,1,59.69,6.4c21,25.75,42.49,53.94,62.64,83.43-46.26-5.77-119.94,10.17-156.18,19.15a20.24,20.24,0,0,0-.08,2c36.36-9,111.68-25.41,157.74-19,28.57,42,54.28,86.6,71.7,130.42-38.72,6.29-84.67-10.9-116.56-26.54a467.41,467.41,0,0,1-47.66-27.11,12,12,0,0,0-1.1,1.61,467.75,467.75,0,0,0,47.87,27.24c32.27,15.83,78.87,33.23,118.19,26.66a353.08,353.08,0,0,1,17.11,55.87l1,.07.76-1.07c-5.35-25.13-14.63-52.13-27.73-80.79q4.16-2.14,8.2-4.52a162.56,162.56,0,0,0,42-36.11A207.6,207.6,0,0,0,703,1596.82C706.35,1589.27,709.1,1582,711.34,1575.33Z" transform="translate(-38.11 -58.86)" style="fill:#fff;opacity:0.1;mix-blend-mode:color-dodge"/><path d="M726.82,1810.06s-105.1-118-301.56-110l34.07,47L404.43,1704s-113.91,9.45-191.52,37.26c0,0,166.81,87.86,208.93,95.58l56.22-16.71-30.45,42s91.78,51,186.18,40.59S726.82,1810.06,726.82,1810.06Z" transform="translate(-38.11 -58.86)" style="fill:#8fd0d6"/><rect x="1143.58" y="857.46" width="708.72" height="991.46" rx="48.26" style="fill:#333"/><rect x="1207.39" y="939.01" width="587.77" height="151.25" style="fill:#3cb4c5"/><polygon points="1222.99 960.78 1795.16 960.78 1795.16 939.01 1207.39 939.01 1207.39 1090.25 1222.99 1090.25 1222.99 960.78" style="fill:#3cb4c5;opacity:0.5;mix-blend-mode:multiply"/><rect x="1207.39" y="1133.4" width="168.65" height="54.49" rx="21.11" style="fill:#e87b50"/><rect x="1416.95" y="1133.4" width="168.65" height="54.49" rx="21.11" style="fill:#e87b50"/><path d="M1647.62,1133.4H1774a21.12,21.12,0,0,1,21.12,21.12v12.26a21.11,21.11,0,0,1-21.11,21.11H1647.62a21.11,21.11,0,0,1-21.11-21.11v-12.26A21.11,21.11,0,0,1,1647.62,1133.4Z" style="fill:#e87b50"/><path d="M1236.95,1231h71.41a29.56,29.56,0,0,1,29.56,29.56v63a29.55,29.55,0,0,1-29.55,29.55h-71.41a29.55,29.55,0,0,1-29.55-29.55v-63A29.56,29.56,0,0,1,1236.95,1231Z" style="fill:#cfe4ff"/><path d="M1389.37,1231h71.41a29.56,29.56,0,0,1,29.56,29.56v63a29.55,29.55,0,0,1-29.55,29.55h-71.41a29.56,29.56,0,0,1-29.56-29.56v-63A29.56,29.56,0,0,1,1389.37,1231Z" style="fill:#cfe4ff"/><path d="M1541.78,1231h71.41a29.56,29.56,0,0,1,29.56,29.56v63a29.55,29.55,0,0,1-29.55,29.55h-71.41a29.56,29.56,0,0,1-29.56-29.56v-63A29.56,29.56,0,0,1,1541.78,1231Z" style="fill:#cfe4ff"/><rect x="1207.39" y="1381.63" width="130.52" height="122.15" rx="29.56" style="fill:#cfe4ff"/><rect x="1359.81" y="1381.63" width="130.52" height="122.15" rx="29.56" style="fill:#cfe4ff"/><rect x="1512.23" y="1381.63" width="130.52" height="122.15" rx="29.56" style="fill:#cfe4ff"/><path d="M1806.68,1289.89h-77.34a26.6,26.6,0,0,0-26.59,26.59v219.57a26.6,26.6,0,0,0,26.59,26.59h77.34a26.59,26.59,0,0,0,26.59-26.59V1316.48A26.59,26.59,0,0,0,1806.68,1289.89Z" transform="translate(-38.11 -58.86)" style="fill:#fdb137"/><rect x="1207.39" y="1532.22" width="130.52" height="122.15" rx="29.56" style="fill:#cfe4ff"/><rect x="1359.81" y="1532.22" width="130.52" height="122.15" rx="29.56" style="fill:#cfe4ff"/><rect x="1512.23" y="1532.22" width="130.52" height="122.15" rx="29.56" style="fill:#cfe4ff"/><rect x="1664.64" y="1532.22" width="130.52" height="122.15" rx="29.56" style="fill:#fdb137"/><path d="M1236.95,1682.81h71.41a29.56,29.56,0,0,1,29.56,29.56v63a29.56,29.56,0,0,1-29.56,29.56h-71.41a29.56,29.56,0,0,1-29.56-29.56v-63A29.55,29.55,0,0,1,1236.95,1682.81Z" style="fill:#cfe4ff"/><path d="M1389.36,1682.81h71.41a29.56,29.56,0,0,1,29.56,29.56v63a29.56,29.56,0,0,1-29.56,29.56h-71.41a29.56,29.56,0,0,1-29.56-29.56v-63A29.55,29.55,0,0,1,1389.36,1682.81Z" style="fill:#cfe4ff"/><rect x="1512.23" y="1682.81" width="130.52" height="122.15" rx="29.56" style="fill:#fdb137"/><path d="M1694.2,1682.81h71.41a29.56,29.56,0,0,1,29.56,29.56v63a29.56,29.56,0,0,1-29.56,29.56H1694.2a29.56,29.56,0,0,1-29.56-29.56v-63A29.55,29.55,0,0,1,1694.2,1682.81Z" style="fill:#e87b50"/><path d="M1333.1,1620.06v6.17l-30.13,63h-9.69l30-61.22v-.21h-33.86v-7.77Z" transform="translate(-38.11 -58.86)" style="fill:#fff"/><path d="M1440.33,1671.7c0-8.73,5.21-14.91,13.73-18.53l-.11-.32c-7.66-3.62-11-9.58-11-15.54,0-11,9.26-18.42,21.4-18.42,13.41,0,20.12,8.41,20.12,17,0,5.86-2.87,12.14-11.39,16.19v.31c8.62,3.41,14,9.48,14,17.89,0,12-10.33,20.13-23.53,20.13C1449.06,1690.44,1440.33,1681.81,1440.33,1671.7Zm37.26-.43c0-8.41-5.86-12.46-15.22-15.12-8.1,2.34-12.46,7.67-12.46,14.27-.32,7,5,13.2,13.84,13.2C1472.16,1683.62,1477.59,1678.4,1477.59,1671.27Zm-25.77-34.6c0,6.92,5.22,10.64,13.21,12.77,6-2,10.54-6.28,10.54-12.56,0-5.54-3.3-11.29-11.71-11.29C1456.08,1625.59,1451.82,1630.71,1451.82,1636.67Z" transform="translate(-38.11 -58.86)" style="fill:#fff"/><path d="M1487.17,1802.66c0,23.53-8.73,36.52-24.06,36.52-13.52,0-22.68-12.67-22.89-35.56,0-23.21,10-36,24.06-36C1478.87,1767.63,1487.17,1780.62,1487.17,1802.66Zm-37.58,1.06c0,18,5.53,28.22,14.05,28.22,9.59,0,14.16-11.18,14.16-28.86,0-17-4.36-28.21-14-28.21C1455.55,1774.87,1449.59,1784.88,1449.59,1803.72Z" transform="translate(-38.11 -58.86)" style="fill:#fff"/><path d="M1601.21,1682.66a38.47,38.47,0,0,0,7.56-.32,26.1,26.1,0,0,0,14.48-6.7c4.58-4.16,7.88-10.23,9.16-18.42h-.32a20.32,20.32,0,0,1-16.29,7.45c-12.46,0-20.44-9.37-20.44-21.19,0-13.09,9.47-24.59,23.63-24.59s22.9,11.5,22.9,29.17c0,15.23-5.11,25.87-11.93,32.47a34.63,34.63,0,0,1-20.12,9.27,43.57,43.57,0,0,1-8.63.53Zm3.41-39.82c0,8.63,5.22,14.7,13.31,14.7,6.28,0,11.18-3.09,13.63-7.25a6.18,6.18,0,0,0,.85-3.4c0-11.82-4.37-20.87-14.16-20.87C1610.26,1626,1604.62,1633.05,1604.62,1642.84Z" transform="translate(-38.11 -58.86)" style="fill:#fff"/><path d="M1317.13,1535.72v-18.84H1285v-6.18l30.87-44.18H1326v43h9.69v7.35H1326v18.84Zm0-26.19v-23.1q0-5.43.32-10.86h-.32c-2.13,4-3.83,7-5.75,10.22l-16.93,23.53v.21Z" transform="translate(-38.11 -58.86)" style="fill:#fff"/><path d="M1482.49,1474.4h-26.41l-2.66,17.78a36.08,36.08,0,0,1,5.64-.43,29.21,29.21,0,0,1,14.91,3.73c5.43,3.09,9.9,9,9.9,17.78,0,13.52-10.75,23.63-25.76,23.63-7.56,0-13.95-2.12-17.25-4.25l2.34-7.14a30.94,30.94,0,0,0,14.8,3.84c8.84,0,16.4-5.75,16.4-15-.11-8.94-6.07-15.33-19.91-15.33a71.58,71.58,0,0,0-9.59.75l4.48-33.22h33.11Z" transform="translate(-38.11 -58.86)" style="fill:#fff"/><path d="M1635.28,1473.12a33.9,33.9,0,0,0-7,.42c-14.7,2.45-22.47,13.21-24.07,24.6h.32a20.63,20.63,0,0,1,16.72-8c12.24,0,20.87,8.84,20.87,22.36,0,12.67-8.63,24.38-23,24.38-14.8,0-24.49-11.49-24.49-29.49,0-13.63,4.9-24.38,11.71-31.19a37.62,37.62,0,0,1,22.15-10.22,44.62,44.62,0,0,1,6.81-.54Zm-2.66,39.92c0-9.9-5.64-15.86-14.26-15.86a15.41,15.41,0,0,0-13.42,8.52,8,8,0,0,0-1.06,4.15c.21,11.39,5.42,19.8,15.22,19.8C1627.19,1529.65,1632.62,1523,1632.62,1513Z" transform="translate(-38.11 -58.86)" style="fill:#fff"/><path d="M1308.51,1328.11h-.22l-12,6.49-1.81-7.13,15.12-8.09h8v69.2h-9Z" transform="translate(-38.11 -58.86)" style="fill:#fff"/><path d="M1441.18,1388.58v-5.75l7.34-7.13c17.68-16.82,25.66-25.77,25.77-36.2,0-7-3.41-13.52-13.73-13.52-6.29,0-11.5,3.19-14.7,5.85l-3-6.6a30.35,30.35,0,0,1,19.59-7c14.91,0,21.19,10.22,21.19,20.13,0,12.77-9.26,23.1-23.85,37.16l-5.54,5.11v.21h31.09v7.77Z" transform="translate(-38.11 -58.86)" style="fill:#fff"/><path d="M1598,1377.83a31.36,31.36,0,0,0,15.33,4.36c12,0,15.76-7.66,15.65-13.41-.1-9.69-8.83-13.84-17.88-13.84h-5.22v-7h5.22c6.81,0,15.43-3.51,15.43-11.71,0-5.54-3.51-10.44-12.13-10.44a25.4,25.4,0,0,0-13.84,4.58l-2.45-6.81c3.62-2.66,10.64-5.33,18.1-5.33,13.62,0,19.8,8.09,19.8,16.51,0,7.13-4.26,13.2-12.78,16.29v.21c8.52,1.7,15.44,8.09,15.44,17.78,0,11.07-8.62,20.76-25.23,20.76-7.77,0-14.59-2.45-18-4.68Z" transform="translate(-38.11 -58.86)" style="fill:#fff"/><path d="M1319.1,1828.88a8.35,8.35,0,1,1-8.34-8.35A8.34,8.34,0,0,1,1319.1,1828.88Z" transform="translate(-38.11 -58.86)" style="fill:#fff"/><polygon points="1779.48 1371.81 1735.55 1371.81 1735.55 1327.88 1724.26 1327.88 1724.26 1371.81 1680.32 1371.81 1680.32 1383.11 1724.26 1383.11 1724.26 1427.04 1735.55 1427.04 1735.55 1383.11 1779.48 1383.11 1779.48 1371.81" style="fill:#fff"/><polygon points="1606.73 1769.89 1583.47 1746.63 1606.73 1723.37 1600.75 1717.39 1577.49 1740.65 1554.23 1717.39 1548.25 1723.37 1571.51 1746.63 1548.25 1769.89 1554.23 1775.87 1577.49 1752.61 1600.75 1775.87 1606.73 1769.89" style="fill:#fff"/><rect x="1690.4" y="1590.9" width="73.57" height="11.27" style="fill:#fff"/><rect x="1693.12" y="1721.11" width="73.57" height="11.27" style="fill:#fff"/><rect x="1693.12" y="1749.47" width="73.57" height="11.27" style="fill:#fff"/><rect x="1060.22" y="1321.05" width="247.91" height="104.9" style="fill:#f4a640"/><rect x="812.31" y="1321.05" width="247.91" height="104.9" style="fill:#feb546"/><rect x="564.4" y="1321.05" width="247.91" height="104.9" style="fill:#f9c27a"/><path d="M1348.18,1487.89H600.57V1376.82h747.61Zm-743.73-6.16h739.84V1383H604.45Z" transform="translate(-38.11 -58.86)" style="fill:#e2881e"/><rect x="1022.24" y="1530.86" width="247.91" height="104.9" style="fill:#f4a640"/><rect x="774.33" y="1530.86" width="247.91" height="104.9" style="fill:#feb546"/><rect x="526.42" y="1530.86" width="247.91" height="104.9" style="fill:#f9c27a"/><path d="M1310.2,1697.7H562.59V1586.63H1310.2Zm-743.73-6.16h739.85V1592.8H566.47Z" transform="translate(-38.11 -58.86)" style="fill:#e2881e"/><rect x="1060.22" y="1635.77" width="247.91" height="104.9" style="fill:#f4a640"/><rect x="812.31" y="1635.77" width="247.91" height="104.9" style="fill:#feb546"/><rect x="564.4" y="1635.77" width="247.91" height="104.9" style="fill:#f9c27a"/><path d="M1348.18,1802.61H600.57V1691.54h747.61Zm-743.73-6.17h739.84V1697.7H604.45Z" transform="translate(-38.11 -58.86)" style="fill:#e2881e"/><rect x="1120.06" y="1740.67" width="247.91" height="104.9" style="fill:#f4a640"/><rect x="872.16" y="1740.67" width="247.91" height="104.9" style="fill:#feb546"/><rect x="624.25" y="1740.67" width="247.91" height="104.9" style="fill:#f9c27a"/><path d="M1408,1907.52H660.41V1796.44H1408Zm-743.72-6.17h739.84v-98.74H664.3Z" transform="translate(-38.11 -58.86)" style="fill:#e2881e"/><rect x="1101.08" y="1425.95" width="247.91" height="104.9" style="fill:#f4a640"/><rect x="853.17" y="1425.95" width="247.91" height="104.9" style="fill:#feb546"/><rect x="605.26" y="1425.95" width="247.91" height="104.9" style="fill:#f9c27a"/><path d="M1389,1592.8H641.42V1481.73H1389Zm-743.72-6.17h739.84v-98.74H645.31Z" transform="translate(-38.11 -58.86)" style="fill:#e2881e"/><path d="M769.11,684.5l7.48,56.35-40-29.23L614.05,649l94.76,8.67s48.27,11.73,50.89,14.1S769.11,684.5,769.11,684.5Z" transform="translate(-38.11 -58.86)" style="fill:#6db1b5"/><polygon points="1488.15 987.25 1488.15 996.88 1509.92 1002.57 1510.52 981.33 1488.15 987.25" style="fill:#ffc0bb"/><path d="M1575.65,1044.11v11.48s20.91,6.28,20.83,6.32,1.71-18.84,1.71-18.84Z" transform="translate(-38.11 -58.86)" style="fill:#ffc0bb"/><polygon points="772.96 591.62 575.94 590.18 731 625.65 772.96 591.62" style="fill:#8fd0d6"/><polygon points="667.67 682.34 719.29 640.87 575.94 590.18 667.67 682.34" style="fill:#8fd0d6"/><path d="M1012.78,989.07l-2.6-3.85a52.85,52.85,0,0,0,10.84-9.81l3.55,3A58,58,0,0,1,1012.78,989.07Z" transform="translate(-38.11 -58.86)" style="fill:#6db1b5"/><path d="M1038.85,951.25l-4.43-1.39A129.71,129.71,0,0,0,1039.7,921l4.63.36A135.41,135.41,0,0,1,1038.85,951.25Zm5.32-60.24-4.62.47c-.12-1.27-.27-2.55-.44-3.81a119.37,119.37,0,0,0-2.46-13c-1-4-2.17-7.93-3.55-11.83l4.38-1.54c1.43,4,2.67,8.16,3.68,12.26a128.54,128.54,0,0,1,2.55,13.46C1043.88,888.34,1044,889.67,1044.17,891Zm-23.8-54.64a171.06,171.06,0,0,0-17.59-23.69l3.49-3.07A176.93,176.93,0,0,1,1024.33,834Zm-145-11c-3.16.78-11.21,1-16.37-2.12a24.48,24.48,0,0,1-9.3-10.46l4.17-2a19.68,19.68,0,0,0,7.5,8.51c3.73,2.22,10.37,2.22,12.89,1.6a2.16,2.16,0,0,0,.47-.15l.66-.43,2.57,3.86c-.26.18-.53.35-.8.52A5.91,5.91,0,0,1,875.41,825.39ZM981.64,792a236.71,236.71,0,0,0-23.76-17.74l2.54-3.88a240.64,240.64,0,0,1,24.23,18.08Zm-86.92,6.13-4.54-1a43.79,43.79,0,0,0,.91-8.67,51.84,51.84,0,0,0-1.55-12.5,63.74,63.74,0,0,0-2.17-7l4.35-1.63a68.1,68.1,0,0,1,2.32,7.47,56.55,56.55,0,0,1,1.69,13.62A48,48,0,0,1,894.72,798.1Zm-40.79-14.28-4.19-2c4.21-8.79,12.11-16.49,21.68-21.13l.64-.31,2,4.2-.59.28C864.8,769.05,857.69,776,853.93,783.82Zm77-20.8c-8.41-2.57-15.09-4.13-18.32-4.29-3.71-.18-7.1-.21-10.37-.11l-.14-4.64c3.39-.1,6.9-.07,10.73.12,4.93.23,14.31,2.91,19.46,4.48Zm-58.57-18.78a99.2,99.2,0,0,0-22-19.14l2.5-3.91a103.6,103.6,0,0,1,23,20Z" transform="translate(-38.11 -58.86)" style="fill:#6db1b5"/><path d="M823.72,713.21a89.63,89.63,0,0,0-14.65-2.76l.47-4.62A94.69,94.69,0,0,1,825,708.74Z" transform="translate(-38.11 -58.86)" style="fill:#6db1b5"/><path d="M1447.46,598.59l-4,25L1435,590.24s11.82-5.74,12.34-3.65S1447.46,598.59,1447.46,598.59Z" transform="translate(-38.11 -58.86)" style="fill:#07085b"/><polygon points="1342.26 593.62 1338.61 636.91 1376.8 635.09 1372.4 596.75 1342.26 593.62" style="fill:#ffc0bb"/><path d="M1412.6,673.84l-2.09-18.23-30.15-3.13-1.26,15C1385.09,673.44,1395.87,679.63,1412.6,673.84Z" transform="translate(-38.11 -58.86)" style="fill:#f99893"/><path d="M1436,623.31c-2.29,4.75-1.07,10.09,2.73,11.93s8.74-.52,11-5.27,1.07-10.09-2.73-11.93S1438.32,618.56,1436,623.31Z" transform="translate(-38.11 -58.86)" style="fill:#f99893"/><path d="M1432.82,651.75a40.58,40.58,0,0,0,3.48-6.47,76,76,0,0,0,5.27-18.49c.2-1.24.47-2.46.76-3.68a40.82,40.82,0,1,0-80.41-12.17,8.8,8.8,0,0,0-7.89-1.12c-5,1.85-7.12,8.39-4.81,14.61s8.23,9.74,13.2,7.89a7.54,7.54,0,0,0,1.89-1c.77,20.08,16.14,36.51,35.76,37.43a36.62,36.62,0,0,0,25.45-8.76,17,17,0,0,0,1.46-1.2A35.73,35.73,0,0,0,1432.82,651.75Z" transform="translate(-38.11 -58.86)" style="fill:#ffc0bb"/><path d="M1411.81,613.7c.08,2.34.1,4.62.22,6.86s.38,4.53,1.26,6.07l.17.24c.07.09.09.14.22.31a5.56,5.56,0,0,1,.62.88,4.62,4.62,0,0,1,.61,2.14,4.83,4.83,0,0,1-1.78,3.78,7.9,7.9,0,0,1-7,1.37c2.28-.4,4.47-1.19,5.75-2.68a3.07,3.07,0,0,0,.84-2.34,2.45,2.45,0,0,0-.4-1.11,3.63,3.63,0,0,0-.38-.52l-.29-.39-.33-.45a9.14,9.14,0,0,1-1.1-3.73,19.66,19.66,0,0,1,0-3.6A24.56,24.56,0,0,1,1411.81,613.7Z" transform="translate(-38.11 -58.86)" style="fill:#f99893"/><path d="M1398.27,616.79a3.56,3.56,0,1,1-3.39-3.72A3.56,3.56,0,0,1,1398.27,616.79Z" transform="translate(-38.11 -58.86)" style="fill:#333"/><path d="M1428.74,620.23a3.56,3.56,0,1,1-3.39-3.73A3.56,3.56,0,0,1,1428.74,620.23Z" transform="translate(-38.11 -58.86)" style="fill:#333"/><path d="M1392.3,640.92a29.92,29.92,0,0,0,6.11,4.07,22.32,22.32,0,0,0,6.92,2.13,18.88,18.88,0,0,0,7.17-.53,26.62,26.62,0,0,0,6.68-3,21.71,21.71,0,0,1-3,2.16,20,20,0,0,1-3.43,1.56,17.21,17.21,0,0,1-3.7.81,18.56,18.56,0,0,1-3.8,0,19.46,19.46,0,0,1-7.13-2.42A21.23,21.23,0,0,1,1392.3,640.92Z" transform="translate(-38.11 -58.86)" style="fill:#f99893"/><path d="M1402.74,608.75a36.31,36.31,0,0,0-5.21-1.25,17.84,17.84,0,0,0-4.94-.11,16.62,16.62,0,0,0-4.76,1.26c-.83.26-1.54.74-2.37,1.09s-1.55.91-2.45,1.3a15.27,15.27,0,0,1,1.58-2.37,12.08,12.08,0,0,1,2.16-1.94,11.48,11.48,0,0,1,5.52-2.13,12,12,0,0,1,5.86.78A10.89,10.89,0,0,1,1402.74,608.75Z" transform="translate(-38.11 -58.86)" style="fill:#07085b"/><path d="M1418.44,610.52a10.92,10.92,0,0,1,5.18-2.41,12.09,12.09,0,0,1,5.9.37,11.42,11.42,0,0,1,5,3.16,11.82,11.82,0,0,1,1.74,2.32,15.14,15.14,0,0,1,1.09,2.64c-.81-.56-1.43-1.21-2.14-1.75s-1.36-1.12-2.12-1.53a17,17,0,0,0-4.42-2.17,18.14,18.14,0,0,0-4.88-.85A36.5,36.5,0,0,0,1418.44,610.52Z" transform="translate(-38.11 -58.86)" style="fill:#07085b"/><path d="M1401.4,855.54s-8,54,44.24,63.45,117.18,6.61,117.18,6.61l9,124.13,27.26,1.39s70.18-172.47-27-199.43l-87.3.43-35.95-2.57s-36.38-9-36.8-7.28S1402.25,856.4,1401.4,855.54Z" transform="translate(-38.11 -58.86)" style="fill:#e03268"/><path d="M1353.41,855.83s-8,54,44.25,63.45,117.17,6.6,117.17,6.6l9.05,124.13,27.25,1.39s70.19-172.46-27-199.43l-87.3.43-35.95-2.57s-36.38-9-36.81-7.27S1354.27,856.68,1353.41,855.83Z" transform="translate(-38.11 -58.86)" style="fill:#ff5b7e"/><path d="M1419.18,678.51s36,4.56,45.08,12,53.06,116.4,53.06,116.4l-36.52,42.8-77.6.57s-58.2,31.39-94.72,1.71-17.69-133,3.42-155.2,58.78-21.69,58.78-21.69S1404.91,699.05,1419.18,678.51Z" transform="translate(-38.11 -58.86)" style="fill:#333"/><path d="M1349.56,732.71a151.94,151.94,0,0,1,2.64,18c.31,3,.44,6.06.61,9.1s.16,6.08.12,9.12a119.74,119.74,0,0,1-1.5,18.22,59.8,59.8,0,0,1-5.29,17.44,88.89,88.89,0,0,0,3.48-17.69c.66-6,.89-12,1-18s0-12-.22-18.07S1349.88,738.78,1349.56,732.71Z" transform="translate(-38.11 -58.86)" style="fill:#fff"/><path d="M1457.12,728.72c1.65,8.84,3.39,17.65,5.15,26.44s3.68,17.55,5.8,26.25,4.44,17.34,7.27,25.82a124.62,124.62,0,0,0,4.84,12.47,48.41,48.41,0,0,0,6.9,11.45,44.19,44.19,0,0,1-7.93-10.93,104.46,104.46,0,0,1-5.54-12.37c-1.61-4.22-3-8.52-4.31-12.83s-2.43-8.69-3.51-13.06-2-8.78-2.9-13.19-1.7-8.84-2.41-13.28C1459,746.61,1457.87,737.68,1457.12,728.72Z" transform="translate(-38.11 -58.86)" style="fill:#fff"/><path d="M1475.19,825c-.23-1.81-13.94-3.83-19-4.09-3.82-.2-29.13-1-37.75-1.43l.64,2.21-.13,9.78-1.42,6.48c7.56.48,26,1.2,29.87,2,5.14,1,14,4.88,14,4.88s3.71-.84-1-2.87a22.49,22.49,0,0,1-7.56-5.42c-.65-.72.06-2,.53-1.88,12.82,3.36,14.14,3.91,14.14,3.91s15.07-.08.08-3.47c-9-2-12.2-3.21-13-4.22-.34-.43.27-1.89.82-1.92,7.78-.48,21.75,2.28,17.92.47-3.12-1.48-13-3.09-16.77-3.7-.23,0-.61-1.46.43-1.55C1464.46,823.56,1475.4,826.7,1475.19,825Z" transform="translate(-38.11 -58.86)" style="fill:#ffc0bb"/><path d="M1340.79,803.11c3.16.77,6.27,1.65,9.44,2.32s6.34,1.29,9.5,2c6.36,1.16,12.74,2.17,19.14,3.07s12.82,1.61,19.26,2.23,12.92,1.19,19.26,1.54l.86,0,.19.74a53.17,53.17,0,0,1,1.17,6.4,49.77,49.77,0,0,1,.37,6.46,40.18,40.18,0,0,1-.56,6.47,29.68,29.68,0,0,1-1.87,6.24l-.08.17-.14.1-7,4.72c-2.35,1.58-4.71,3.15-7.09,4.68,2.21-1.77,4.44-3.51,6.68-5.24l6.72-5.18-.21.26a28.59,28.59,0,0,0,1.47-6,41.35,41.35,0,0,0,.31-6.2,58.72,58.72,0,0,0-.57-6.21,50.37,50.37,0,0,0-1.25-6.08l1,.78c-3.35-.08-6.52-.3-9.78-.54s-6.48-.49-9.71-.83c-6.47-.67-12.92-1.48-19.34-2.5s-12.8-2.29-19.12-3.79c-3.15-.8-6.31-1.58-9.41-2.56S1343.84,804.2,1340.79,803.11Z" transform="translate(-38.11 -58.86)" style="fill:#fff"/><path d="M1637.53,752.4H1497.16l-39.8,97.15h-48.45a3.61,3.61,0,0,0-3.43,3.42,3.47,3.47,0,0,0,3.43,3.43h182Z" transform="translate(-38.11 -58.86)" style="fill:#8fd0d6"/><path d="M1567.92,807.84c-.82,4.14-4.43,6.91-8.06,6.18s-5.88-4.67-5.06-8.81,4.44-6.91,8.06-6.18S1568.75,803.7,1567.92,807.84Z" transform="translate(-38.11 -58.86)" style="fill:#daeef7"/><path d="M1448.23,574.9s12,.38-.59-9.75-46.34-22-68-10.59c0,0-4.33-9.2-10.58-7s4.07,8.53,4.07,8.53-8-.26-10.43,3.66c-1.8,2.9,3.09,3,5.76,2.9-4.55.77-22,11.78-13.23,46.94,3.11-.68,20.84-26.39,20.84-26.39s40.53,22.52,36.52,4.62c0,0,42,26.2,36,4.56C1448.64,592.37,1464.88,593.56,1448.23,574.9Z" transform="translate(-38.11 -58.86)" style="fill:#07085b"/><path d="M1355.2,609.79a7.68,7.68,0,0,1,7,1.69c3.61,2.86,3.21,12.93,3.21,12.93s17.23,11.11,15.42-35.91c-1.94-50-14.38,4-14.38,4Z" transform="translate(-38.11 -58.86)" style="fill:#07085b"/><polygon points="541.9 487.47 436.99 629.75 474.89 647.87 428.95 762.5 542.11 631.02 497.64 613.46 541.9 487.47" style="fill:#feb546"/><path d="M848.6,1367.47,870.42,1354l18.85,11.38-6.58,4.69-22.86,3.23s-8.92-1.15-9.32-1.41S848.6,1367.47,848.6,1367.47Z" transform="translate(-38.11 -58.86)" style="fill:#ffc0bb"/><path d="M848.6,1367.47l-5.54,3.56a3,3,0,0,0,1.61,5.59l41.87.2a2.67,2.67,0,0,0,2.69-2.66l0-8.77C861.34,1374.14,851.72,1371.4,848.6,1367.47Z" transform="translate(-38.11 -58.86)" style="fill:#ff5b7e"/><path d="M940.46,1368.26l21.82-13.47,18.85,11.39-6.58,4.69-22.86,3.22s-8.92-1.14-9.31-1.41S940.46,1368.26,940.46,1368.26Z" transform="translate(-38.11 -58.86)" style="fill:#ffc0bb"/><path d="M940.46,1368.26l-5.53,3.56a3,3,0,0,0,1.6,5.59l41.88.2a2.68,2.68,0,0,0,2.68-2.67l0-8.76C953.2,1374.93,943.58,1372.18,940.46,1368.26Z" transform="translate(-38.11 -58.86)" style="fill:#ff5b7e"/><polygon points="0 720.76 79.1 832.64 101.67 809.17 174.81 870.91 105.67 755.61 81.9 784.04 0 720.76" style="fill:#feb546"/><polygon points="248.33 555.13 235.66 656.28 259.83 654.71 269.04 725.33 288.9 627.29 261.58 630.99 248.33 555.13" style="fill:#feb546"/><path d="M1154.39,997.28a28.59,28.59,0,0,1,28.8,0c15.33,8.82,15.33,38.56,9.29,45.68s.31,16.75-11.77,26-31.31,12.7-42.29,1.84-2.92-35.06-2.92-35.06Z" transform="translate(-38.11 -58.86)" style="fill:#ff5b7e"/><path d="M984.76,1096.33a.86.86,0,0,1-1.49.17c-3-4.3-12.37-17.75-13.63-17.24-1.51.6,6.61,12.82,5.71,14s-8.52-10.92-10-10,5.81,11.73,5.31,12.33-8.62-9-9.82-9,6.21,11.32,5.81,12.22-8.11-5.21-8.72-4.61-1.1.91,12.33,19.64c0,0,5.84,5.9,6.24,8.3l7.08,2.22,7.22-7.11s.7-29.66-.3-30.36S988.66,1086.72,984.76,1096.33Z" transform="translate(-38.11 -58.86)" style="fill:#ffc0bb"/><polygon points="972 1215.05 944.58 1308.74 911.45 1299.48 922.5 1220.8 956.75 1197.29 972 1215.05" style="fill:#191919"/><path d="M1117.13,1081.62s-57.51,70.76-67.26,82l-58.26-57.51s-11.75,6.5-17.75,13.5c0,0,23.5,54.26,43.75,68.52l40.51,27.25-7.75,18.51,14.5,11.25,7.63-18.26,20.88-46.25,19.75-61.52,3.75-30.5Z" transform="translate(-38.11 -58.86)" style="fill:#07085b"/><path d="M1116.88,1088.62s-24.25,39.51-29.25,54.76-1,16.5-3.25,35-19.26,68-19.26,68l28.26,19s15.25-48.76,15.25-50.76,14.25-91.26,14.25-91.26l11.76-33.26Z" transform="translate(-38.11 -58.86)" style="fill:#fff"/><path d="M1090.63,1263.4s-48.51-43.51-86-52.26-138.39,143.42-138.39,143.42l24.12,17.36s87.27-62.76,103.77-90.76c0,0,70.9,93.49,94.65,95.74s50.55-2.77,82.13-40.73C1206.7,1293.13,1090.63,1263.4,1090.63,1263.4Z" transform="translate(-38.11 -58.86)" style="fill:#333"/><path d="M1138.89,1050.11l10.75,29s-7.78,17.72-33.85,11.16c0,0,2.72-6.19-1.69-18.57C1109.6,1059.06,1138.89,1050.11,1138.89,1050.11Z" transform="translate(-38.11 -58.86)" style="fill:#ffc0bb"/><path d="M1138.89,1050.11l5,13.55c-2.33,10.12-10.86,17.27-27.34,20a39.72,39.72,0,0,0-2.49-12C1109.6,1059.06,1138.89,1050.11,1138.89,1050.11Z" transform="translate(-38.11 -58.86)" style="fill:#fc8d84;opacity:0.6000000000000001"/><path d="M989.86,1252.77a35.92,35.92,0,0,0-.69,7.25,49.26,49.26,0,0,0,.58,7.27,64.79,64.79,0,0,0,1.57,7.13,53.17,53.17,0,0,0,2.43,6.89l.57-.48a33.86,33.86,0,0,1-3.72-3c-1.18-1.07-2.33-2.19-3.43-3.35s-2.13-2.4-3.15-3.64-2-2.54-2.91-3.84q1.23,2.07,2.65,4c.92,1.33,2,2.57,3,3.81s2.17,2.4,3.35,3.51a34.57,34.57,0,0,0,3.79,3.1l1.08.74-.51-1.23a66.77,66.77,0,0,1-2.36-6.81,60.56,60.56,0,0,1-1.64-7,52.32,52.32,0,0,1-.84-7.17A44.85,44.85,0,0,1,989.86,1252.77Z" transform="translate(-38.11 -58.86)" style="fill:#fff"/><path d="M1079.09,1030.78c2.27,4.69,1.06,10-2.69,11.78s-8.63-.52-10.9-5.21-1.06-10,2.69-11.78S1076.82,1026.09,1079.09,1030.78Z" transform="translate(-38.11 -58.86)" style="fill:#f99893"/><path d="M1082.26,1058.87a39.33,39.33,0,0,1-3.44-6.4,74.51,74.51,0,0,1-5.2-18.25c-.2-1.23-.47-2.43-.76-3.64a40.31,40.31,0,1,1,79.41-12,8.71,8.71,0,0,1,7.79-1.1c4.91,1.83,7,8.28,4.75,14.42s-8.12,9.63-13,7.8a7.9,7.9,0,0,1-1.87-1c-.76,19.83-15.94,36-35.31,37a36.14,36.14,0,0,1-25.13-8.65,16.79,16.79,0,0,1-1.45-1.18A35.37,35.37,0,0,1,1082.26,1058.87Z" transform="translate(-38.11 -58.86)" style="fill:#ffc0bb"/><path d="M1103,1021.29c.09,2.28.16,4.54.1,6.77a27,27,0,0,1-.28,3.28,8.34,8.34,0,0,1-.93,2.93l-.2.28c-.07.1-.11.17-.23.32a5.18,5.18,0,0,0-.56.8,3.84,3.84,0,0,0-.4.93,3.39,3.39,0,0,0-.17,1,4.47,4.47,0,0,0,1.59,3.48,7,7,0,0,0,3.25,1.56,9.64,9.64,0,0,0,3.47,0,13.34,13.34,0,0,1-3.26-.73,6.78,6.78,0,0,1-2.64-1.69,3.39,3.39,0,0,1-1-2.56,2.1,2.1,0,0,1,.14-.66,2.46,2.46,0,0,1,.28-.62,4.47,4.47,0,0,1,.42-.58c.15-.19.39-.51.57-.77a9,9,0,0,0,1.06-3.53,20.39,20.39,0,0,0,0-3.49A28.55,28.55,0,0,0,1103,1021.29Z" transform="translate(-38.11 -58.86)" style="fill:#f99893"/><path d="M1116.37,1024.34a3.52,3.52,0,1,0,3.35-3.67A3.51,3.51,0,0,0,1116.37,1024.34Z" transform="translate(-38.11 -58.86)" style="fill:#333"/><path d="M1086.28,1027.74a3.52,3.52,0,1,0,3.35-3.68A3.52,3.52,0,0,0,1086.28,1027.74Z" transform="translate(-38.11 -58.86)" style="fill:#333"/><path d="M1118,1051.06a11.82,11.82,0,0,0-9.71,1.65s-5.24-3-9.15.2a9.71,9.71,0,0,0,10.53,6.72A8.68,8.68,0,0,0,1118,1051.06Z" transform="translate(-38.11 -58.86)" style="fill:#f99893;opacity:0.30000000000000004;mix-blend-mode:multiply"/><path d="M1122.27,1048.17a28.36,28.36,0,0,1-6,4,21.74,21.74,0,0,1-6.83,2.1,18.41,18.41,0,0,1-7.08-.53,26.1,26.1,0,0,1-6.6-3,21.23,21.23,0,0,0,3,2.13,19.47,19.47,0,0,0,3.38,1.54,16.88,16.88,0,0,0,3.65.8,18.18,18.18,0,0,0,3.76,0,19.2,19.2,0,0,0,7-2.38A21.08,21.08,0,0,0,1122.27,1048.17Z" transform="translate(-38.11 -58.86)" style="fill:#f99893"/><path d="M1112,1016.4a37.21,37.21,0,0,1,5.15-1.24,17.86,17.86,0,0,1,4.89-.1,16.6,16.6,0,0,1,4.7,1.24c.81.26,1.52.74,2.34,1.08s1.52.9,2.41,1.28a14.89,14.89,0,0,0-1.56-2.34,12.17,12.17,0,0,0-2.13-1.92,11.39,11.39,0,0,0-5.45-2.1,12,12,0,0,0-5.78.77A10.77,10.77,0,0,0,1112,1016.4Z" transform="translate(-38.11 -58.86)" style="fill:#ff5b7e"/><path d="M1096.45,1018.14a10.84,10.84,0,0,0-5.12-2.37,11.77,11.77,0,0,0-5.82.37,11.42,11.42,0,0,0-4.94,3.11,12.53,12.53,0,0,0-1.71,2.29,15.13,15.13,0,0,0-1.08,2.61c.79-.55,1.42-1.19,2.12-1.73s1.34-1.1,2.08-1.51a16.37,16.37,0,0,1,4.37-2.13,17.78,17.78,0,0,1,4.82-.85A36.86,36.86,0,0,1,1096.45,1018.14Z" transform="translate(-38.11 -58.86)" style="fill:#ff5b7e"/><circle cx="952.71" cy="1151.1" r="123.49" transform="translate(-573.01 951.96) rotate(-45)" style="fill:#f4a640"/><circle cx="952.71" cy="1151.1" r="111.07" transform="translate(-278.81 1991.37) rotate(-87.38)" style="fill:#f9cc4b"/><path d="M991.59,1247.54a104,104,0,1,1,57.57-135.32A104.11,104.11,0,0,1,991.59,1247.54ZM915.27,1058.2a100.16,100.16,0,1,0,130.34,55.45A100.26,100.26,0,0,0,915.27,1058.2Z" transform="translate(-38.11 -58.86)" style="fill:#f4a640"/><path d="M956.51,1114.31c-3.64-4.82-7.73-8.33-14.16-8.65a16.46,16.46,0,0,0,.51,2.28c3.48,8.66,7,17.29,10.44,26,.74,1.91,1.66,2.34,3.69,2.19a128.21,128.21,0,0,1,14.27-.32c16.69.61,26.65,10.68,30.78,25.75,5,18.16-.5,32-16.11,42.69-2.85,2-3.21,3.66-1.76,6.47,1.06,2,1.77,4.27,2.72,6.63l-11.16,4.5c-1.37-3.39-2.72-6.75-4.05-10-25.93,5.88-40.31-8.67-46.58-21.3l19.1-10.25c4.83,6.51,10.67,11,19.7,12.38l-5.28-13.11c-2.28-5.66-4.66-11.29-6.81-17-.79-2.11-1.81-2.86-4.12-2.7-7.36.53-14.66.12-21.59-2.77-14-5.86-20.65-17.4-22.1-31.61-1.34-13.28,5-23.52,16.19-30.72.75-.48,1.5-.94,2.23-1.44a11.82,11.82,0,0,0,1-.86L920,1084l11.34-4.57c.8,2,1.76,4,2.4,6.06s1.85,2.51,4,2c9.5-2.13,18.55-1.17,26.77,4.46a34.79,34.79,0,0,1,10.64,11.73C968.88,1107.29,962.84,1110.71,956.51,1114.31Zm7,44.35,12.1,30c6.64-3.45,9.73-11.82,7.34-19.61C980.62,1161.44,973.24,1157.34,963.52,1158.66Zm-33.15-48.43c-5.33,5.19-7,12.37-4.47,17.71,2.8,5.9,9.25,9.62,15.16,8.82C937.56,1128.06,934.05,1119.35,930.37,1110.23Z" transform="translate(-38.11 -58.86)" style="fill:#fff9ff;opacity:0.5"/><path d="M996.46,1173.66a.93.93,0,0,1-1.06,1.25c-5.62-1.18-23.34-4.81-24-3.45-.74,1.62,15,5.25,15.2,6.89s-15.09-2.28-15.6-.42,13.53,5,13.58,5.83-13.72-.68-14.69.23,13.55,4.35,13.92,5.38-10.44,2-10.47,2.91-.2,1.56,24.74,6.37l9.9,1.48,8.73-3.16.38-11.16s-21.91-24.25-23.25-24S992.3,1163,996.46,1173.66Z" transform="translate(-38.11 -58.86)" style="fill:#ffc0bb"/><path d="M1148.89,1074.24s49.51,59.64,42.76,164.66-7.88,105.77-7.88,105.77-30.38-3.25-52.88-21.26-50-30.25-50-30.25l18.25-59.26s-23.76.75-41-6.51-53.26-26.5-53.26-26.5,3-17.75,6.75-23.25c0,0,45.76,14,68.77,14.25C1080.38,1191.89,1107.13,1109.37,1148.89,1074.24Z" transform="translate(-38.11 -58.86)" style="fill:#55769f"/><path d="M1145.33,1093.37a209.4,209.4,0,0,0-21,21.21,249,249,0,0,0-18.17,23.75l-2.07,3.12c-.7,1-1.39,2.07-2,3.15l-3.89,6.39c-.67,1.06-1.23,2.18-1.83,3.27l-1.79,3.28-1.78,3.29c-.59,1.11-1.09,2.25-1.64,3.37l-3.2,6.76-2.82,6.93-1.37,3.47-1.17,3.55c-.79,2.37-1.56,4.73-2.31,7.1q1.39-3.46,2.73-6.94l1.34-3.47,1.55-3.39,3.05-6.79,3.38-6.63c.57-1.09,1.1-2.22,1.71-3.3l1.83-3.24,1.82-3.23c.62-1.08,1.2-2.17,1.88-3.21l3.9-6.33c.63-1.06,1.33-2.09,2-3.12l2.08-3.08q8.3-12.35,17.77-23.85l4.8-5.69c1.64-1.86,3.26-3.74,4.93-5.58C1138.35,1100.45,1141.79,1096.87,1145.33,1093.37Z" transform="translate(-38.11 -58.86)" style="fill:#07085b"/><path d="M1166.7,1135c-4.07,9.17-8.43,18.21-12.92,27.17-2.27,4.46-4.57,8.91-7,13.3s-4.83,8.77-7.41,13.06-5.18,8.56-8,12.71c-1.36,2.09-2.82,4.12-4.25,6.17s-3,4-4.52,6a114.77,114.77,0,0,1-10,11.16,52.75,52.75,0,0,1-12,8.92,49.7,49.7,0,0,0,12.55-8.31,101.78,101.78,0,0,0,10.44-10.94c3.25-3.85,6.22-7.93,9.07-12.08s5.53-8.41,8.11-12.74c5.13-8.65,9.79-17.57,14.1-26.65S1163.23,1144.42,1166.7,1135Z" transform="translate(-38.11 -58.86)" style="fill:#07085b"/><path d="M1070.68,984.47c5.8-12.6,17.06-19.71,26.8-23.66a51.59,51.59,0,0,1,37.48-.69c34.11,12.81,27.31,50.42,25.71,57.45a9.25,9.25,0,0,0-6.6,1.15,15.61,15.61,0,0,0-2.83,1.94c-6.64-2-8.64-13-12.08-18.34-4.66-7.2-22.73-.34-30.52-5.45s-9.12-10.43-9.12-10.43c-30,4.76-27.79,38.57-27.79,38.57-1.3-.29-4.3-5.15-4.3-5.15S1060,1007.64,1070.68,984.47Z" transform="translate(-38.11 -58.86)" style="fill:#ff5b7e"/><polygon points="2147.51 1402.8 2083.35 1443.13 2078.56 1822.15 2091.34 1830.94 2103.89 1828.14 2140.3 1578.95 2170.01 1418.08 2147.51 1402.8" style="fill:#ffc0bb"/><path d="M2315.92,1833.23c-28.73-77.13-78.66-129.64-78.66-129.64s9.39-25.31,19-108.82-31.05-136-31.05-136l-72,21.52s36.63,218.84,42.52,232.75c4.61,10.9,63.17,89.26,88.35,122.73l0,.59,11.36,14.51h0l10.75,13.75,12.71-5.76,2.25-15.87Z" transform="translate(-38.11 -58.86)" style="fill:#ffc0bb"/><path d="M2121.41,1496.64s-16.85,128.66-15,224.77c0,0,65.1,10.28,112.9,6.68l2.06-55,10.28,51.91s23.64-1,34.43-9.77c0,0-6.58-54.93-4.62-97.14s.19-95.33-13.71-130.57-91.15,3.36-91.15,3.36Z" transform="translate(-38.11 -58.86)" style="fill:#333"/><path d="M2208.36,1172.6s14.79,11.33,19.23,27.34c3.8,13.68,20.71,11.28,31.29,29.56,11.74,20.29,28.45,50.64-9.86,71.11-23.8,12.72-61.69,22.5-70.28,13.92s-29.08-5.15-24.47-95.33c0,0,56-31.65,56.58-31.84S2208.36,1172.6,2208.36,1172.6Z" transform="translate(-38.11 -58.86)" style="fill:#333"/><path d="M2133.78,1430.81l6.86-29.47-17.06-45.79s-9.35,36.34-23.34,68.74l-51.4,6.25-10.85,2s70.34,40.11,89.45,10.58l3.28.8,1.83-7.84a25.44,25.44,0,0,0,2.42-5.31Z" transform="translate(-38.11 -58.86)" style="fill:#e03268"/><polygon points="2161.08 1212.22 2159.7 1233.88 2130.18 1240.03 2124.97 1240.03 2126.05 1214.07 2157.37 1203.02 2161.08 1212.22" style="fill:#ffc0bb"/><path d="M2152.88,1305.77c-1.34,14.55,4.68,17.26,4.68,17.26l44.59-33.09c-27.68,2.71-45.57,5.68-45.57,5.68S2154.28,1306.16,2152.88,1305.77Z" transform="translate(-38.11 -58.86)" style="fill:#ffc0bb"/><path d="M2226.85,1224s9.1-37.35-12.58-51.33-44.67-12.44-60.32-4.06-25,37.61-18,54.3l52-15.94Z" transform="translate(-38.11 -58.86)" style="fill:#333"/><path d="M2199.82,1265.42s-.62,6.29-1.17,14.12c-11.23,12.3-32.28,8.08-35.05,6.89.17-3.94,0-11.91,0-11.91Z" transform="translate(-38.11 -58.86)" style="fill:#f99893"/><path d="M2142.7,1229.48c1.85,5,.09,10.3-3.93,11.78s-8.78-1.39-10.63-6.42-.09-10.3,3.93-11.78S2140.85,1224.46,2142.7,1229.48Z" transform="translate(-38.11 -58.86)" style="fill:#f99893"/><path d="M2143.12,1258.53a41.39,41.39,0,0,1-2.88-6.89,76.87,76.87,0,0,1-3.49-19.19c-.08-1.27-.23-2.54-.41-3.8a41.43,41.43,0,1,1,82.43-4.33,9,9,0,0,1,8.08-.35c4.84,2.37,6.36,9.19,3.41,15.23s-9.27,9-14.11,6.67a8.13,8.13,0,0,1-1.81-1.23c-2.76,20.19-19.91,35.27-39.82,34.25a37.12,37.12,0,0,1-24.84-11.36,17.4,17.4,0,0,1-1.35-1.36A35.58,35.58,0,0,1,2143.12,1258.53Z" transform="translate(-38.11 -58.86)" style="fill:#ffc0bb"/><path d="M2180.38,1230a3.89,3.89,0,1,0,4.08-3.69A3.89,3.89,0,0,0,2180.38,1230Z" transform="translate(-38.11 -58.86)" style="fill:#333"/><path d="M2145.82,1230a3.9,3.9,0,1,0,4.09-3.69A3.9,3.9,0,0,0,2145.82,1230Z" transform="translate(-38.11 -58.86)" style="fill:#333"/><path d="M2177.1,1223.52a24.76,24.76,0,0,1,5.48-2.1,17.55,17.55,0,0,1,5.67-.43,14.62,14.62,0,0,1,2.79.53,13.46,13.46,0,0,1,1.36.44l.66.27c.22.09.45.18.66.29a29.18,29.18,0,0,1,5,3.13,15.63,15.63,0,0,0-4.47-4.09,13.77,13.77,0,0,0-2.8-1.31,13.16,13.16,0,0,0-3-.65,14.22,14.22,0,0,0-6.11.79,14.88,14.88,0,0,0-2.77,1.3A12.59,12.59,0,0,0,2177.1,1223.52Z" transform="translate(-38.11 -58.86)" style="fill:#333"/><path d="M2161.42,1223.52a12.59,12.59,0,0,0-2.4-1.83,14.88,14.88,0,0,0-2.77-1.3,14.22,14.22,0,0,0-6.11-.79,13.16,13.16,0,0,0-3,.65,13.77,13.77,0,0,0-2.8,1.31,15.63,15.63,0,0,0-4.47,4.09,29.57,29.57,0,0,1,5-3.13c.22-.11.44-.2.66-.29s.44-.19.67-.27a13.28,13.28,0,0,1,1.35-.44,14.92,14.92,0,0,1,2.79-.53,17.53,17.53,0,0,1,5.67.43A24.76,24.76,0,0,1,2161.42,1223.52Z" transform="translate(-38.11 -58.86)" style="fill:#333"/><path d="M2250.34,1354.33a30.45,30.45,0,0,1-2.64-3.21,32.44,32.44,0,0,1-2.25-3.53,30.55,30.55,0,0,1-1.84-3.77,35.5,35.5,0,0,1-1.4-4,23,23,0,0,0,.89,4.18c.2.69.47,1.35.72,2s.55,1.32.89,2a27,27,0,0,0,2.2,3.69,24.21,24.21,0,0,0,2.16,2.71,16.28,16.28,0,0,1-2.21.28,15.8,15.8,0,0,1-3.07-.15c-.51-.06-1-.18-1.52-.28s-1-.27-1.48-.47a16.29,16.29,0,0,1-2.83-1.35,12.83,12.83,0,0,0,5.71,2.8,13.34,13.34,0,0,0,3.22.32,13,13,0,0,0,3.25-.4l.78-.21Z" transform="translate(-38.11 -58.86)" style="fill:#fff"/><path d="M2166,1228.22a48,48,0,0,0-2.87,5.51,44.2,44.2,0,0,0-2.17,5.86,17,17,0,0,0-.59,3.16,8.63,8.63,0,0,0,0,.87c0,.15.06.31.09.47a2.23,2.23,0,0,0,.23.5,2.43,2.43,0,0,0,.2.25l.16.14c.11.09.21.19.32.27s.45.32.69.46A15.49,15.49,0,0,0,2165,1247a20,20,0,0,0,3,.79,33.54,33.54,0,0,1-5.35-2.93,6.22,6.22,0,0,1-.56-.46l-.26-.24-.12-.12,0-.06a2.39,2.39,0,0,1-.1-1.17,17,17,0,0,1,.61-2.9c.54-2,1.22-3.89,1.87-5.84S2165.37,1230.2,2166,1228.22Z" transform="translate(-38.11 -58.86)" style="fill:#f99893"/><path d="M2243.29,1416.1h0c5.3-29.51,7.58-61.18,7.58-61.18.3-7.3-8.35-17.38-8.73-23.1-7.4-6-9.15-10.93-9.15-10.93l-12.88-26.75-8.57-4.2a40.28,40.28,0,0,0-10,0l-22.1,16.62a14.3,14.3,0,0,1-22.89-10.92h0c-19.38,15.54-32.42,22.55-35.11,47.51-1.88,17.41,7.59,32.17,8.64,48.76l-8.68,104.75s73.12.82,126.38-9.11C2247.79,1487.53,2242.8,1458,2243.29,1416.1Z" transform="translate(-38.11 -58.86)" style="fill:#ff5b7e"/><path d="M2115.36,1492l-76.3,4.6c-4.82.29-10.17-2.8-11.94-6.9L1987,1396.84c-1.77-4.11.7-7.67,5.52-8l76.3-4.6c4.82-.29,10.16,2.8,11.93,6.9l40.14,92.88C2122.65,1488.17,2120.18,1491.73,2115.36,1492Z" transform="translate(-38.11 -58.86)" style="fill:#333"/><path d="M2046.21,1390.31l-26,1.57a5.55,5.55,0,0,1-5.15-3l-.72-1.67c-.77-1.77.3-3.31,2.38-3.43l26-1.57a5.55,5.55,0,0,1,5.16,3l.72,1.67C2049.36,1388.65,2048.29,1390.19,2046.21,1390.31Z" transform="translate(-38.11 -58.86)" style="fill:#c8eef1"/><path d="M2017.81,1468.29l-.33.14a4.11,4.11,0,0,1-5.22-1.71l-12-20.77a3,3,0,0,1,.08-3.22c2-3,6.38-9.24,7.87-9,2,.3-4,10.63-3.21,10.83s9.3-6.67,10-5.54-6.82,9-6.48,9.62,9-4.38,9.9-3.48-7.29,7.27-7.17,7.73Z" transform="translate(-38.11 -58.86)" style="fill:#ffc0bb"/><path d="M2010.72,1453.12s8.63-2.63,9.39-1.65-9.43,6.47-9.39,6.22S2010.72,1453.12,2010.72,1453.12Z" transform="translate(-38.11 -58.86)" style="fill:#ffc0bb"/><path d="M2224,1218.82l-1-.11-.66-8.11-3.62-7.49s-14.19-20.15-14.69-20.65-11.33-7-12-7.33-15.82,2.17-15.82,2.17-26.66-5.74-22.15,9.16,24,22.65,25,22c-3.17-3.33-3.5-12.82-3.5-12.82,15,17.32,43.17,28.7,43.17,28.7s2.95-2.25,8.08-.35Z" transform="translate(-38.11 -58.86)" style="fill:#333"/><path d="M2157.35,1254a11,11,0,0,0,21.25-.37Z" transform="translate(-38.11 -58.86)" style="fill:#fff"/><path d="M2256.55,1362.22s-10.84-59.57-44.11-72a13.83,13.83,0,0,0-18.67,12.88c-.07,13.7,42.08,115.19,37.75,120.39-5.9,7.1-114.05,32.65-117.66,33.5l-12.88-1.24c-10.61-.74-21.87-2.18-22.49-1.39-.87,1.11-.3,2.18,11,7.5a1,1,0,0,1,.1,1.8c-5.36,3.28-22.18,13.72-21.65,15.27.62,1.85,15.87-7.11,17.26-6s-13.72,9.53-12.73,11.4,14.49-6.22,15.18-5.58-11.43,9.77-11.51,11.22,14-6.73,15.09-6.19-6.81,9.42-6.13,10.19-2,1.9,21.5-13c0,0,5.77-3.9,7.9-5.53,0,0,134.31-19,142.65-29.58C2272.63,1426.2,2256.55,1362.22,2256.55,1362.22Z" transform="translate(-38.11 -58.86)" style="fill:#ffc0bb"/><path d="M2256.55,1362.22s-10.84-59.57-44.11-72a13.83,13.83,0,0,0-18.67,12.88c-.07,13.7,42.08,115.19,37.75,120.39-5.9,7.1-114.05,32.65-117.66,33.5l-.24,0a158.38,158.38,0,0,0,4.8,18c22.19-3.22,131.23-19.48,138.72-29C2272.63,1426.2,2256.55,1362.22,2256.55,1362.22Z" transform="translate(-38.11 -58.86)" style="fill:#e03268"/><path d="M1992.15,288.3a51,51,0,0,0-62.51-37.87,75.06,75.06,0,0,0-90.26-39.87,92.47,92.47,0,0,0-166.1,16.16A63.43,63.43,0,0,0,1579,282.15c0,2.08.11,4.13.31,6.15Z" transform="translate(-38.11 -58.86)" style="fill:#fff"/><path d="M1226.4,493.07a27,27,0,0,1,33.07-20A39.69,39.69,0,0,1,1307.21,452a48.9,48.9,0,0,1,87.84,8.55,33.54,33.54,0,0,1,49.86,29.31c0,1.1-.06,2.19-.16,3.26Z" transform="translate(-38.11 -58.86)" style="fill:#fff"/><path d="M1909.48,467.84a27,27,0,0,1,33.06-20,39.69,39.69,0,0,1,47.74-21.09,48.91,48.91,0,0,1,87.84,8.54A33.55,33.55,0,0,1,2128,464.58a32.06,32.06,0,0,1-.16,3.26Z" transform="translate(-38.11 -58.86)" style="fill:#fff"/><path d="M2216.62,803.11a32.7,32.7,0,0,1,40.07-24.26,48.07,48.07,0,0,1,57.83-25.55A59.25,59.25,0,0,1,2421,763.65a40.64,40.64,0,0,1,60.41,35.52c0,1.33-.07,2.65-.19,3.94Z" transform="translate(-38.11 -58.86)" style="fill:#fff"/><path d="M2092.61,1889.88l26.53-16.37,22.91,13.84-8,5.7-27.79,3.92s-10.84-1.39-11.32-1.71S2092.61,1889.88,2092.61,1889.88Z" transform="translate(-38.11 -58.86)" style="fill:#ffc0bb"/><path d="M2092.61,1889.88l-6.72,4.32a3.68,3.68,0,0,0,1.94,6.8l50.9.24A3.25,3.25,0,0,0,2142,1898l.05-10.65C2108.1,1898,2096.41,1894.65,2092.61,1889.88Z" transform="translate(-38.11 -58.86)" style="fill:#07085b"/><path d="M2299.31,1887.4l-.72-32.58,22.65-11.8,1.06,9.76L2312.16,1879s-6.5,8.79-7,9S2299.31,1887.4,2299.31,1887.4Z" transform="translate(-38.11 -58.86)" style="fill:#ffc0bb"/><path d="M2299.31,1887.4l.49,8a3.69,3.69,0,0,0,6.89,1.62l25-44.31a3.26,3.26,0,0,0-1.23-4.43l-9.27-5.24C2314,1877.84,2305.33,1886.41,2299.31,1887.4Z" transform="translate(-38.11 -58.86)" style="fill:#07085b"/><path d="M1610.29,1091.84l-45.47-17.57a2.21,2.21,0,0,1-1.26-2.85l.34-.88a2.2,2.2,0,0,1,2.85-1.26l45.47,17.57a2.2,2.2,0,0,1,1.26,2.85l-.34.88A2.2,2.2,0,0,1,1610.29,1091.84Z" transform="translate(-38.11 -58.86)" style="fill:#fff"/><path d="M1572.82,1054.2l-7,13.24c-.86,1.64-.51,3.56.75,4l43.69,16.89a3.41,3.41,0,0,0,3.64-.94c1.14-1.13,2.06-3.14,1.17-6.66-1.77-7-14.11-13.35-18.57-20.5l-20.35-7.87C1575,1052,1573.61,1052.72,1572.82,1054.2Z" transform="translate(-38.11 -58.86)" style="fill:#333"/><path d="M1590.3,1067.13h0a1,1,0,0,1,.19-1.23c1.59-1.57,6.06-5.16,11.15-2.1a.85.85,0,0,1,.12,1.09h0c-.22.4-.61.56-.89.39-4.57-2.72-8.42.48-9.74,1.8A.52.52,0,0,1,1590.3,1067.13Z" transform="translate(-38.11 -58.86)" style="fill:#fff"/><path d="M1594.15,1070.67h0a1,1,0,0,1,.18-1.23c1.6-1.57,6.07-5.16,11.16-2.1a.85.85,0,0,1,.12,1.09h0c-.21.4-.6.56-.88.39-4.57-2.72-8.43.48-9.74,1.8A.52.52,0,0,1,1594.15,1070.67Z" transform="translate(-38.11 -58.86)" style="fill:#fff"/><path d="M1597.72,1074h0a1,1,0,0,1,.19-1.23c1.59-1.57,6.06-5.16,11.15-2.1a.83.83,0,0,1,.13,1.09h0c-.21.4-.6.56-.89.39-4.57-2.72-8.42.48-9.73,1.8A.54.54,0,0,1,1597.72,1074Z" transform="translate(-38.11 -58.86)" style="fill:#fff"/><path d="M1578.23,1076c.89-12.54-4.56-16.07-7.91-17.07l-4.5,8.52c-.86,1.64-.51,3.56.75,4Z" transform="translate(-38.11 -58.86)" style="fill:#e87b50;opacity:0.30000000000000004;mix-blend-mode:multiply"/><path d="M1564,1092l-46.58-14.36a2.2,2.2,0,0,1-1.46-2.75l.28-.91a2.2,2.2,0,0,1,2.75-1.45l46.59,14.36a2.21,2.21,0,0,1,1.46,2.75l-.28.9A2.2,2.2,0,0,1,1564,1092Z" transform="translate(-38.11 -58.86)" style="fill:#fff"/><path d="M1524,1057l-6.07,13.69c-.74,1.69-.25,3.59,1,4l44.77,13.79a3.4,3.4,0,0,0,3.56-1.19c1.06-1.2,1.84-3.27.71-6.72-2.27-6.9-15-12.34-20-19.16l-20.85-6.43C1526,1054.64,1524.66,1055.5,1524,1057Z" transform="translate(-38.11 -58.86)" style="fill:#333"/><path d="M1542.31,1068.71h0a1,1,0,0,1,.11-1.24c1.47-1.68,5.68-5.57,11-2.88a.83.83,0,0,1,.2,1.08h0c-.19.42-.56.61-.86.46-4.75-2.4-8.37,1.06-9.59,2.47A.54.54,0,0,1,1542.31,1068.71Z" transform="translate(-38.11 -58.86)" style="fill:#fff"/><path d="M1546.4,1072h0a1,1,0,0,1,.1-1.24c1.48-1.68,5.69-5.57,11-2.87a.83.83,0,0,1,.2,1.07v0c-.18.41-.56.6-.86.45-4.74-2.4-8.37,1.06-9.58,2.48A.53.53,0,0,1,1546.4,1072Z" transform="translate(-38.11 -58.86)" style="fill:#fff"/><path d="M1550.2,1075h0a1,1,0,0,1,.1-1.24c1.48-1.67,5.69-5.57,11-2.87a.83.83,0,0,1,.2,1.07v0c-.18.41-.56.6-.86.45-4.74-2.4-8.37,1.06-9.58,2.48C1550.77,1075.22,1550.41,1075.26,1550.2,1075Z" transform="translate(-38.11 -58.86)" style="fill:#fff"/><path d="M1530.89,1078.39c0-12.58-5.67-15.72-9.08-16.48l-3.9,8.81c-.74,1.69-.25,3.59,1,4Z" transform="translate(-38.11 -58.86)" style="fill:#e87b50;opacity:0.30000000000000004;mix-blend-mode:multiply"/></g></g></svg>