<svg xmlns="http://www.w3.org/2000/svg" xmlns:xlink="http://www.w3.org/1999/xlink" viewBox="0 0 2475 1650"><defs><linearGradient id="linear-gradient" x1="-1557.43" y1="3412.77" x2="630.43" y2="3412.77" gradientTransform="translate(774 4250) rotate(180)" gradientUnits="userSpaceOnUse"><stop offset="0" stop-color="#b37cff"/><stop offset="1" stop-color="#f895e7"/></linearGradient><linearGradient id="linear-gradient-2" x1="487.66" y1="3452.9" x2="2590.26" y2="3452.9" gradientTransform="matrix(1, 0, 0, -1, -258.84, 4250)" xlink:href="#linear-gradient"/><linearGradient id="linear-gradient-3" x1="691.1" y1="1162.16" x2="613.94" y2="853.51" gradientTransform="matrix(1, 0, 0, 1, 0, 0)" xlink:href="#linear-gradient"/><linearGradient id="linear-gradient-4" x1="3212.21" y1="861.6" x2="2647.2" y2="1855.04" gradientTransform="matrix(-1, 0, 0, 1, 3562.84, 0)" gradientUnits="userSpaceOnUse"><stop offset="0" stop-color="#a737d5"/><stop offset="1" stop-color="#ef497a"/></linearGradient><linearGradient id="linear-gradient-5" x1="-4398.4" y1="1162.16" x2="-4475.56" y2="853.51" gradientTransform="matrix(-1, 0, 0, 1, -2602.77, 0)" xlink:href="#linear-gradient"/><linearGradient id="linear-gradient-6" x1="8301.72" y1="861.6" x2="7736.7" y2="1855.04" gradientTransform="translate(-6165.6)" xlink:href="#linear-gradient-4"/><linearGradient id="linear-gradient-7" x1="1214.61" y1="515.75" x2="1274.57" y2="1939.85" gradientUnits="userSpaceOnUse"><stop offset="0" stop-color="#fdf53f"/><stop offset="1" stop-color="#d93c65"/></linearGradient><linearGradient id="linear-gradient-8" x1="1214.09" y1="203.78" x2="1272.08" y2="1580.98" xlink:href="#linear-gradient-7"/><linearGradient id="linear-gradient-9" x1="1363.3" y1="855.24" x2="1861.36" y2="1358.06" gradientUnits="userSpaceOnUse"><stop offset="0" stop-color="#cb236d"/><stop offset="1" stop-color="#4c246d"/></linearGradient><linearGradient id="linear-gradient-10" x1="5502.6" y1="1393.28" x2="5565.91" y2="1393.28" gradientTransform="translate(-3933.96)" gradientUnits="userSpaceOnUse"><stop offset="0" stop-color="#f9b776"/><stop offset="1" stop-color="#f47960"/></linearGradient><linearGradient id="linear-gradient-11" x1="5429.11" y1="486.89" x2="5438.22" y2="566.68" gradientTransform="translate(-3933.96)" xlink:href="#linear-gradient-9"/><linearGradient id="linear-gradient-12" x1="5428.26" y1="1397.6" x2="5561.86" y2="1397.6" xlink:href="#linear-gradient-10"/><linearGradient id="linear-gradient-13" x1="836.85" y1="1314.19" x2="914.36" y2="1465.8" gradientTransform="translate(808.21)" gradientUnits="userSpaceOnUse"><stop offset="0" stop-color="#2b3582"/><stop offset="1" stop-color="#150e42"/></linearGradient><linearGradient id="linear-gradient-14" x1="5336.43" y1="497.49" x2="5345.55" y2="577.28" gradientTransform="translate(-3933.96)" xlink:href="#linear-gradient-9"/><linearGradient id="linear-gradient-15" x1="5576.61" y1="1203.98" x2="5647.6" y2="1358.49" gradientTransform="translate(-3933.96)" gradientUnits="userSpaceOnUse"><stop offset="0" stop-color="#52f0c0"/><stop offset="1" stop-color="#9f71fb"/></linearGradient><linearGradient id="linear-gradient-16" x1="5578.32" y1="1214.24" x2="5571.64" y2="1171.36" xlink:href="#linear-gradient-10"/><linearGradient id="linear-gradient-17" x1="5549.44" y1="1133.43" x2="5608.46" y2="1173.53" xlink:href="#linear-gradient-10"/><linearGradient id="linear-gradient-18" x1="1370.29" y1="848.31" x2="1868.35" y2="1351.14" xlink:href="#linear-gradient-9"/><linearGradient id="linear-gradient-19" x1="5552.97" y1="1128.22" x2="5612" y2="1168.32" xlink:href="#linear-gradient-10"/><linearGradient id="linear-gradient-20" x1="5616.68" y1="1288.49" x2="5742.18" y2="1288.49" xlink:href="#linear-gradient-10"/><linearGradient id="linear-gradient-21" x1="5592.82" y1="1470.35" x2="5612.06" y2="1349.3" gradientTransform="translate(-3933.96)" gradientUnits="userSpaceOnUse"><stop offset="0" stop-color="#53d8ff"/><stop offset="1" stop-color="#3840f7"/></linearGradient><linearGradient id="linear-gradient-22" x1="5600.53" y1="1471.58" x2="5619.78" y2="1350.53" xlink:href="#linear-gradient-21"/><linearGradient id="linear-gradient-23" x1="5585.67" y1="1469.22" x2="5604.91" y2="1348.16" xlink:href="#linear-gradient-21"/><linearGradient id="linear-gradient-24" x1="5536.13" y1="1637.81" x2="5457.13" y2="1659.46" gradientTransform="translate(-3925.29 -86.8) rotate(-2.83)" xlink:href="#linear-gradient-13"/><linearGradient id="linear-gradient-25" x1="5512.14" y1="1224.52" x2="5456.08" y2="1283.77" gradientTransform="translate(-3933.96)" xlink:href="#linear-gradient-13"/><linearGradient id="linear-gradient-26" x1="5321.67" y1="1309.97" x2="5739.55" y2="1309.97" gradientTransform="translate(-3933.96)" gradientUnits="userSpaceOnUse"><stop offset="0" stop-color="#9cfffb"/><stop offset="1" stop-color="#9bfffa"/></linearGradient><linearGradient id="linear-gradient-27" x1="5345.67" y1="1401.56" x2="5428.16" y2="1401.56" xlink:href="#linear-gradient-26"/><linearGradient id="linear-gradient-28" x1="5355.2" y1="1401.56" x2="5437.69" y2="1401.56" xlink:href="#linear-gradient-26"/><linearGradient id="linear-gradient-29" x1="5642.23" y1="1401.56" x2="5724.72" y2="1401.56" xlink:href="#linear-gradient-26"/><linearGradient id="linear-gradient-30" x1="5651.75" y1="1401.56" x2="5734.25" y2="1401.56" xlink:href="#linear-gradient-26"/><clipPath id="clip-path"><polygon points="697.64 789.07 1238.24 1115.39 1748 808.36 1748 333 740.08 333 697.64 789.07" style="fill:none"/></clipPath><linearGradient id="linear-gradient-31" x1="1512.77" y1="736.05" x2="961.44" y2="1491.72" gradientTransform="matrix(1, 0, 0, 1, 0, 0)" xlink:href="#linear-gradient-21"/><linearGradient id="linear-gradient-32" x1="1283.04" y1="364.72" x2="1180.69" y2="1436.33" gradientTransform="matrix(1, 0, 0, 1, 0, 0)" xlink:href="#linear-gradient-21"/><linearGradient id="linear-gradient-33" x1="2063.01" y1="806.75" x2="2065.66" y2="806.75" gradientTransform="matrix(1, 0, 0, 1, 0, 0)" xlink:href="#linear-gradient-26"/><linearGradient id="linear-gradient-34" x1="2064.04" y1="827.45" x2="2066.39" y2="827.45" gradientTransform="matrix(1, 0, 0, 1, 0, 0)" xlink:href="#linear-gradient-26"/><linearGradient id="linear-gradient-35" x1="2062.78" y1="848.15" x2="2065.85" y2="848.15" gradientTransform="matrix(1, 0, 0, 1, 0, 0)" xlink:href="#linear-gradient-26"/><linearGradient id="linear-gradient-36" x1="2059.81" y1="868.71" x2="2063.6" y2="868.71" gradientTransform="matrix(1, 0, 0, 1, 0, 0)" xlink:href="#linear-gradient-26"/><linearGradient id="linear-gradient-37" x1="2055.2" y1="888.99" x2="2059.69" y2="888.99" gradientTransform="matrix(1, 0, 0, 1, 0, 0)" xlink:href="#linear-gradient-26"/><linearGradient id="linear-gradient-38" x1="2049.02" y1="908.87" x2="2054.19" y2="908.87" gradientTransform="matrix(1, 0, 0, 1, 0, 0)" xlink:href="#linear-gradient-26"/><linearGradient id="linear-gradient-39" x1="2041.34" y1="928.26" x2="2047.16" y2="928.26" gradientTransform="matrix(1, 0, 0, 1, 0, 0)" xlink:href="#linear-gradient-26"/><linearGradient id="linear-gradient-40" x1="2032.23" y1="947.03" x2="2038.69" y2="947.03" gradientTransform="matrix(1, 0, 0, 1, 0, 0)" xlink:href="#linear-gradient-26"/><linearGradient id="linear-gradient-41" x1="2021.75" y1="965.09" x2="2028.83" y2="965.09" gradientTransform="matrix(1, 0, 0, 1, 0, 0)" xlink:href="#linear-gradient-26"/><linearGradient id="linear-gradient-42" x1="2009.97" y1="982.34" x2="2017.65" y2="982.34" gradientTransform="matrix(1, 0, 0, 1, 0, 0)" xlink:href="#linear-gradient-26"/><linearGradient id="linear-gradient-43" x1="1996.94" y1="998.7" x2="2005.21" y2="998.7" gradientTransform="matrix(1, 0, 0, 1, 0, 0)" xlink:href="#linear-gradient-26"/><linearGradient id="linear-gradient-44" x1="1982.72" y1="1014.04" x2="1991.56" y2="1014.04" gradientTransform="matrix(1, 0, 0, 1, 0, 0)" xlink:href="#linear-gradient-26"/><linearGradient id="linear-gradient-45" x1="1967.37" y1="1028.27" x2="1976.76" y2="1028.27" gradientTransform="matrix(1, 0, 0, 1, 0, 0)" xlink:href="#linear-gradient-26"/><linearGradient id="linear-gradient-46" x1="1950.97" y1="1041.27" x2="1960.88" y2="1041.27" gradientTransform="matrix(1, 0, 0, 1, 0, 0)" xlink:href="#linear-gradient-26"/><linearGradient id="linear-gradient-47" x1="1933.61" y1="1052.9" x2="1943.99" y2="1052.9" gradientTransform="matrix(1, 0, 0, 1, 0, 0)" xlink:href="#linear-gradient-26"/><linearGradient id="linear-gradient-48" x1="1915.37" y1="1063.08" x2="1926.13" y2="1063.08" gradientTransform="matrix(1, 0, 0, 1, 0, 0)" xlink:href="#linear-gradient-26"/><linearGradient id="linear-gradient-49" x1="1896.34" y1="1071.65" x2="1907.45" y2="1071.65" gradientTransform="matrix(1, 0, 0, 1, 0, 0)" xlink:href="#linear-gradient-26"/><linearGradient id="linear-gradient-50" x1="1876.67" y1="1078.61" x2="1888.07" y2="1078.61" gradientTransform="matrix(1, 0, 0, 1, 0, 0)" xlink:href="#linear-gradient-26"/><linearGradient id="linear-gradient-51" x1="1856.54" y1="1084.01" x2="1868.19" y2="1084.01" gradientTransform="matrix(1, 0, 0, 1, 0, 0)" xlink:href="#linear-gradient-26"/><linearGradient id="linear-gradient-52" x1="1836.08" y1="1087.86" x2="1847.93" y2="1087.86" gradientTransform="matrix(1, 0, 0, 1, 0, 0)" xlink:href="#linear-gradient-26"/><linearGradient id="linear-gradient-53" x1="1815.41" y1="1090.22" x2="1827.43" y2="1090.22" gradientTransform="matrix(1, 0, 0, 1, 0, 0)" xlink:href="#linear-gradient-26"/><linearGradient id="linear-gradient-54" x1="1794.64" y1="1091.14" x2="1806.79" y2="1091.14" gradientTransform="matrix(1, 0, 0, 1, 0, 0)" xlink:href="#linear-gradient-26"/><linearGradient id="linear-gradient-55" x1="1773.86" y1="1090.67" x2="1786.13" y2="1090.67" gradientTransform="matrix(1, 0, 0, 1, 0, 0)" xlink:href="#linear-gradient-26"/><linearGradient id="linear-gradient-56" x1="1753.17" y1="1088.93" x2="1765.52" y2="1088.93" gradientTransform="matrix(1, 0, 0, 1, 0, 0)" xlink:href="#linear-gradient-26"/><linearGradient id="linear-gradient-57" x1="1732.62" y1="1085.97" x2="1745.04" y2="1085.97" gradientTransform="matrix(1, 0, 0, 1, 0, 0)" xlink:href="#linear-gradient-26"/><linearGradient id="linear-gradient-58" x1="1712.29" y1="1081.86" x2="1724.75" y2="1081.86" gradientTransform="matrix(1, 0, 0, 1, 0, 0)" xlink:href="#linear-gradient-26"/><linearGradient id="linear-gradient-59" x1="1692.19" y1="1076.67" x2="1704.71" y2="1076.67" gradientTransform="matrix(1, 0, 0, 1, 0, 0)" xlink:href="#linear-gradient-26"/><linearGradient id="linear-gradient-60" x1="1672.41" y1="1070.45" x2="1684.94" y2="1070.45" gradientTransform="matrix(1, 0, 0, 1, 0, 0)" xlink:href="#linear-gradient-26"/><linearGradient id="linear-gradient-61" x1="1652.96" y1="1063.25" x2="1665.51" y2="1063.25" gradientTransform="matrix(1, 0, 0, 1, 0, 0)" xlink:href="#linear-gradient-26"/><linearGradient id="linear-gradient-62" x1="1633.89" y1="1055.13" x2="1646.44" y2="1055.13" gradientTransform="matrix(1, 0, 0, 1, 0, 0)" xlink:href="#linear-gradient-26"/><linearGradient id="linear-gradient-63" x1="1615.22" y1="1046.12" x2="1627.76" y2="1046.12" gradientTransform="matrix(1, 0, 0, 1, 0, 0)" xlink:href="#linear-gradient-26"/><linearGradient id="linear-gradient-64" x1="1597.05" y1="1036.26" x2="1609.5" y2="1036.26" gradientTransform="matrix(1, 0, 0, 1, 0, 0)" xlink:href="#linear-gradient-26"/><linearGradient id="linear-gradient-65" x1="1579.28" y1="1025.66" x2="1591.66" y2="1025.66" gradientTransform="matrix(1, 0, 0, 1, 0, 0)" xlink:href="#linear-gradient-26"/><linearGradient id="linear-gradient-66" x1="1561.93" y1="1014.38" x2="1574.22" y2="1014.38" gradientTransform="matrix(1, 0, 0, 1, 0, 0)" xlink:href="#linear-gradient-26"/><linearGradient id="linear-gradient-67" x1="1544.98" y1="1002.51" x2="1557.19" y2="1002.51" gradientTransform="matrix(1, 0, 0, 1, 0, 0)" xlink:href="#linear-gradient-26"/><linearGradient id="linear-gradient-68" x1="1528.43" y1="990.09" x2="1540.55" y2="990.09" gradientTransform="matrix(1, 0, 0, 1, 0, 0)" xlink:href="#linear-gradient-26"/><linearGradient id="linear-gradient-69" x1="1512.24" y1="977.18" x2="1524.29" y2="977.18" gradientTransform="matrix(1, 0, 0, 1, 0, 0)" xlink:href="#linear-gradient-26"/><linearGradient id="linear-gradient-70" x1="1496.41" y1="963.85" x2="1508.39" y2="963.85" gradientTransform="matrix(1, 0, 0, 1, 0, 0)" xlink:href="#linear-gradient-26"/><linearGradient id="linear-gradient-71" x1="1480.9" y1="950.13" x2="1492.82" y2="950.13" gradientTransform="matrix(1, 0, 0, 1, 0, 0)" xlink:href="#linear-gradient-26"/><linearGradient id="linear-gradient-72" x1="1465.68" y1="936.08" x2="1477.56" y2="936.08" gradientTransform="matrix(1, 0, 0, 1, 0, 0)" xlink:href="#linear-gradient-26"/><linearGradient id="linear-gradient-73" x1="1450.73" y1="921.75" x2="1462.57" y2="921.75" gradientTransform="matrix(1, 0, 0, 1, 0, 0)" xlink:href="#linear-gradient-26"/><linearGradient id="linear-gradient-74" x1="1435.99" y1="907.17" x2="1447.81" y2="907.17" gradientTransform="matrix(1, 0, 0, 1, 0, 0)" xlink:href="#linear-gradient-26"/><linearGradient id="linear-gradient-75" x1="1421.45" y1="892.4" x2="1433.25" y2="892.4" gradientTransform="matrix(1, 0, 0, 1, 0, 0)" xlink:href="#linear-gradient-26"/><linearGradient id="linear-gradient-76" x1="1407.07" y1="877.46" x2="1418.87" y2="877.46" gradientTransform="matrix(1, 0, 0, 1, 0, 0)" xlink:href="#linear-gradient-26"/><linearGradient id="linear-gradient-77" x1="1392.81" y1="862.4" x2="1404.61" y2="862.4" gradientTransform="matrix(1, 0, 0, 1, 0, 0)" xlink:href="#linear-gradient-26"/><linearGradient id="linear-gradient-78" x1="1378.64" y1="847.25" x2="1390.46" y2="847.25" gradientTransform="matrix(1, 0, 0, 1, 0, 0)" xlink:href="#linear-gradient-26"/><linearGradient id="linear-gradient-79" x1="1364.51" y1="832.05" x2="1376.36" y2="832.05" gradientTransform="matrix(1, 0, 0, 1, 0, 0)" xlink:href="#linear-gradient-26"/><linearGradient id="linear-gradient-80" x1="1350.39" y1="816.85" x2="1362.28" y2="816.85" gradientTransform="matrix(1, 0, 0, 1, 0, 0)" xlink:href="#linear-gradient-26"/><linearGradient id="linear-gradient-81" x1="1336.23" y1="801.69" x2="1348.17" y2="801.69" gradientTransform="matrix(1, 0, 0, 1, 0, 0)" xlink:href="#linear-gradient-26"/><linearGradient id="linear-gradient-82" x1="1321.99" y1="786.59" x2="1334" y2="786.59" gradientTransform="matrix(1, 0, 0, 1, 0, 0)" xlink:href="#linear-gradient-26"/><linearGradient id="linear-gradient-83" x1="1307.64" y1="771.59" x2="1319.73" y2="771.59" gradientTransform="matrix(1, 0, 0, 1, 0, 0)" xlink:href="#linear-gradient-26"/><linearGradient id="linear-gradient-84" x1="1293.13" y1="756.74" x2="1305.32" y2="756.74" gradientTransform="matrix(1, 0, 0, 1, 0, 0)" xlink:href="#linear-gradient-26"/><linearGradient id="linear-gradient-85" x1="1278.43" y1="742.07" x2="1290.72" y2="742.07" gradientTransform="matrix(1, 0, 0, 1, 0, 0)" xlink:href="#linear-gradient-26"/><linearGradient id="linear-gradient-86" x1="1263.51" y1="727.62" x2="1275.91" y2="727.62" gradientTransform="matrix(1, 0, 0, 1, 0, 0)" xlink:href="#linear-gradient-26"/><linearGradient id="linear-gradient-87" x1="1248.36" y1="713.45" x2="1260.84" y2="713.45" gradientTransform="matrix(1, 0, 0, 1, 0, 0)" xlink:href="#linear-gradient-26"/><linearGradient id="linear-gradient-88" x1="1232.92" y1="699.58" x2="1245.45" y2="699.58" gradientTransform="matrix(1, 0, 0, 1, 0, 0)" xlink:href="#linear-gradient-26"/><linearGradient id="linear-gradient-89" x1="1217.16" y1="686.07" x2="1229.76" y2="686.07" gradientTransform="matrix(1, 0, 0, 1, 0, 0)" xlink:href="#linear-gradient-26"/><linearGradient id="linear-gradient-90" x1="1201.06" y1="672.98" x2="1213.75" y2="672.98" gradientTransform="matrix(1, 0, 0, 1, 0, 0)" xlink:href="#linear-gradient-26"/><linearGradient id="linear-gradient-91" x1="1184.59" y1="660.35" x2="1197.36" y2="660.35" gradientTransform="matrix(1, 0, 0, 1, 0, 0)" xlink:href="#linear-gradient-26"/><linearGradient id="linear-gradient-92" x1="1167.73" y1="648.25" x2="1180.59" y2="648.25" gradientTransform="matrix(1, 0, 0, 1, 0, 0)" xlink:href="#linear-gradient-26"/><linearGradient id="linear-gradient-93" x1="1150.46" y1="636.71" x2="1163.42" y2="636.71" gradientTransform="matrix(1, 0, 0, 1, 0, 0)" xlink:href="#linear-gradient-26"/><linearGradient id="linear-gradient-94" x1="1132.78" y1="625.8" x2="1145.83" y2="625.8" gradientTransform="matrix(1, 0, 0, 1, 0, 0)" xlink:href="#linear-gradient-26"/><linearGradient id="linear-gradient-95" x1="1114.72" y1="615.56" x2="1127.85" y2="615.56" gradientTransform="matrix(1, 0, 0, 1, 0, 0)" xlink:href="#linear-gradient-26"/><linearGradient id="linear-gradient-96" x1="1096.3" y1="605.99" x2="1109.51" y2="605.99" gradientTransform="matrix(1, 0, 0, 1, 0, 0)" xlink:href="#linear-gradient-26"/><linearGradient id="linear-gradient-97" x1="1077.55" y1="597.08" x2="1090.82" y2="597.08" gradientTransform="matrix(1, 0, 0, 1, 0, 0)" xlink:href="#linear-gradient-26"/><linearGradient id="linear-gradient-98" x1="1058.5" y1="588.86" x2="1071.83" y2="588.86" gradientTransform="matrix(1, 0, 0, 1, 0, 0)" xlink:href="#linear-gradient-26"/><linearGradient id="linear-gradient-99" x1="1039.17" y1="581.32" x2="1052.55" y2="581.32" gradientTransform="matrix(1, 0, 0, 1, 0, 0)" xlink:href="#linear-gradient-26"/><linearGradient id="linear-gradient-100" x1="1019.58" y1="574.46" x2="1033.01" y2="574.46" gradientTransform="matrix(1, 0, 0, 1, 0, 0)" xlink:href="#linear-gradient-26"/><linearGradient id="linear-gradient-101" x1="999.76" y1="568.31" x2="1013.23" y2="568.31" gradientTransform="matrix(1, 0, 0, 1, 0, 0)" xlink:href="#linear-gradient-26"/><linearGradient id="linear-gradient-102" x1="979.75" y1="562.85" x2="993.24" y2="562.85" gradientTransform="matrix(1, 0, 0, 1, 0, 0)" xlink:href="#linear-gradient-26"/><linearGradient id="linear-gradient-103" x1="959.55" y1="558.1" x2="973.06" y2="558.1" gradientTransform="matrix(1, 0, 0, 1, 0, 0)" xlink:href="#linear-gradient-26"/><linearGradient id="linear-gradient-104" x1="939.21" y1="554.06" x2="952.73" y2="554.06" gradientTransform="matrix(1, 0, 0, 1, 0, 0)" xlink:href="#linear-gradient-26"/><linearGradient id="linear-gradient-105" x1="918.74" y1="550.74" x2="932.27" y2="550.74" gradientTransform="matrix(1, 0, 0, 1, 0, 0)" xlink:href="#linear-gradient-26"/><linearGradient id="linear-gradient-106" x1="898.17" y1="548.14" x2="911.7" y2="548.14" gradientTransform="matrix(1, 0, 0, 1, 0, 0)" xlink:href="#linear-gradient-26"/><linearGradient id="linear-gradient-107" x1="877.53" y1="546.27" x2="891.04" y2="546.27" gradientTransform="matrix(1, 0, 0, 1, 0, 0)" xlink:href="#linear-gradient-26"/><linearGradient id="linear-gradient-108" x1="856.84" y1="545.13" x2="870.33" y2="545.13" gradientTransform="matrix(1, 0, 0, 1, 0, 0)" xlink:href="#linear-gradient-26"/><linearGradient id="linear-gradient-109" x1="836.13" y1="544.73" x2="849.6" y2="544.73" gradientTransform="matrix(1, 0, 0, 1, 0, 0)" xlink:href="#linear-gradient-26"/><linearGradient id="linear-gradient-110" x1="815.42" y1="545.08" x2="828.86" y2="545.08" gradientTransform="matrix(1, 0, 0, 1, 0, 0)" xlink:href="#linear-gradient-26"/><linearGradient id="linear-gradient-111" x1="794.75" y1="546.18" x2="808.14" y2="546.18" gradientTransform="matrix(1, 0, 0, 1, 0, 0)" xlink:href="#linear-gradient-26"/><linearGradient id="linear-gradient-112" x1="774.13" y1="548.03" x2="787.47" y2="548.03" gradientTransform="matrix(1, 0, 0, 1, 0, 0)" xlink:href="#linear-gradient-26"/><linearGradient id="linear-gradient-113" x1="753.6" y1="550.65" x2="766.88" y2="550.65" gradientTransform="matrix(1, 0, 0, 1, 0, 0)" xlink:href="#linear-gradient-26"/><linearGradient id="linear-gradient-114" x1="733.18" y1="554.06" x2="746.4" y2="554.06" gradientTransform="matrix(1, 0, 0, 1, 0, 0)" xlink:href="#linear-gradient-26"/><linearGradient id="linear-gradient-115" x1="712.94" y1="558.34" x2="726.07" y2="558.34" gradientTransform="matrix(1, 0, 0, 1, 0, 0)" xlink:href="#linear-gradient-26"/><linearGradient id="linear-gradient-116" x1="692.93" y1="563.52" x2="705.96" y2="563.52" gradientTransform="matrix(1, 0, 0, 1, 0, 0)" xlink:href="#linear-gradient-26"/><linearGradient id="linear-gradient-117" x1="673.22" y1="569.67" x2="686.09" y2="569.67" gradientTransform="matrix(1, 0, 0, 1, 0, 0)" xlink:href="#linear-gradient-26"/><linearGradient id="linear-gradient-118" x1="653.88" y1="576.85" x2="666.54" y2="576.85" gradientTransform="matrix(1, 0, 0, 1, 0, 0)" xlink:href="#linear-gradient-26"/><linearGradient id="linear-gradient-119" x1="635" y1="585.13" x2="647.42" y2="585.13" gradientTransform="matrix(1, 0, 0, 1, 0, 0)" xlink:href="#linear-gradient-26"/><linearGradient id="linear-gradient-120" x1="616.68" y1="594.57" x2="628.83" y2="594.57" gradientTransform="matrix(1, 0, 0, 1, 0, 0)" xlink:href="#linear-gradient-26"/><linearGradient id="linear-gradient-121" x1="599.06" y1="605.22" x2="610.9" y2="605.22" gradientTransform="matrix(1, 0, 0, 1, 0, 0)" xlink:href="#linear-gradient-26"/><linearGradient id="linear-gradient-122" x1="582.29" y1="617.15" x2="593.77" y2="617.15" gradientTransform="matrix(1, 0, 0, 1, 0, 0)" xlink:href="#linear-gradient-26"/><linearGradient id="linear-gradient-123" x1="566.55" y1="630.38" x2="577.6" y2="630.38" gradientTransform="matrix(1, 0, 0, 1, 0, 0)" xlink:href="#linear-gradient-26"/><linearGradient id="linear-gradient-124" x1="552" y1="644.91" x2="562.58" y2="644.91" gradientTransform="matrix(1, 0, 0, 1, 0, 0)" xlink:href="#linear-gradient-26"/><linearGradient id="linear-gradient-125" x1="538.84" y1="660.69" x2="548.89" y2="660.69" gradientTransform="matrix(1, 0, 0, 1, 0, 0)" xlink:href="#linear-gradient-26"/><linearGradient id="linear-gradient-126" x1="527.35" y1="677.72" x2="536.77" y2="677.72" gradientTransform="matrix(1, 0, 0, 1, 0, 0)" xlink:href="#linear-gradient-26"/><linearGradient id="linear-gradient-127" x1="517.61" y1="695.84" x2="526.41" y2="695.84" gradientTransform="matrix(1, 0, 0, 1, 0, 0)" xlink:href="#linear-gradient-26"/><linearGradient id="linear-gradient-128" x1="509.65" y1="714.84" x2="517.82" y2="714.84" gradientTransform="matrix(1, 0, 0, 1, 0, 0)" xlink:href="#linear-gradient-26"/><linearGradient id="linear-gradient-129" x1="503.49" y1="734.52" x2="511.01" y2="734.52" gradientTransform="matrix(1, 0, 0, 1, 0, 0)" xlink:href="#linear-gradient-26"/><linearGradient id="linear-gradient-130" x1="499.1" y1="754.69" x2="505.99" y2="754.69" gradientTransform="matrix(1, 0, 0, 1, 0, 0)" xlink:href="#linear-gradient-26"/><linearGradient id="linear-gradient-131" x1="496.47" y1="775.21" x2="502.74" y2="775.21" gradientTransform="matrix(1, 0, 0, 1, 0, 0)" xlink:href="#linear-gradient-26"/><linearGradient id="linear-gradient-132" x1="495.59" y1="795.9" x2="501.24" y2="795.9" gradientTransform="matrix(1, 0, 0, 1, 0, 0)" xlink:href="#linear-gradient-26"/><linearGradient id="linear-gradient-133" x1="496" y1="816.62" x2="501.89" y2="816.62" gradientTransform="matrix(1, 0, 0, 1, 0, 0)" xlink:href="#linear-gradient-26"/><linearGradient id="linear-gradient-134" x1="498.07" y1="837.22" x2="504.39" y2="837.22" gradientTransform="matrix(1, 0, 0, 1, 0, 0)" xlink:href="#linear-gradient-26"/><linearGradient id="linear-gradient-135" x1="501.87" y1="857.55" x2="508.63" y2="857.55" gradientTransform="matrix(1, 0, 0, 1, 0, 0)" xlink:href="#linear-gradient-26"/><linearGradient id="linear-gradient-136" x1="507.41" y1="877.46" x2="514.61" y2="877.46" gradientTransform="matrix(1, 0, 0, 1, 0, 0)" xlink:href="#linear-gradient-26"/><linearGradient id="linear-gradient-137" x1="514.69" y1="896.76" x2="522.32" y2="896.76" gradientTransform="matrix(1, 0, 0, 1, 0, 0)" xlink:href="#linear-gradient-26"/><linearGradient id="linear-gradient-138" x1="523.71" y1="915.31" x2="531.78" y2="915.31" gradientTransform="matrix(1, 0, 0, 1, 0, 0)" xlink:href="#linear-gradient-26"/><linearGradient id="linear-gradient-139" x1="534.48" y1="932.88" x2="542.92" y2="932.88" gradientTransform="matrix(1, 0, 0, 1, 0, 0)" xlink:href="#linear-gradient-26"/><linearGradient id="linear-gradient-140" x1="546.97" y1="949.29" x2="555.74" y2="949.29" gradientTransform="matrix(1, 0, 0, 1, 0, 0)" xlink:href="#linear-gradient-26"/><linearGradient id="linear-gradient-141" x1="561.07" y1="964.33" x2="570.16" y2="964.33" gradientTransform="matrix(1, 0, 0, 1, 0, 0)" xlink:href="#linear-gradient-26"/><linearGradient id="linear-gradient-142" x1="576.66" y1="977.84" x2="585.99" y2="977.84" gradientTransform="matrix(1, 0, 0, 1, 0, 0)" xlink:href="#linear-gradient-26"/><linearGradient id="linear-gradient-143" x1="593.54" y1="989.75" x2="603.04" y2="989.75" gradientTransform="matrix(1, 0, 0, 1, 0, 0)" xlink:href="#linear-gradient-26"/><linearGradient id="linear-gradient-144" x1="611.49" y1="999.99" x2="621.12" y2="999.99" gradientTransform="matrix(1, 0, 0, 1, 0, 0)" xlink:href="#linear-gradient-26"/><linearGradient id="linear-gradient-145" x1="630.33" y1="1008.55" x2="640.02" y2="1008.55" gradientTransform="matrix(1, 0, 0, 1, 0, 0)" xlink:href="#linear-gradient-26"/><linearGradient id="linear-gradient-146" x1="649.87" y1="1015.41" x2="659.58" y2="1015.41" gradientTransform="matrix(1, 0, 0, 1, 0, 0)" xlink:href="#linear-gradient-26"/><linearGradient id="linear-gradient-147" x1="669.96" y1="1020.57" x2="679.64" y2="1020.57" gradientTransform="matrix(1, 0, 0, 1, 0, 0)" xlink:href="#linear-gradient-26"/><linearGradient id="linear-gradient-148" x1="690.44" y1="1024.01" x2="700.04" y2="1024.01" gradientTransform="matrix(1, 0, 0, 1, 0, 0)" xlink:href="#linear-gradient-26"/><linearGradient id="linear-gradient-149" x1="711.15" y1="1025.73" x2="720.63" y2="1025.73" gradientTransform="matrix(1, 0, 0, 1, 0, 0)" xlink:href="#linear-gradient-26"/><linearGradient id="linear-gradient-150" x1="731.96" y1="1025.73" x2="741.27" y2="1025.73" gradientTransform="matrix(1, 0, 0, 1, 0, 0)" xlink:href="#linear-gradient-26"/><linearGradient id="linear-gradient-151" x1="752.71" y1="1023.95" x2="761.82" y2="1023.95" gradientTransform="matrix(1, 0, 0, 1, 0, 0)" xlink:href="#linear-gradient-26"/><linearGradient id="linear-gradient-152" x1="773.27" y1="1020.37" x2="782.12" y2="1020.37" gradientTransform="matrix(1, 0, 0, 1, 0, 0)" xlink:href="#linear-gradient-26"/><linearGradient id="linear-gradient-153" x1="793.44" y1="1014.98" x2="801.96" y2="1014.98" gradientTransform="matrix(1, 0, 0, 1, 0, 0)" xlink:href="#linear-gradient-26"/><linearGradient id="linear-gradient-154" x1="813.04" y1="1007.76" x2="821.2" y2="1007.76" gradientTransform="matrix(1, 0, 0, 1, 0, 0)" xlink:href="#linear-gradient-26"/><linearGradient id="linear-gradient-155" x1="831.89" y1="998.69" x2="839.62" y2="998.69" gradientTransform="matrix(1, 0, 0, 1, 0, 0)" xlink:href="#linear-gradient-26"/><linearGradient id="linear-gradient-156" x1="849.77" y1="988.2" x2="855.9" y2="988.2" gradientTransform="matrix(1, 0, 0, 1, 0, 0)" xlink:href="#linear-gradient-26"/><linearGradient id="linear-gradient-157" x1="1905.84" y1="834.42" x2="2039.55" y2="1393.85" gradientTransform="matrix(1, 0, 0, 1, 0, 0)" xlink:href="#linear-gradient-21"/><linearGradient id="linear-gradient-158" x1="2127.23" y1="1597.91" x2="2129.49" y2="1530.23" gradientTransform="translate(-43.11)" gradientUnits="userSpaceOnUse"><stop offset="0" stop-color="#7c27dd"/><stop offset="1" stop-color="#2b41d9"/></linearGradient><linearGradient id="linear-gradient-159" x1="2207.64" y1="1424.71" x2="2068.21" y2="1534.19" gradientTransform="translate(-43.11)" xlink:href="#linear-gradient-21"/><linearGradient id="linear-gradient-160" x1="1312.95" y1="1426.38" x2="1305.38" y2="1492.43" gradientTransform="matrix(-1, 0, 0, 1, 3394.39, 0)" xlink:href="#linear-gradient-10"/><linearGradient id="linear-gradient-161" x1="1441.44" y1="1457.2" x2="1306.6" y2="1563.08" gradientTransform="matrix(-1, 0, 0, 1, 3394.39, 0)" xlink:href="#linear-gradient-21"/><linearGradient id="linear-gradient-162" x1="1402.55" y1="1639.76" x2="1404.81" y2="1572.08" gradientTransform="matrix(-1, 0, 0, 1, 3394.39, 0)" xlink:href="#linear-gradient-158"/><linearGradient id="linear-gradient-163" x1="1392.68" y1="1434.83" x2="1385.6" y2="1496.62" gradientTransform="matrix(-1, 0, 0, 1, 3394.39, 0)" xlink:href="#linear-gradient-10"/><linearGradient id="linear-gradient-164" x1="3363.13" y1="1432.86" x2="3371.63" y2="1166.75" gradientTransform="matrix(-1, 0, 0, 1, 5408.55, 0)" gradientUnits="userSpaceOnUse"><stop offset="0" stop-color="#2c759e"/><stop offset="1" stop-color="#051042"/></linearGradient><linearGradient id="linear-gradient-165" x1="1995.18" y1="813.12" x2="2128.88" y2="1372.47" gradientTransform="matrix(1, 0, 0, 1, 0, 0)" xlink:href="#linear-gradient-21"/><linearGradient id="linear-gradient-166" x1="-493.49" y1="1002.65" x2="-459.55" y2="1002.65" gradientTransform="matrix(-1, 0, 0, 1, 1582.55, 0)" xlink:href="#linear-gradient-10"/><linearGradient id="linear-gradient-167" x1="2045.3" y1="801.14" x2="2179" y2="1360.5" gradientTransform="matrix(1, 0, 0, 1, 0, 0)" xlink:href="#linear-gradient-21"/><linearGradient id="linear-gradient-168" x1="-485.23" y1="1180.85" x2="-545.63" y2="1232.44" gradientTransform="matrix(-1, 0, 0, 1, 1582.55, 0)" xlink:href="#linear-gradient-10"/><linearGradient id="linear-gradient-169" x1="-6987.41" y1="265.39" x2="-7009.58" y2="288.83" gradientTransform="matrix(0.96, 0.29, -0.37, 1.22, 8733.16, 2685.15)" xlink:href="#linear-gradient-13"/><linearGradient id="linear-gradient-170" x1="1911.01" y1="995.75" x2="1913.51" y2="1036.3" gradientTransform="matrix(1, 0, 0, 1, 0, 0)" xlink:href="#linear-gradient-10"/><linearGradient id="linear-gradient-171" x1="-4536.08" y1="-3262.2" x2="-4589.34" y2="-3191.75" gradientTransform="matrix(-0.99, -0.16, -0.16, 0.99, -2962.93, 3461.43)" xlink:href="#linear-gradient-10"/><linearGradient id="linear-gradient-172" x1="-4576.75" y1="-3245.28" x2="-4513.14" y2="-3245.28" gradientTransform="matrix(-0.99, -0.16, -0.16, 0.99, -2962.93, 3461.43)" xlink:href="#linear-gradient-13"/><linearGradient id="linear-gradient-173" x1="-4612.88" y1="-3207.23" x2="-4571.05" y2="-3250.14" gradientTransform="matrix(-0.99, -0.16, -0.16, 0.99, -2962.93, 3461.43)" xlink:href="#linear-gradient-10"/><linearGradient id="linear-gradient-174" x1="1596.29" y1="1270.12" x2="1555.89" y2="1468.6" gradientTransform="matrix(1, 0, 0, 1, 0, 0)" xlink:href="#linear-gradient-21"/><linearGradient id="linear-gradient-175" x1="-1212.65" y1="969.69" x2="-1294.79" y2="1091.27" gradientTransform="matrix(-1, 0, 0, 1, 259, 0)" xlink:href="#linear-gradient-21"/><linearGradient id="linear-gradient-176" x1="1628.42" y1="954.89" x2="1632.37" y2="1039.45" gradientTransform="matrix(1, 0, 0, 1, 0, 0)" xlink:href="#linear-gradient-21"/><linearGradient id="linear-gradient-177" x1="-5751.19" y1="1198.18" x2="-5459.37" y2="1198.18" gradientTransform="matrix(-1, -0.02, -0.02, 1, -4875.8, -93.23)" xlink:href="#linear-gradient-13"/><linearGradient id="linear-gradient-178" x1="-5529.95" y1="1082.18" x2="-6130.99" y2="1851.05" gradientTransform="matrix(-1, -0.02, -0.02, 1, -4875.8, -93.23)" xlink:href="#linear-gradient-21"/><linearGradient id="linear-gradient-179" x1="699.69" y1="1027.82" x2="704.34" y2="1347.01" gradientTransform="translate(1063.13 -141.51) rotate(45)" xlink:href="#linear-gradient-21"/><linearGradient id="linear-gradient-180" x1="1692.58" y1="1432.25" x2="1506.72" y2="1634.42" gradientTransform="translate(-1198.53)" xlink:href="#linear-gradient-13"/><linearGradient id="linear-gradient-181" x1="1632.25" y1="1447.27" x2="1648.76" y2="1447.27" gradientTransform="translate(-1198.53)" xlink:href="#linear-gradient-10"/><linearGradient id="linear-gradient-182" x1="1602.34" y1="1432.59" x2="1638.82" y2="1220.65" gradientTransform="translate(-1198.53)" xlink:href="#linear-gradient-13"/><linearGradient id="linear-gradient-183" x1="1650.88" y1="1393.92" x2="1465.02" y2="1596.09" gradientTransform="translate(-1198.53)" xlink:href="#linear-gradient-13"/><linearGradient id="linear-gradient-184" x1="1572.75" y1="1446.42" x2="1587.01" y2="1446.42" gradientTransform="translate(-1198.53)" xlink:href="#linear-gradient-10"/><linearGradient id="linear-gradient-185" x1="1561.09" y1="1425.49" x2="1597.57" y2="1213.55" gradientTransform="translate(-1198.53)" xlink:href="#linear-gradient-13"/><linearGradient id="linear-gradient-186" x1="1535.35" y1="1170.62" x2="1795.13" y2="983.67" gradientTransform="translate(-1198.53)" xlink:href="#linear-gradient-7"/><linearGradient id="linear-gradient-187" x1="1700.19" y1="1016.56" x2="1784.53" y2="1016.56" gradientTransform="translate(-1198.53)" xlink:href="#linear-gradient-10"/><linearGradient id="linear-gradient-188" x1="7446.04" y1="1002.42" x2="7502.63" y2="1131.19" gradientTransform="matrix(-1, 0, 0, 1, 8013.25, 0)" xlink:href="#linear-gradient-10"/><linearGradient id="linear-gradient-189" x1="1784.13" y1="959.53" x2="1807.74" y2="923.22" gradientTransform="translate(-1198.53)" xlink:href="#linear-gradient-10"/><linearGradient id="linear-gradient-190" x1="1500.96" y1="1122.83" x2="1760.74" y2="935.88" gradientTransform="translate(-1198.53)" xlink:href="#linear-gradient-7"/><linearGradient id="linear-gradient-191" x1="1597.59" y1="1021.92" x2="1639.79" y2="1021.92" gradientTransform="translate(-1198.53)" xlink:href="#linear-gradient-10"/><linearGradient id="linear-gradient-192" x1="-4634.02" y1="-823.6" x2="-4649.79" y2="-875.61" gradientTransform="matrix(0.75, -0.67, 0.67, 0.75, 4456.71, -1476.32)" xlink:href="#linear-gradient-10"/><linearGradient id="linear-gradient-193" x1="-1787.83" y1="-4121.9" x2="-1658.15" y2="-4269.95" gradientTransform="matrix(0.75, -0.67, 0.67, 0.75, 4456.71, -1476.32)" xlink:href="#linear-gradient-13"/><linearGradient id="linear-gradient-194" x1="-4650.14" y1="-823.84" x2="-4664.33" y2="-870.64" gradientTransform="matrix(0.75, -0.67, 0.67, 0.75, 4456.71, -1476.32)" xlink:href="#linear-gradient-10"/><linearGradient id="linear-gradient-195" x1="1602.74" y1="1195.71" x2="1515.86" y2="1126.2" gradientTransform="translate(-1198.53)" xlink:href="#linear-gradient-10"/><linearGradient id="linear-gradient-196" x1="-8423.01" y1="734.56" x2="-8445.18" y2="758" gradientTransform="matrix(0.96, 0.29, -0.37, 1.22, 8733.16, 2685.15)" xlink:href="#linear-gradient-13"/><linearGradient id="linear-gradient-197" x1="373.74" y1="1164.74" x2="357.64" y2="1176.76" gradientTransform="matrix(1, 0, 0, 1, 0, 0)" xlink:href="#linear-gradient-10"/></defs><g style="isolation:isolate"><g id="Background"><rect width="2475" height="1650" style="fill:#fff"/></g><g id="Illustration"><path d="M168,784.36c25.38,44.91,65.72,82.69,96.8,124.68,89.8,121.34-3.64,263.33,37.35,394.14,35.71,114,184.24,144.53,292.81,149.15,182.95,7.8,365.69-3.88,542.07-53.5,122.4-34.43,245-79.51,374-82.24,131.88-2.79,255.93,50.16,383.34,75.2,139.91,27.49,307.24-2.36,341-158.6,20.9-96.78-35.36-185.92-40.62-281.21-7-126.16,118.79-195.39,135.07-313.33,10.26-74.36-28.08-140.8-78.1-194.61-52.77-56.76-123.75-106.92-205.17-111.58-85.12-4.87-161.08,39.82-240.62,61.15-223.55,60-350.44-140-556.17-167.89-92.77-12.58-206.8-6.61-291,36.58-78.33,40.17-116.34,129.38-204.21,155.58-93,27.72-178.09-27.69-266.46-45.4C396.53,354.16,310,386.69,252.78,458c-55.5,69.15-115.56,160.24-108.67,251.54C146.21,737.27,155.2,761.72,168,784.36Z" style="opacity:0.30000000000000004;fill:url(#linear-gradient)"/><path d="M2307.94,742.13c-24.39,46.7-63.15,86-93,129.64-86.31,126.17,3.49,273.82-35.9,409.84-34.32,118.51-177.06,150.28-281.4,155.09-175.82,8.1-351.44-4-520.95-55.64-117.63-35.8-235.41-82.67-359.39-85.51-126.74-2.9-246,52.15-368.41,78.19-134.45,28.59-295.26-2.46-327.67-164.91-20.09-100.64,34-193.32,39-292.41,6.69-131.18-114.17-203.17-129.81-325.81-9.86-77.32,27-146.4,75.05-202.35,50.72-59,118.93-111.17,197.18-116,81.8-5.07,154.8,41.4,231.24,63.58,214.84,62.34,336.78-145.57,534.49-174.57,89.16-13.09,198.74-6.87,279.7,38,75.28,41.76,111.81,134.52,196.25,161.76,89.38,28.83,171.16-28.79,256.09-47.2,87.89-19.05,171,14.77,226,88.93,53.33,71.9,111.05,166.61,104.43,261.55C2328.89,693.16,2320.24,718.59,2307.94,742.13Z" style="opacity:0.5;fill:url(#linear-gradient-2)"/><path d="M727.7,1425c-54.54,10.91-124.18-48.55-146.62-113.51C558,1244.6,600.33,1216.6,600,1123.84c-.37-105.37-55.18-121.25-91.44-263.28-8.18-32-55.51-217.48,3.16-252.24C566,576.18,718.33,668.42,745,786.47c19,84.17-39.82,119.51-17.34,217.55,19.73,86,71.57,87.27,91.44,170.27C843.32,1275.33,799.3,1410.64,727.7,1425Z" style="fill:url(#linear-gradient-3)"/><path d="M723.74,1450.48c14.7-113.53-14-288.67-40.63-415.61-28.85-137.43-61.59-249.53-61.92-250.65l-4.54,1.34c.33,1.11,33,113.06,61.84,250.32,26.57,126.57,55.17,301.13,40.56,414Z" style="fill:#fff"/><path d="M664.89,1412.28c71.54-37.28,96-165.27,55.36-206.87-27.48-28.11-66.88,1.46-104.89-27.68-48.53-37.2-12.83-107.26-51-198.12C531.9,902.28,454,829.11,408.49,844.12c-47.64,15.72-72.74,132.32-32.05,202.5,26.46,45.63,67,47.88,75.76,90.32,10.19,49.25-39.07,71.71-39.34,119.46C412.38,1342.17,570.25,1461.59,664.89,1412.28Z" style="fill:url(#linear-gradient-4)"/><path d="M626.29,1445.06a2.93,2.93,0,0,0,2.62-4.19c-94.84-195.42-122.65-422.13-122.92-424.4a2.92,2.92,0,0,0-5.79.69c.27,2.27,28.2,230,123.47,426.25A2.91,2.91,0,0,0,626.29,1445.06Z" style="fill:#fff"/><path d="M431.71,1075.18a1.44,1.44,0,0,0,.86-.29,1.4,1.4,0,0,0,.24-2c-29.93-38.42-63.11-96.15-51.17-153,7.11-33.83,27.14-51.48,27.34-51.65a1.4,1.4,0,0,0-1.83-2.11c-.85.74-20.93,18.44-28.23,53.19-6.72,31.93-3.2,84.79,51.69,155.24A1.39,1.39,0,0,0,431.71,1075.18Z" style="fill:#f0f0f0"/><path d="M671.34,1395.21a1.39,1.39,0,0,0,1.15-.6c46-67.14,61.69-119,46.63-154.2-13.4-31.27-47.21-37.09-47.55-37.15a1.41,1.41,0,0,0-1.6,1.16,1.39,1.39,0,0,0,1.15,1.59c.32.06,32.68,5.67,45.45,35.53,14.64,34.24-1,85.21-46.38,151.49a1.39,1.39,0,0,0,1.15,2.18Z" style="fill:#f0f0f0"/><path d="M1759,1425c54.53,10.91,124.18-48.55,146.61-113.51,23.09-66.84-19.24-94.84-18.92-187.6.37-105.37,55.19-121.25,91.44-263.28,8.18-32,55.52-217.48-3.15-252.24-54.25-32.14-206.62,60.1-233.33,178.15-19,84.17,39.83,119.51,17.35,217.55-19.73,86-71.58,87.27-91.44,170.27C1643.41,1275.33,1687.43,1410.64,1759,1425Z" style="fill:url(#linear-gradient-5)"/><path d="M1763,1450.48c-14.71-113.53,14-288.67,40.62-415.61,28.85-137.43,61.6-249.53,61.93-250.65l4.53,1.34c-.32,1.11-33,113.06-61.84,250.32-26.57,126.57-55.17,301.13-40.55,414Z" style="fill:#fff"/><path d="M1821.84,1412.28c-71.53-37.28-96-165.27-55.36-206.87,27.48-28.11,66.88,1.46,104.89-27.68,48.54-37.2,12.83-107.26,51-198.12,32.47-77.33,110.36-150.5,155.88-135.49,47.65,15.72,72.74,132.32,32.05,202.5-26.46,45.63-67,47.88-75.75,90.32-10.2,49.25,39.06,71.71,39.33,119.46C2074.35,1342.17,1916.48,1461.59,1821.84,1412.28Z" style="fill:url(#linear-gradient-6)"/><path d="M1860.45,1445.06a2.93,2.93,0,0,1-2.62-4.19c94.83-195.42,122.64-422.13,122.91-424.4a2.92,2.92,0,0,1,5.79.69c-.27,2.27-28.2,230-123.46,426.25A2.91,2.91,0,0,1,1860.45,1445.06Z" style="fill:#fff"/><path d="M2055,1075.18a1.46,1.46,0,0,1-.86-.29,1.41,1.41,0,0,1-.24-2c29.94-38.42,63.11-96.15,51.17-153-7.11-33.83-27.13-51.48-27.33-51.65a1.39,1.39,0,1,1,1.82-2.11c.85.74,20.93,18.44,28.24,53.19,6.71,31.93,3.19,84.79-51.7,155.24A1.39,1.39,0,0,1,2055,1075.18Z" style="fill:#f0f0f0"/><path d="M1815.39,1395.21a1.4,1.4,0,0,1-1.15-.6c-46-67.14-61.69-119-46.63-154.2,13.4-31.27,47.22-37.09,47.56-37.15a1.4,1.4,0,0,1,1.59,1.16,1.38,1.38,0,0,1-1.15,1.59c-.32.06-32.68,5.67-45.45,35.53-14.64,34.24,1,85.21,46.38,151.49a1.41,1.41,0,0,1-.36,1.94A1.43,1.43,0,0,1,1815.39,1395.21Z" style="fill:#f0f0f0"/><path d="M648.76,759.54v598.34c0,44,38.68,79.72,86.38,79.72H1739.86c47.7,0,86.38-35.69,86.38-79.72V759.54Z" style="fill:url(#linear-gradient-7)"/><path d="M1532.48,581.39,1277.1,426.86c-24.85-15-54.36-15-79.2,0L942.52,581.34l-295,178.43,295,178,295,178,295-178.19,295-177.8Z" style="fill:url(#linear-gradient-8)"/><g style="mix-blend-mode:soft-light"><path d="M671.83,1411.74a2,2,0,0,1-1.37-.52,2.07,2.07,0,0,1-.17-2.92L1038.2,994.38a2.06,2.06,0,1,1,3.08,2.74l-367.9,413.93A2.07,2.07,0,0,1,671.83,1411.74Z" style="fill:#fff"/><path d="M1803.17,1411.74a2.07,2.07,0,0,1-1.55-.69l-367.9-413.93a2.06,2.06,0,1,1,3.08-2.74l367.91,413.92a2.07,2.07,0,0,1-.17,2.92A2,2,0,0,1,1803.17,1411.74Z" style="fill:#fff"/></g><path d="M1625.6,1128.88s-12.13-14.54,4.36-23.5,42.41.87,45.68,19.93,19.66,7.75,26.81,3.57,27.11-9.83,32.17,11.92c2,8.61-.53,19.62,3.21,27.63,5.15,11,21.9,8.19,31.05,12.41,11.89,5.48,18.11,16.09,11.92,28.47-9.54,19.07-28.3,31.18-18.17,47.76s-30.69,53.82-44.69,19.27-35.74-28.71-53.32-30.89-26.51-17.38-21.74-32.86-1.49-24.72-8.05-31.28S1606.24,1146.46,1625.6,1128.88Z" style="fill:url(#linear-gradient-9)"/><path d="M1600.08,1314.28s-13.23,2-28.11,12a7.41,7.41,0,0,0-3.27,7.08c1.78,14.11,9.1,59.78,33.25,104.39a11.19,11.19,0,0,1,1.08,7.7l-4.19,19.53-7.79,7.29h20l13.34-36.11-5.7-1.8a10.79,10.79,0,0,1-7.54-10.11l-.67-38.74c.57-17.26-10.59-29.17-10.59-29.17l32-1.56Z" style="fill:url(#linear-gradient-10)"/><path d="M1583.23,1475.8c-1.83,2.38,19.64,5.54,30.49.31,0,0,15-26.16,15-39.63,0,0-1.2-2.75-10-2.12,0,0-5,31-10.38,34.44s-14.92.35-14.92.35S1585.92,1472.27,1583.23,1475.8Z" style="fill:url(#linear-gradient-11)"/><path d="M1627.9,1356.91c-.17-.3-34.46-4.12-34.46-4.12s1.12,10.42-2.39,24.78-53.85,76.53-53.85,76.53l5.28,16.74c-16.32,5.68-32.38,6.59-48.18,2.9L1527,1454.1s30.62-104.34,49.37-122.95l34.38-11.9Z" style="fill:url(#linear-gradient-12)"/><path d="M1704.8,1296.2s19.76,29.38,21.38,42.79-5.41,18.85-26.14,19.75-76.07.88-76.07.88l-47.23-40.37s34.42-12.28,43.37-15.75S1704.8,1296.2,1704.8,1296.2Z" style="fill:url(#linear-gradient-13)"/><path d="M1540.48,1465.2s5.69,5.51,1.85,11.63c0,0-45,8-57.25,4.36,0,0,2.54-5.79,16.3-12.39l-1,.78a1.64,1.64,0,0,0,1.09,3C1510.53,1472,1529.3,1470.35,1540.48,1465.2Z" style="fill:url(#linear-gradient-14)"/><path d="M1651.37,1292.31s-23-21.91-34.33-36.42a30.8,30.8,0,0,1-5.21-27.71c5.17-17.42,14.36-35.46,15.2-38.27,1.28-4.3,27.08-4.12,27.08-4.12s50.76,32.94,70.71,88.75l-22.4,7s-13.26-22.23-26.35-36.37c0,0,22.66,29.94,23.45,42.19Z" style="fill:url(#linear-gradient-15)"/><path d="M1623.91,1165.86c.27.89,7,23.21,7.53,23.68s14.76,1.23,21.46-3.35l-11.37-23.81Z" style="fill:url(#linear-gradient-16)"/><path d="M1635,1119s-12.16,5.13-20.42,22.69-2.1,25.68,5.66,26.79,19.34.94,31.61-10.4S1650.77,1112.89,1635,1119Z" style="fill:url(#linear-gradient-17)"/><path d="M1643.57,1148.68s9.17-25.7-13.61-26l-5.36,3.75s-8.36-14.25,5.36-21,34.19-.75,40,17.74,2.42,30.42-7.29,39.26-13.72-1.18-13.72-1.18,5.29-8.27,3.14-12.7-7.12.92-7.12.92Z" style="fill:url(#linear-gradient-18)"/><path d="M1646.13,1151.54s4.63-13.23,10.82-8-5,12.22-9.42,14.48Z" style="fill:url(#linear-gradient-19)"/><path d="M1604.5,1293.93l16.91-16.29,23.38,9.88s23.28,3.61,36.6,0l13.32-3.61,30.11-9.37,4.72,13.36a8,8,0,0,1-2.94,9.25,52.5,52.5,0,0,1-7.6,4.73c-4,1.74-97.73-1.2-97.73-1.2Z" style="fill:url(#linear-gradient-20)"/><g style="mix-blend-mode:soft-light"><path d="M1727.3,1150.24l-.8-.09c.69-6.39-.37-10.65-3.25-13-5.71-4.7-17.55-1-28,2.22-5.29,1.65-10.29,3.2-13.79,3.39a8,8,0,0,1-6.38-2.12c-2.84-2.83-2.64-7.42-2.63-7.61l.81,0s-.2,4.43,2.39,7a7.32,7.32,0,0,0,5.77,1.88c3.4-.19,8.35-1.72,13.6-3.35,10.64-3.31,22.7-7,28.74-2.08C1726.87,1139.07,1728,1143.56,1727.3,1150.24Z" style="fill:#fff"/></g><g style="mix-blend-mode:soft-light"><path d="M1752.18,1246.51c-1.88-7.74,3.2-14.28,9.09-21.85,4.23-5.44,9-11.62,11.6-19a10.89,10.89,0,0,0-.79-9.65c-5.48-8.94-23.66-11.54-23.84-11.57l.11-.79c.76.1,18.74,2.68,24.41,11.94a11.65,11.65,0,0,1,.87,10.34c-2.61,7.53-7.46,13.76-11.73,19.26-5.76,7.4-10.73,13.8-8.94,21.16Z" style="fill:#fff"/></g><rect x="1661.36" y="1378.49" width="8.9" height="96.29" style="fill:url(#linear-gradient-21)"/><path d="M1704.8,1476.63h-78a5.79,5.79,0,0,1,5.79-5.79H1699a5.79,5.79,0,0,1,5.79,5.79Z" style="fill:url(#linear-gradient-22)"/><rect x="1618.33" y="1356.91" width="98.05" height="27.81" rx="9.58" style="fill:url(#linear-gradient-23)"/><path d="M1668.47,1301.61h-.22l-98.06-.11a4.39,4.39,0,0,1,0-8.78l98.06.11a4.39,4.39,0,0,1,.21,8.77Z" style="fill:url(#linear-gradient-24)"/><path d="M1482.05,1212.59h81.66a15.55,15.55,0,0,1,14.07,8.92l37.75,80H1514.05a9.44,9.44,0,0,1-8.79-6L1476,1221.5A6.52,6.52,0,0,1,1482.05,1212.59Z" style="fill:url(#linear-gradient-25)"/><path d="M1805.52,1305.2a3.62,3.62,0,0,0-.85-3.14,4.17,4.17,0,0,0-3.12-1.38H1392.37a4.72,4.72,0,0,0-3.92,2,4.13,4.13,0,0,0-.31,4.18l4.44,9a6.23,6.23,0,0,0,5.63,3.38h400.53a4.63,4.63,0,0,0,4.62-3.57Z" style="fill:url(#linear-gradient-26)"/><path d="M1415.3,1494.8a3.54,3.54,0,0,1-1.41-.3,3.71,3.71,0,0,1-1.88-4.83l75.31-179.12a3.55,3.55,0,0,1,4.71-1.92,3.69,3.69,0,0,1,1.88,4.82l-75.31,179.12A3.58,3.58,0,0,1,1415.3,1494.8Z" style="fill:url(#linear-gradient-27)"/><path d="M1500.14,1494.8a3.6,3.6,0,0,1-3.3-2.23l-75.31-179.12a3.7,3.7,0,0,1,1.88-4.82,3.55,3.55,0,0,1,4.72,1.92l75.31,179.12a3.72,3.72,0,0,1-1.88,4.83A3.55,3.55,0,0,1,1500.14,1494.8Z" style="fill:url(#linear-gradient-28)"/><path d="M1711.86,1494.8a3.62,3.62,0,0,1-1.42-.3,3.71,3.71,0,0,1-1.87-4.83l75.3-179.12a3.56,3.56,0,0,1,4.72-1.92,3.7,3.7,0,0,1,1.88,4.82l-75.31,179.12A3.59,3.59,0,0,1,1711.86,1494.8Z" style="fill:url(#linear-gradient-29)"/><path d="M1796.7,1494.8a3.59,3.59,0,0,1-3.3-2.23l-75.31-179.12a3.7,3.7,0,0,1,1.88-4.82,3.55,3.55,0,0,1,4.72,1.92L1800,1489.67a3.72,3.72,0,0,1-1.88,4.83A3.59,3.59,0,0,1,1796.7,1494.8Z" style="fill:url(#linear-gradient-30)"/><g style="clip-path:url(#clip-path)"><path d="M1603.77,470H779.57C765,470,753,482.61,753,497.14V1166h969V590.11Z" style="fill:#fff"/><path d="M1721.54,590.11l-108.15.93a9.58,9.58,0,0,1-7.15-3.11c-2-2-2.24-4.78-2.24-7.64V470.83Z" style="fill:url(#linear-gradient-31)"/><path d="M1451.27,824.29q0,37.71-12,69t-34,49.11q-22,17.8-51.08,17.81-19.38,0-34.31-9.3a53.38,53.38,0,0,1-21.48-24.49h-4.19q-28.29,33.79-72,33.79-46.36,0-73.08-27.9T1122.29,856q0-55.26,35.1-89.05t91.67-33.79a317.54,317.54,0,0,1,49.64,4.32q27.1,4.32,44.65,10.35l-6,128.08q0,36.4,19.91,36.41,16.76,0,26.71-24.49t10-64q0-42.18-17.55-74.52A119.13,119.13,0,0,0,1327,699.87q-31.82-17-72.68-17-52.9,0-91.94,21.74t-59.85,62.73q-20.82,41-20.82,94.69,0,72.29,38.63,110.92t112,38.64q27.77,0,61-6.16a404.13,404.13,0,0,0,65.48-17.94v50.29q-56.05,23.84-124.42,23.84-99.53,0-155.19-52.39t-55.66-145.63q0-64.7,28.42-117.48t80.94-82.76q52.51-30,120.88-30,57.62,0,102.93,23.57T1426.65,724Q1451.27,767.46,1451.27,824.29ZM1183.06,857q0,55.28,45,55.27,23.57,0,35.88-16.64t14.93-54.08l3.41-57.89a143.57,143.57,0,0,0-30.13-2.88q-32.73,0-50.94,20.43T1183.06,857Z" style="fill:url(#linear-gradient-32)"/></g><path d="M1849.66,589.52c-1.18-101.6,80.53-185.22,182.13-186.39a183.07,183.07,0,0,1,104.62,31.12l10.48-10.63a5.39,5.39,0,0,1,9,2.36l18.33,66.6a5.39,5.39,0,0,1-6.56,6.64l-66.84-17.43a5.4,5.4,0,0,1-2.48-9l11.81-12a147.13,147.13,0,0,0-78-21.22c-81.46.94-147,67.95-146,149.36s68,146.8,149.44,145.85a148.18,148.18,0,0,0,146-146.49c0-2.81,2.22-6,5.32-6l25.75-.3c1.66,0,2.87,1.21,3.67,2l.21.22a7,7,0,0,1,1.59,4.52,184.47,184.47,0,0,1-182.13,182.89C1934.45,772.82,1850.83,691.12,1849.66,589.52ZM2170.45,494a1.34,1.34,0,0,0,0-.35L2152.08,427a1.44,1.44,0,0,0-1-1,1.41,1.41,0,0,0-1.35.38l-12.82,13-1.37-.94a179.15,179.15,0,0,0-103.71-31.36c-99.4,1.15-179.33,82.95-178.18,182.35S1936.6,768.8,2036,767.65a180.48,180.48,0,0,0,178.19-178.93h0a3.28,3.28,0,0,0-.44-1.69l-.22-.22a6.22,6.22,0,0,0-.91-.83l-25.61.3c-.55,0-1.37,1.09-1.38,2.05a152.18,152.18,0,0,1-150,150.44c-83.66,1-152.51-66.23-153.48-149.79s66.31-152.43,150-153.4a151,151,0,0,1,82.26,23.14l2.1,1.32-15.31,15.53a1.42,1.42,0,0,0-.35,1.37,1.38,1.38,0,0,0,1,1l66.84,17.43a1.38,1.38,0,0,0,1.35-.37A1.44,1.44,0,0,0,2170.45,494Z" style="fill:#fff"/><path d="M1977.62,623.64h-53.09V612.47l19.06-19.27q8.48-8.69,11.07-12a26.47,26.47,0,0,0,3.74-6.21,15.82,15.82,0,0,0,1.14-5.92q0-4.57-2.52-6.81a9.75,9.75,0,0,0-6.72-2.23,19.39,19.39,0,0,0-8.58,2,44.3,44.3,0,0,0-8.67,5.77l-8.73-10.34a56.83,56.83,0,0,1,9.3-6.75,34,34,0,0,1,8.05-3,41.29,41.29,0,0,1,9.77-1.07,28.93,28.93,0,0,1,12.57,2.6,20.08,20.08,0,0,1,8.47,7.27,19.34,19.34,0,0,1,3,10.71,26.13,26.13,0,0,1-1.84,9.84,37.75,37.75,0,0,1-5.72,9.43,139.93,139.93,0,0,1-13.63,13.77l-9.77,9.19v.73h33.09Z" style="fill:#fff"/><path d="M2040.07,607.9h-9.14v15.74h-15.69V607.9h-32.42V596.73l33.3-49.05h14.81v47.75h9.14Zm-24.83-12.47V582.55c0-2.15.08-5.27.26-9.36s.31-6.46.41-7.11h-.41a57.83,57.83,0,0,1-4.63,8.31l-13.92,21Z" style="fill:#fff"/><path d="M2085.17,547.68l-28.32,76h-14.39l28.31-76Z" style="fill:#fff"/><path d="M2097.48,623.64,2126,561.3h-37.46V547.79H2143v10.08l-28.73,65.77Z" style="fill:#fff"/><path d="M2063,803.73l.5,6.17v0a1.07,1.07,0,0,0,1.15,1,1.08,1.08,0,0,0,1-1.16h0l-.57-6.22a1,1,0,0,0-2.07.18Z" style="fill:url(#linear-gradient-33)"/><path d="M2064.07,824.33l0,6.19v0a1.18,1.18,0,0,0,2.35,0h0l0-6.25a1.15,1.15,0,0,0-2.29,0Z" style="fill:url(#linear-gradient-34)"/><path d="M2063.35,844.94l-.56,6.16v0a1.28,1.28,0,1,0,2.55.23v0l.5-6.23a1.25,1.25,0,0,0-2.49-.21Z" style="fill:url(#linear-gradient-35)"/><path d="M2060.9,865.42l-1.06,6.09v0a1.39,1.39,0,0,0,2.74.48v0l1-6.17a1.35,1.35,0,0,0-2.67-.45Z" style="fill:url(#linear-gradient-36)"/><path d="M2056.8,885.62l-1.54,6v0a1.5,1.5,0,0,0,2.9.75v0l1.49-6.06a1.46,1.46,0,0,0-2.83-.72Z" style="fill:url(#linear-gradient-37)"/><path d="M2051.12,905.42l-2,5.85v0a1.6,1.6,0,0,0,3,1v0l2-5.94a1.57,1.57,0,0,0-3-1Z" style="fill:url(#linear-gradient-38)"/><path d="M2043.93,924.73l-2.44,5.68v0a1.7,1.7,0,1,0,3.13,1.35v0L2047,926a1.67,1.67,0,0,0-3.08-1.31Z" style="fill:url(#linear-gradient-39)"/><path d="M2035.31,943.44l-2.86,5.48,0,0a1.82,1.82,0,0,0,3.22,1.68h0l2.83-5.58a1.78,1.78,0,0,0-3.16-1.64Z" style="fill:url(#linear-gradient-40)"/><path d="M2025.32,961.44l-3.26,5.25,0,0a1.92,1.92,0,1,0,3.26,2h0l3.25-5.36a1.89,1.89,0,0,0-3.22-2Z" style="fill:url(#linear-gradient-41)"/><path d="M2014,978.65l-3.64,5,0,0a2,2,0,1,0,3.27,2.38h0l3.63-5.11a2,2,0,0,0-3.24-2.33Z" style="fill:url(#linear-gradient-42)"/><path d="M2001.48,995l-4,4.7,0,0a2.13,2.13,0,0,0,3.25,2.76v0l4-4.81a2.1,2.1,0,0,0-3.21-2.71Z" style="fill:url(#linear-gradient-43)"/><path d="M1987.75,1010.27l-4.34,4.38,0,0a2.24,2.24,0,1,0,3.18,3.15h0l4.37-4.51a2.21,2.21,0,0,0-3.15-3.09Z" style="fill:url(#linear-gradient-44)"/><path d="M1972.89,1024.48l-4.66,4,0,0a2.34,2.34,0,1,0,3.06,3.55l0,0,4.71-4.15a2.32,2.32,0,0,0-3-3.49Z" style="fill:url(#linear-gradient-45)"/><path d="M1957,1037.47l-5,3.64,0,0a2.45,2.45,0,1,0,2.9,4l0,0,5-3.76a2.42,2.42,0,0,0-2.88-3.89Z" style="fill:url(#linear-gradient-46)"/><path d="M1940.1,1049.13l-5.24,3.23,0,0a2.53,2.53,0,1,0,2.66,4.3h0l5.33-3.33a2.51,2.51,0,0,0-2.65-4.27Z" style="fill:url(#linear-gradient-47)"/><path d="M1922.33,1059.38l-5.48,2.77-.06,0a2.59,2.59,0,0,0,2.34,4.62h0l5.59-2.86a2.57,2.57,0,0,0-2.33-4.58Z" style="fill:url(#linear-gradient-48)"/><path d="M1903.78,1068.05l-5.71,2.29-.06,0a2.65,2.65,0,0,0,2,4.92h0l5.82-2.37a2.63,2.63,0,0,0-2-4.88Z" style="fill:url(#linear-gradient-49)"/><path d="M1884.53,1075.12l-5.88,1.81-.06,0a2.71,2.71,0,0,0,1.59,5.18h0l6-1.89a2.69,2.69,0,0,0-1.6-5.13Z" style="fill:url(#linear-gradient-50)"/><path d="M1864.77,1080.63l-6,1.35-.07,0a2.77,2.77,0,1,0,1.22,5.4h0l6.12-1.42a2.75,2.75,0,0,0-1.23-5.37Z" style="fill:url(#linear-gradient-51)"/><path d="M1844.65,1084.61l-6.09.9h-.06a2.83,2.83,0,1,0,.82,5.6h0l6.21-1a2.81,2.81,0,0,0-.84-5.56Z" style="fill:url(#linear-gradient-52)"/><path d="M1824.28,1087.1l-6.14.47h-.06a2.89,2.89,0,0,0,.44,5.77h0l6.26-.51a2.87,2.87,0,0,0-.45-5.72Z" style="fill:url(#linear-gradient-53)"/><path d="M1803.78,1088.16l-6.16,0h-.06a3,3,0,0,0,0,5.9h0l6.27-.09a2.93,2.93,0,0,0-.06-5.86Z" style="fill:url(#linear-gradient-54)"/><path d="M1783.25,1087.86l-6.15-.35H1777a3,3,0,0,0-.34,6h0l6.27.31a3,3,0,0,0,.32-6Z" style="fill:url(#linear-gradient-55)"/><path d="M1762.77,1086.26l-6.12-.72h-.05a3.07,3.07,0,1,0-.72,6.1h0l6.23.7a3.05,3.05,0,0,0,.7-6.06Z" style="fill:url(#linear-gradient-56)"/><path d="M1742.42,1083.44l-6.07-1.07h-.06a3.13,3.13,0,1,0-1.08,6.16h0l6.19,1.06a3.11,3.11,0,0,0,1.06-6.13Z" style="fill:url(#linear-gradient-57)"/><path d="M1722.25,1079.47l-6-1.4h0a3.19,3.19,0,0,0-1.45,6.21h0l6.1,1.39a3.17,3.17,0,0,0,1.43-6.17Z" style="fill:url(#linear-gradient-58)"/><path d="M1702.33,1074.42l-5.93-1.72h-.05a3.25,3.25,0,1,0-1.81,6.24h0l6,1.72a3.23,3.23,0,0,0,1.78-6.21Z" style="fill:url(#linear-gradient-59)"/><path d="M1682.68,1068.34l-5.84-2,0,0a3.31,3.31,0,0,0-2.16,6.26h0l5.93,2a3.29,3.29,0,0,0,2.13-6.23Z" style="fill:url(#linear-gradient-60)"/><path d="M1663.36,1061.29l-5.73-2.29,0,0a3.37,3.37,0,0,0-2.51,6.25h0l5.83,2.3a3.35,3.35,0,0,0,2.47-6.23Z" style="fill:url(#linear-gradient-61)"/><path d="M1644.4,1053.32l-5.61-2.57,0,0a3.43,3.43,0,1,0-2.85,6.23h0l5.71,2.58a3.41,3.41,0,0,0,2.82-6.21Z" style="fill:url(#linear-gradient-62)"/><path d="M1625.84,1044.45l-5.49-2.83,0,0a3.49,3.49,0,0,0-3.2,6.2h0l5.59,2.84a3.47,3.47,0,0,0,3.17-6.17Z" style="fill:url(#linear-gradient-63)"/><path d="M1607.7,1034.75l-5.36-3.06,0,0a3.51,3.51,0,0,0-3.48,6.1h0l5.43,3.09a3.5,3.5,0,0,0,3.47-6.09Z" style="fill:url(#linear-gradient-64)"/><path d="M1590,1024.3l-5.24-3.27,0,0a3.53,3.53,0,1,0-3.73,6h0l5.32,3.3a3.53,3.53,0,1,0,3.72-6Z" style="fill:url(#linear-gradient-65)"/><path d="M1572.62,1013.18l-5.12-3.46,0,0a3.55,3.55,0,1,0-4,5.88h0l5.19,3.49a3.55,3.55,0,0,0,4-5.89Z" style="fill:url(#linear-gradient-66)"/><path d="M1555.69,1001.44l-5-3.63,0,0a3.57,3.57,0,0,0-4.19,5.78h0l5.07,3.67a3.57,3.57,0,0,0,4.18-5.78Z" style="fill:url(#linear-gradient-67)"/><path d="M1539.13,989.15l-4.89-3.79,0,0a3.59,3.59,0,0,0-4.4,5.68h0l5,3.81a3.58,3.58,0,0,0,4.37-5.68Z" style="fill:url(#linear-gradient-68)"/><path d="M1523,976.36l-4.78-3.93h0a3.61,3.61,0,1,0-4.58,5.58h0l4.84,4a3.61,3.61,0,0,0,4.56-5.59Z" style="fill:url(#linear-gradient-69)"/><path d="M1507.12,963.13l-4.69-4,0,0a3.63,3.63,0,0,0-4.74,5.5h0l4.73,4.07a3.62,3.62,0,1,0,4.73-5.49Z" style="fill:url(#linear-gradient-70)"/><path d="M1491.61,949.5l-4.6-4.15v0a3.65,3.65,0,1,0-4.9,5.42h0l4.64,4.18a3.65,3.65,0,0,0,4.88-5.42Z" style="fill:url(#linear-gradient-71)"/><path d="M1476.39,935.54l-4.51-4.25h0a3.67,3.67,0,1,0-5,5.34h0l4.55,4.26a3.66,3.66,0,1,0,5-5.34Z" style="fill:url(#linear-gradient-72)"/><path d="M1461.45,921.28,1457,917h0a3.69,3.69,0,0,0-5.15,5.28h0l4.47,4.35a3.68,3.68,0,0,0,5.13-5.29Z" style="fill:url(#linear-gradient-73)"/><path d="M1446.72,906.76l-4.38-4.4h0a3.71,3.71,0,0,0-5.26,5.23h0l4.41,4.41a3.7,3.7,0,1,0,5.24-5.23Z" style="fill:url(#linear-gradient-74)"/><path d="M1432.19,892l-4.33-4.46h0a3.73,3.73,0,0,0-5.36,5.19h0l4.35,4.46a3.72,3.72,0,0,0,5.34-5.19Z" style="fill:url(#linear-gradient-75)"/><path d="M1417.83,877.13l-4.29-4.5a3.75,3.75,0,1,0-5.44,5.15h0l4.31,4.51a3.74,3.74,0,1,0,5.41-5.17Z" style="fill:url(#linear-gradient-76)"/><path d="M1403.59,862.09l-4.25-4.53a3.77,3.77,0,0,0-5.51,5.14h0l4.27,4.54a3.76,3.76,0,1,0,5.48-5.16Z" style="fill:url(#linear-gradient-77)"/><path d="M1389.44,847l-4.23-4.55a3.79,3.79,0,1,0-5.56,5.15h0l4.25,4.55a3.78,3.78,0,1,0,5.53-5.16Z" style="fill:url(#linear-gradient-78)"/><path d="M1375.35,831.75l-4.23-4.57a3.81,3.81,0,1,0-5.59,5.18h0l4.24,4.56a3.8,3.8,0,0,0,5.58-5.17Z" style="fill:url(#linear-gradient-79)"/><path d="M1361.26,816.53,1357,812a3.83,3.83,0,0,0-5.62,5.21h0l4.23,4.55a3.83,3.83,0,0,0,5.61-5.21Z" style="fill:url(#linear-gradient-80)"/><path d="M1347.14,801.34l-4.25-4.55a3.85,3.85,0,1,0-5.63,5.25h0l4.25,4.53a3.84,3.84,0,1,0,5.62-5.24Z" style="fill:url(#linear-gradient-81)"/><path d="M1333,786.2l-4.28-4.53a3.87,3.87,0,1,0-5.62,5.32h0l4.27,4.5a3.86,3.86,0,1,0,5.62-5.3Z" style="fill:url(#linear-gradient-82)"/><path d="M1318.64,771.15l-4.31-4.49a3.89,3.89,0,1,0-5.61,5.39h0l4.32,4.47h0a3.88,3.88,0,0,0,5.59-5.38Z" style="fill:url(#linear-gradient-83)"/><path d="M1304.19,756.23l-4.37-4.45a3.91,3.91,0,0,0-5.57,5.48h0l4.35,4.41h0a3.9,3.9,0,0,0,5.56-5.47Z" style="fill:url(#linear-gradient-84)"/><path d="M1289.56,741.48l-4.44-4.39a3.92,3.92,0,1,0-5.52,5.58h0L1284,747v0a3.92,3.92,0,0,0,5.52-5.58Z" style="fill:url(#linear-gradient-85)"/><path d="M1274.69,726.93l-4.5-4.31a3.95,3.95,0,0,0-5.46,5.7h0l4.48,4.28h0a3.94,3.94,0,0,0,5.44-5.7Z" style="fill:url(#linear-gradient-86)"/><path d="M1259.56,712.66l-4.6-4.23a3.94,3.94,0,0,0-5.33,5.8h0l4.56,4.2,0,0a3.94,3.94,0,0,0,5.33-5.8Z" style="fill:url(#linear-gradient-87)"/><path d="M1244.12,698.69l-4.69-4.12a3.92,3.92,0,1,0-5.18,5.88l0,0,4.64,4.09,0,0a3.93,3.93,0,0,0,5.19-5.89Z" style="fill:url(#linear-gradient-88)"/><path d="M1228.36,685.07l-4.79-4a3.9,3.9,0,1,0-5,6h0l4.74,4,0,0a3.91,3.91,0,0,0,5-6Z" style="fill:url(#linear-gradient-89)"/><path d="M1212.27,671.86l-4.9-3.87a3.89,3.89,0,1,0-4.83,6.1l0,0,4.84,3.84,0,0a3.89,3.89,0,0,0,4.84-6.1Z" style="fill:url(#linear-gradient-90)"/><path d="M1195.79,659.11l-5-3.73a3.88,3.88,0,0,0-4.63,6.22h0l5,3.7,0,0a3.88,3.88,0,0,0,4.64-6.22Z" style="fill:url(#linear-gradient-91)"/><path d="M1178.93,646.85l-5.14-3.56a3.86,3.86,0,0,0-4.4,6.34l0,0,5.07,3.53,0,0a3.86,3.86,0,0,0,4.42-6.34Z" style="fill:url(#linear-gradient-92)"/><path d="M1161.65,635.17l-5.27-3.39a3.84,3.84,0,0,0-4.16,6.46l0,0,5.19,3.35,0,0a3.85,3.85,0,0,0,4.17-6.47Z" style="fill:url(#linear-gradient-93)"/><path d="M1144,624.1l-5.39-3.19a3.83,3.83,0,1,0-3.9,6.59l0,0,5.31,3.15,0,0a3.84,3.84,0,0,0,3.91-6.6Z" style="fill:url(#linear-gradient-94)"/><path d="M1125.85,613.7l-5.5-3a3.81,3.81,0,0,0-3.64,6.7l0,0,5.42,3,0,0a3.82,3.82,0,0,0,3.66-6.71Z" style="fill:url(#linear-gradient-95)"/><path d="M1107.39,604l-5.6-2.78a3.8,3.8,0,0,0-3.38,6.8l0,0,5.53,2.75,0,0a3.8,3.8,0,1,0,3.4-6.8Z" style="fill:url(#linear-gradient-96)"/><path d="M1088.6,594.92l-5.7-2.58a3.78,3.78,0,0,0-3.13,6.89l0,0,5.62,2.56h0a3.78,3.78,0,0,0,3.13-6.89Z" style="fill:url(#linear-gradient-97)"/><path d="M1069.49,586.55l-5.79-2.37a3.77,3.77,0,1,0-2.86,7h0l5.71,2.36h0a3.77,3.77,0,0,0,2.87-7Z" style="fill:url(#linear-gradient-98)"/><path d="M1050.09,578.88l-5.87-2.17a3.75,3.75,0,0,0-2.6,7h0l5.79,2.15h0a3.76,3.76,0,1,0,2.62-7Z" style="fill:url(#linear-gradient-99)"/><path d="M1030.43,571.89l-5.94-2a3.74,3.74,0,0,0-2.34,7.1h0l5.87,1.94,0,0a3.74,3.74,0,1,0,2.35-7.11Z" style="fill:url(#linear-gradient-100)"/><path d="M1010.54,565.6l-6-1.75a3.72,3.72,0,1,0-2.08,7.15h0l5.93,1.74h0a3.73,3.73,0,1,0,2.1-7.16Z" style="fill:url(#linear-gradient-101)"/><path d="M990.44,560l-6.07-1.54a3.71,3.71,0,1,0-1.82,7.19h0l6,1.53h0a3.71,3.71,0,0,0,1.83-7.2Z" style="fill:url(#linear-gradient-102)"/><path d="M970.15,555.15,964,553.82a3.69,3.69,0,1,0-1.56,7.22h0l6,1.31h0a3.69,3.69,0,1,0,1.57-7.22Z" style="fill:url(#linear-gradient-103)"/><path d="M949.7,551l-6.16-1.11a3.68,3.68,0,1,0-1.3,7.24h0l6.08,1.1h0a3.68,3.68,0,0,0,1.32-7.25Z" style="fill:url(#linear-gradient-104)"/><path d="M929.12,547.55l-6.19-.89a3.66,3.66,0,0,0-1,7.25h0l6.12.89h0a3.67,3.67,0,0,0,1.06-7.26Z" style="fill:url(#linear-gradient-105)"/><path d="M908.44,544.84l-6.23-.67a3.65,3.65,0,0,0-.78,7.25h0l6.15.67h0a3.65,3.65,0,0,0,.79-7.26Z" style="fill:url(#linear-gradient-106)"/><path d="M887.67,542.86l-6.24-.45a3.63,3.63,0,0,0-.53,7.25h0l6.16.46h0a3.64,3.64,0,0,0,.53-7.26Z" style="fill:url(#linear-gradient-107)"/><path d="M866.84,541.62l-6.25-.22a3.62,3.62,0,1,0-.26,7.23h0l6.18.23h0a3.62,3.62,0,0,0,.27-7.24Z" style="fill:url(#linear-gradient-108)"/><path d="M846,541.13h-6.26a3.6,3.6,0,0,0,0,7.2H846a3.61,3.61,0,1,0,0-7.21Z" style="fill:url(#linear-gradient-109)"/><path d="M825.14,541.38l-6.26.22a3.59,3.59,0,0,0,.26,7.17h0l6.18-.21h0a3.59,3.59,0,0,0-.25-7.18Z" style="fill:url(#linear-gradient-110)"/><path d="M804.3,542.39l-6.24.45a3.57,3.57,0,0,0,.52,7.13h0l6.16-.43h0a3.57,3.57,0,1,0-.5-7.13Z" style="fill:url(#linear-gradient-111)"/><path d="M783.52,544.16l-6.22.68a3.56,3.56,0,1,0,.77,7.07h0l6.14-.67h0a3.56,3.56,0,0,0-.76-7.08Z" style="fill:url(#linear-gradient-112)"/><path d="M762.82,546.69l-6.2.91a3.54,3.54,0,0,0,1,7h0l6.11-.89h0a3.55,3.55,0,1,0-1-7Z" style="fill:url(#linear-gradient-113)"/><path d="M742.21,550l-6.15,1.16a3.53,3.53,0,0,0,1.31,6.93h0l6.06-1.13h0a3.53,3.53,0,0,0-1.3-6.94Z" style="fill:url(#linear-gradient-114)"/><path d="M721.75,554.2l-6.1,1.44a3.51,3.51,0,0,0,1.61,6.83h0l6-1.4h.05a3.52,3.52,0,0,0-1.6-6.85Z" style="fill:url(#linear-gradient-115)"/><path d="M701.5,559.3l-6,1.72a3.49,3.49,0,1,0,1.91,6.72h0l5.94-1.68h0a3.5,3.5,0,0,0-1.91-6.74Z" style="fill:url(#linear-gradient-116)"/><path d="M681.5,565.39l-5.94,2A3.46,3.46,0,0,0,677.8,574h0l5.85-2h.05a3.47,3.47,0,1,0-2.22-6.58Z" style="fill:url(#linear-gradient-117)"/><path d="M661.84,572.52,656,574.87a3.41,3.41,0,1,0,2.55,6.32l0,0,5.72-2.28.06,0a3.42,3.42,0,1,0-2.54-6.36Z" style="fill:url(#linear-gradient-118)"/><path d="M642.6,580.75l-5.68,2.69a3.36,3.36,0,0,0,2.88,6.08l.05,0,5.57-2.61.06,0a3.38,3.38,0,1,0-2.87-6.11Z" style="fill:url(#linear-gradient-119)"/><path d="M623.88,590.14l-5.49,3.06a3.31,3.31,0,1,0,3.22,5.79l0,0,5.39-3,.06,0a3.33,3.33,0,0,0-3.22-5.84Z" style="fill:url(#linear-gradient-120)"/><path d="M605.82,600.77l-5.27,3.43a3.27,3.27,0,1,0,3.57,5.49l0,0,5.16-3.33.06,0a3.28,3.28,0,0,0-3.56-5.52Z" style="fill:url(#linear-gradient-121)"/><path d="M588.55,612.68l-5,3.83a3.22,3.22,0,1,0,3.92,5.12l0,0,4.89-3.71.07,0a3.24,3.24,0,1,0-3.92-5.16Z" style="fill:url(#linear-gradient-122)"/><path d="M572.27,625.91l-4.67,4.23a3.18,3.18,0,0,0,4.26,4.72l0-.05,4.57-4.1.06-.05a3.19,3.19,0,0,0-4.26-4.76Z" style="fill:url(#linear-gradient-123)"/><path d="M557.13,640.47l-4.29,4.61a3.13,3.13,0,1,0,4.59,4.27l.05-.05,4.2-4.48.05-.06a3.14,3.14,0,1,0-4.59-4.3Z" style="fill:url(#linear-gradient-124)"/><path d="M543.32,656.3l-3.84,5a3.09,3.09,0,0,0,4.9,3.77l0-.07,3.75-4.84.06-.08a3.1,3.1,0,0,0-4.91-3.8Z" style="fill:url(#linear-gradient-125)"/><path d="M531.11,673.45l-3.31,5.36A3,3,0,0,0,533,682l0-.07,3.24-5.19,0-.08a3.06,3.06,0,0,0-5.19-3.24Z" style="fill:url(#linear-gradient-126)"/><path d="M520.69,691.69l-2.77,5.66A3,3,0,1,0,523.3,700l0-.06,2.72-5.5,0-.08a3,3,0,1,0-5.39-2.67Z" style="fill:url(#linear-gradient-127)"/><path d="M512.08,710.85l-2.23,5.9a2.95,2.95,0,1,0,5.52,2.08l0-.06,2.2-5.73,0-.08a3,3,0,1,0-5.54-2.12Z" style="fill:url(#linear-gradient-128)"/><path d="M505.28,730.71l-1.68,6.06a2.91,2.91,0,1,0,5.6,1.56v-.06l1.67-5.9,0-.08a2.92,2.92,0,0,0-5.62-1.59Z" style="fill:url(#linear-gradient-129)"/><path d="M500.29,751.09l-1.14,6.18a2.86,2.86,0,1,0,5.62,1.05v-.06l1.15-6v-.08a2.87,2.87,0,1,0-5.64-1.07Z" style="fill:url(#linear-gradient-130)"/><path d="M497.1,771.81l-.62,6.26a2.82,2.82,0,0,0,5.61.55v-.06l.63-6.11v-.08a2.83,2.83,0,0,0-5.63-.57Z" style="fill:url(#linear-gradient-131)"/><path d="M495.67,792.73l-.08,6.28a2.77,2.77,0,0,0,5.54.08V799l.11-6.15v-.07a2.79,2.79,0,0,0-5.57-.1Z" style="fill:url(#linear-gradient-132)"/><path d="M496,813.68l.44,6.27a2.73,2.73,0,1,0,5.44-.38v-.06l-.4-6.13v-.07a2.74,2.74,0,1,0-5.46.36Z" style="fill:url(#linear-gradient-133)"/><path d="M498.1,834.53l1,6.21a2.68,2.68,0,0,0,5.29-.82v-.06l-.92-6.08v-.07a2.69,2.69,0,1,0-5.32.81Z" style="fill:url(#linear-gradient-134)"/><path d="M502,855.13l1.49,6.1a2.63,2.63,0,0,0,5.11-1.25v-.05l-1.44-6v-.07a2.65,2.65,0,0,0-5.15,1.24Z" style="fill:url(#linear-gradient-135)"/><path d="M507.55,875.32l2,6a2.59,2.59,0,0,0,4.9-1.67l0-.05-2-5.84,0-.06a2.6,2.6,0,0,0-4.93,1.65Z" style="fill:url(#linear-gradient-136)"/><path d="M514.91,894.93l2.55,5.75a2.54,2.54,0,1,0,4.64-2.07l0-.05-2.47-5.62,0-.07a2.55,2.55,0,0,0-4.68,2Z" style="fill:url(#linear-gradient-137)"/><path d="M524,913.8l3.08,5.48a2.49,2.49,0,1,0,4.35-2.44l0-.05-3-5.38,0-.06a2.51,2.51,0,0,0-4.39,2.44Z" style="fill:url(#linear-gradient-138)"/><path d="M534.92,931.71l3.61,5.15a2.41,2.41,0,0,0,4-2.75l0-.06L539,929l0-.06a2.44,2.44,0,0,0-4,2.76Z" style="fill:url(#linear-gradient-139)"/><path d="M547.54,948.45l4.1,4.77a2.33,2.33,0,0,0,3.55-3l-.05-.06-4-4.68,0-.06a2.36,2.36,0,0,0-3.6,3.05Z" style="fill:url(#linear-gradient-140)"/><path d="M561.78,963.82l4.58,4.33a2.25,2.25,0,0,0,3.1-3.26l-.05,0L565,960.58l-.05-.05a2.27,2.27,0,1,0-3.15,3.28Z" style="fill:url(#linear-gradient-141)"/><path d="M577.52,977.67l5,3.83a2.17,2.17,0,0,0,2.66-3.43l0,0-4.85-3.79,0,0a2.19,2.19,0,0,0-2.7,3.46Z" style="fill:url(#linear-gradient-142)"/><path d="M594.53,989.87l5.32,3.33a2.08,2.08,0,0,0,2.23-3.52l-.05,0-5.19-3.31-.05,0a2.11,2.11,0,1,0-2.28,3.56Z" style="fill:url(#linear-gradient-143)"/><path d="M612.61,1000.39l5.6,2.83a2,2,0,0,0,1.82-3.58l0,0-5.48-2.81,0,0a2,2,0,1,0-1.86,3.62Z" style="fill:url(#linear-gradient-144)"/><path d="M631.56,1009.21l5.83,2.31a1.93,1.93,0,0,0,1.43-3.58l-.05,0-5.71-2.31,0,0a1.95,1.95,0,1,0-1.46,3.61Z" style="fill:url(#linear-gradient-145)"/><path d="M651.2,1016.3l6,1.8a1.84,1.84,0,0,0,1.07-3.53l0,0-5.91-1.81,0,0a1.87,1.87,0,1,0-1.1,3.58Z" style="fill:url(#linear-gradient-146)"/><path d="M671.39,1021.68l6.13,1.27a1.76,1.76,0,0,0,.73-3.45h0l-6-1.3h0a1.79,1.79,0,1,0-.76,3.49Z" style="fill:url(#linear-gradient-147)"/><path d="M691.94,1025.32l6.21.76a1.68,1.68,0,0,0,.42-3.34h0l-6.12-.8h0a1.7,1.7,0,0,0-.44,3.38Z" style="fill:url(#linear-gradient-148)"/><path d="M712.72,1027.24l6.25.23a1.6,1.6,0,0,0,.13-3.2h0l-6.17-.28h0a1.62,1.62,0,0,0-1.7,1.55,1.64,1.64,0,0,0,1.55,1.7Z" style="fill:url(#linear-gradient-149)"/><path d="M733.57,1027.4l6.26-.3a1.52,1.52,0,0,0-.14-3h0l-6.17.24h0a1.55,1.55,0,0,0,.12,3.09Z" style="fill:url(#linear-gradient-150)"/><path d="M754.37,1025.79l6.21-.83a1.44,1.44,0,0,0-.37-2.86h0l-6.14.77h0a1.46,1.46,0,1,0,.37,2.9Z" style="fill:url(#linear-gradient-151)"/><path d="M775,1022.38l6.1-1.37a1.36,1.36,0,0,0-.59-2.65h0l-6,1.32h0a1.38,1.38,0,1,0,.59,2.7Z" style="fill:url(#linear-gradient-152)"/><path d="M795.14,1017.16l5.94-1.93a1.26,1.26,0,0,0,.82-1.6,1.28,1.28,0,0,0-1.6-.83h0l-5.89,1.86h0a1.29,1.29,0,0,0-.85,1.63,1.3,1.3,0,0,0,1.63.85Z" style="fill:url(#linear-gradient-153)"/><path d="M814.74,1010.09l5.74-2.48a1.19,1.19,0,0,0-.94-2.19h0l-5.7,2.41h0a1.22,1.22,0,1,0,1,2.25Z" style="fill:url(#linear-gradient-154)"/><path d="M833.58,1001.18l5.46-3A1.11,1.11,0,1,0,838,996.2h0l-5.43,3,0,0a1.13,1.13,0,0,0,1.09,2Z" style="fill:url(#linear-gradient-155)"/><path d="M851.43,990.44l4-2.78a1,1,0,0,0-1.17-1.71h0l-4,2.72,0,0a1.05,1.05,0,1,0,1.19,1.74Z" style="fill:url(#linear-gradient-156)"/><path d="M558.45,646.06a6.35,6.35,0,0,1-6-4.23l-8.88-25.08a129,129,0,0,1-34.81-14.1L484.94,614.5a6.37,6.37,0,0,1-7.3-1.16L453,589.12a6.38,6.38,0,0,1-1.28-7.27l11.46-24a129.19,129.19,0,0,1-14.67-34.57l-25.21-8.47a6.35,6.35,0,0,1-4.34-6l-.28-34.54a6.38,6.38,0,0,1,4.23-6L448,459.35a129.22,129.22,0,0,1,14.1-34.82L450.26,400.7a6.34,6.34,0,0,1,1.16-7.29l24.22-24.62a6.34,6.34,0,0,1,7.27-1.28l24,11.46a128.87,128.87,0,0,1,34.57-14.67L550,339.08a6.35,6.35,0,0,1,6-4.33l34.54-.29h0a6.36,6.36,0,0,1,6,4.24l8.88,25.08a129,129,0,0,1,34.81,14.1L664.06,366a6.38,6.38,0,0,1,7.29,1.16L696,391.41a6.34,6.34,0,0,1,1.27,7.26l-11.46,24a129.06,129.06,0,0,1,14.67,34.58l25.22,8.46a6.35,6.35,0,0,1,4.33,6l.29,34.55a6.35,6.35,0,0,1-4.24,6L701,521.18A129.35,129.35,0,0,1,686.89,556l11.85,23.84a6.34,6.34,0,0,1-1.16,7.28l-24.23,24.63a6.36,6.36,0,0,1-7.26,1.28l-24-11.46a129.32,129.32,0,0,1-34.57,14.67L599,641.45a6.37,6.37,0,0,1-6,4.33l-34.55.28Zm-49.31-52.51L511,594.7a121,121,0,0,0,36.47,14.77l2.15.49,10,28.11,32.23-.26,9.49-28.28,2.14-.52a121.11,121.11,0,0,0,36.23-15.37l1.86-1.17,26.94,12.85,22.6-23-13.29-26.72,1.14-1.88a121.3,121.3,0,0,0,14.78-36.47l.48-2.15,28.12-9.95L722,472.94l-28.27-9.49-.52-2.14a121.48,121.48,0,0,0-15.37-36.23l-1.18-1.86,12.85-26.94-23-22.6L639.86,387,638,385.83a121.46,121.46,0,0,0-36.48-14.78l-2.14-.48-10-28.12-32.23.27L547.68,371l-2.14.52a121.31,121.31,0,0,0-36.22,15.37l-1.87,1.18-26.93-12.85-22.6,23,13.29,26.72-1.15,1.88a121.59,121.59,0,0,0-14.77,36.48l-.49,2.15-28.11,9.95.26,32.23,28.28,9.49.52,2.14a121.06,121.06,0,0,0,15.37,36.22l1.17,1.87-12.85,26.93,23,22.6ZM544.6,367.64h0ZM574,578.17a87.34,87.34,0,0,1-.7-174.68,88.36,88.36,0,0,1,18.51,1.8,4,4,0,0,1-1.62,7.82,79.37,79.37,0,1,0,63.19,77.07,79.25,79.25,0,0,0-11.58-40.66,4,4,0,0,1,6.81-4.16,87.36,87.36,0,0,1-73.88,132.81Z" style="fill:#fff"/><path d="M574.44,524.94a34.67,34.67,0,0,1-8.7-68.22h0a34.67,34.67,0,1,1,8.7,68.22Zm-6.69-60.49a26.68,26.68,0,1,0,32.57,19.07,26.5,26.5,0,0,0-32.57-19.07Z" style="fill:#fff"/><path d="M423.74,775.79a4.14,4.14,0,0,1-3.32-1.68l-7.25-9.84A63,63,0,0,1,396,762.72l-8.9,8.39a4.12,4.12,0,0,1-4.75.65l-14.71-7.7a4.15,4.15,0,0,1-2.17-4.28l1.83-12.09a63,63,0,0,1-11-13.22l-12.21-.35a4.15,4.15,0,0,1-3.83-2.9l-4.95-15.86a4.13,4.13,0,0,1,1.49-4.56l9.84-7.24a63,63,0,0,1,1.55-17.15l-8.39-8.9a4.13,4.13,0,0,1-.66-4.75L346.83,658a4.14,4.14,0,0,1,4.29-2.16l12.08,1.83a62.63,62.63,0,0,1,13.21-11l.36-12.21a4.14,4.14,0,0,1,2.89-3.83l15.86-5a4.14,4.14,0,0,1,4.56,1.48l7.25,9.84a63.88,63.88,0,0,1,17.15,1.55l8.89-8.38a4.16,4.16,0,0,1,4.75-.67l14.72,7.72A4.12,4.12,0,0,1,455,641.5l-1.83,12.08a63.55,63.55,0,0,1,11,13.22l12.21.36a4.11,4.11,0,0,1,3.82,2.9l5,15.85a4.13,4.13,0,0,1-1.49,4.56l-9.84,7.25a63.07,63.07,0,0,1-1.55,17.15l8.39,8.89a4.14,4.14,0,0,1,.66,4.75l-7.71,14.72a4.12,4.12,0,0,1-4.28,2.17l-12.09-1.83a63.29,63.29,0,0,1-13.22,11l-.35,12.21a4.13,4.13,0,0,1-2.89,3.82l-15.87,5A4,4,0,0,1,423.74,775.79Zm-.55-5.9h0ZM416,758.08l8.41,11.41,13.33-4.17.42-14.16,1.42-.84a57.4,57.4,0,0,0,14.26-11.91l1.08-1.25,14,2.12,6.48-12.37-9.73-10.32.41-1.6a56.87,56.87,0,0,0,1.67-18.5l-.12-1.65,11.41-8.4-4.16-13.34-14.17-.41-.84-1.42A57.22,57.22,0,0,0,448,657l-1.25-1.08,2.12-14-12.37-6.48-10.32,9.73-1.6-.42a57.4,57.4,0,0,0-18.5-1.67l-1.65.12-8.4-11.41L382.71,636l-.41,14.17-1.42.84a57,57,0,0,0-14.26,11.91l-1.08,1.25-14-2.13L345,674.37l9.73,10.31-.41,1.6a57.21,57.21,0,0,0-1.68,18.51l.12,1.64-11.41,8.41,4.17,13.33,14.17.41.84,1.43a57.37,57.37,0,0,0,11.91,14.26l1.25,1.08-2.13,14L384,765.85l10.31-9.73,1.6.41a57.48,57.48,0,0,0,18.51,1.67Zm-30.89,8.38Zm-14.72-7.71Zm105.94-30.88Zm-1.83-56ZM350.21,661.79h0Zm99.85-19.27h0Zm-67.31-7.9h0Zm-3-.08h0Zm17.56-3.15h0Zm12.82,112.66a43.09,43.09,0,0,1-3.89-86,3,3,0,0,1,.54,6,37.07,37.07,0,1,0,28,9.27,3,3,0,0,1,4-4.47,43.1,43.1,0,0,1-28.66,75.24Z" style="fill:#fff"/><path d="M1990,1036.87s-23,21.82-30.61,60.61-25.67-54.83-25.67-54.83h-18.26s-6.88,96.47,44.65,104.14a27.69,27.69,0,0,0,25.83-10.23c9.41-12,24.09-33.21,27.64-53.47C2010.53,1051.14,1990,1036.87,1990,1036.87Z" style="fill:url(#linear-gradient-157)"/><path d="M2106.91,1483.57a3.73,3.73,0,0,0-.09-.87c-4.32-17.11-22-25.88-22-25.88l-8.49.66c-4.88,15.09-8,22.45-7.24,26.57a3.37,3.37,0,0,0,.09.34A201.4,201.4,0,0,0,2106.91,1483.57Z" style="fill:url(#linear-gradient-158)"/><path d="M2069.21,1484.39a3.65,3.65,0,0,0,2.69,2.72c10,2.1,25.8.41,32.45-.46a3.1,3.1,0,0,0,2.56-3.08A201.4,201.4,0,0,1,2069.21,1484.39Z" style="fill:url(#linear-gradient-159)"/><path d="M2091.84,1443.61l-3.71,17.89a2.94,2.94,0,0,1-2.5,2.41,25,25,0,0,1-5.76-.09,3.68,3.68,0,0,1-2.92-4.32l2.59-15.89Z" style="fill:url(#linear-gradient-160)"/><path d="M1997.07,1484.24c9.07-.25,13.76-1.32,16.18-2.31,0,.9,0,1.82,0,2.77a1.79,1.79,0,0,1-1.71,1.82l-49.78-.32a2.28,2.28,0,0,1-1.83-3.31C1966.43,1483.43,1983.05,1484.63,1997.07,1484.24Z" style="fill:url(#linear-gradient-161)"/><path d="M1959.9,1482.89a2,2,0,0,1,.2-.38c4.39-6.14,15.59-18.38,37.72-23.68l10.61-.34s4.73,8.22,4.82,23.44c-2.42,1-7.11,2.06-16.18,2.31C1983.05,1484.63,1966.43,1483.43,1959.9,1482.89Z" style="fill:url(#linear-gradient-162)"/><path d="M2010.4,1442.41c-.11.79-1.57,12.81-2.13,17.48a2.32,2.32,0,0,1-2,2.08,24.31,24.31,0,0,1-7.29-.11,3.14,3.14,0,0,1-2.38-3.15v-18.88Z" style="fill:url(#linear-gradient-163)"/><path d="M2084.75,1208.62s17,151,7.55,245.37c0,0-11.32,0-17-1.89,0,0-17.65-147.63-23.36-189.88a1.42,1.42,0,0,0-2.8-.09c-7,35.54-34.72,174.92-38,188.08,0,0-9.44,3.78-17,0,0,0,15.09-202,26.42-237.81Z" style="fill:url(#linear-gradient-164)"/><path d="M2118.72,1033.09s-71.72-11.32-128.34,3.78l3.78,58.51s15.09,81.16,26.42,117c0,0,43.41,7.55,64.17-3.78,0,0,17-101.92,26.42-117C2111.17,1091.6,2120.61,1052,2118.72,1033.09Z" style="fill:url(#linear-gradient-165)"/><path d="M2068.39,971.5l7.65,58.34s-20,9.17-33.93-.39l3-34.1Z" style="fill:url(#linear-gradient-166)"/><path d="M2118.72,1033.09s111.36,120.8-19.81,167v-9.44s49.07-41.52,11.32-98.14C2110.23,1092.55,2115,1038.76,2118.72,1033.09Z" style="fill:url(#linear-gradient-167)"/><path d="M2098,1191.64s-17-11.33-24.53-7.55-7.55,9.43-7.55,9.43,3.77,7.55,9.43,5.67,18.88,1.88,24.54,0C2099.85,1199.19,2101.74,1191.64,2098,1191.64Z" style="fill:url(#linear-gradient-168)"/><path d="M1914.34,981.63l24,8.08c2.9.87,4.9,3.8,5.13,7.52l-1.24,40c.39,6.26-4.78,11.77-9.65,10.31l-19.21-6.55c-1.87-.56-3.12-2.52-3.14-5l-.42-49.79C1909.75,983.36,1912.12,981,1914.34,981.63Z" style="fill:url(#linear-gradient-169)"/><path d="M1909.77,1033.09s-7.5-24-3.69-28.07,11.41-15.21,11.92-6.08S1923.09,1047.48,1909.77,1033.09Z" style="fill:url(#linear-gradient-170)"/><path d="M2024.48,961.61c-.11.69,8.41,46.33,8.41,46.33l26-5.42-1.65-44.45S2026.36,950,2024.48,961.61Z" style="fill:url(#linear-gradient-171)"/><path d="M2049.43,965.3a3.8,3.8,0,0,1,1.81,2.83l2.67,23a3.62,3.62,0,0,1,0,1c-.32,1.91-1.82,7.91-8,6.06-5.25-1.58-10.09-3-13.66-2.33a3.81,3.81,0,0,0-3,4.47,142.69,142.69,0,0,0,5.33,20.29,3.78,3.78,0,0,0,4.58,2.34c5-1.39,14.76-4.41,22.19-8.65a3.81,3.81,0,0,0,1.93-3.41c-.16-6.18-.52-23.52.13-28.43.6-4.56,6.12-7.26,8.74-8.3a3.8,3.8,0,0,0,2.17-2.17c1.17-3,2.46-9.18-5.28-12a3.83,3.83,0,0,1-2.22-4.83c1.2-3.47,1.53-8.51-4.73-11.44s-11.23.09-14,2.85a4,4,0,0,1-4.7.7,2.51,2.51,0,0,0-2.5,0,3.69,3.69,0,0,1-5-1.62c-1.6-3.21-4.79-6.51-11.13-5.54-11.62,1.8-13.15,14.61-10.21,22.19s15.41,4.91,21.72,1.22C2040.8,960.79,2046.65,963.61,2049.43,965.3Z" style="fill:url(#linear-gradient-172)"/><path d="M2063,990.22s-3.28-12.63,1.66-15.82,12.17-1.37,10.41,8.27C2072.89,994.65,2063,990.22,2063,990.22Z" style="fill:url(#linear-gradient-173)"/><path d="M2012.27,954.61a.39.39,0,0,1-.37-.23c-4.22-9,5.62-16.25,5.72-16.32a.41.41,0,1,1,.48.66c-.1.07-9.4,6.89-5.47,15.32a.39.39,0,0,1-.19.53A.38.38,0,0,1,2012.27,954.61Z" style="fill:#fff"/><path d="M1829.58,982.93v82.49c0,6.73-4.1,12.18-9.15,12.18H1519.89c-4.2,0-7.86,3.8-8.88,9.22l-5.4,28.72c-.71,3.81-4.69,4.12-5.74.45l-6.95-24.26c-1.35-4.72-4.75-7.84-8.55-7.84h-12.92c-5,0-9.15-5.45-9.15-12.18v-84.8c0-6.68,4-12.11,9.07-12.17l349-4C1825.43,970.7,1829.58,976.16,1829.58,982.93Z" style="fill:url(#linear-gradient-174)"/><ellipse cx="1508.81" cy="1024.69" rx="36.86" ry="37.83" style="fill:url(#linear-gradient-175)"/><path d="M1522.17,1009.36c0,6.8-5.51,14.13-12.31,14.13s-12.3-7.33-12.3-14.13,5.51-11.62,12.3-11.62S1522.17,1002.56,1522.17,1009.36Z" style="fill:#fff"/><path d="M1494.59,1049.66h30a7.29,7.29,0,0,0,6.93-5.06l1.61-5a7.26,7.26,0,0,0-4.39-9c-12.22-4.47-24.86-3.89-37.81.41a7.24,7.24,0,0,0-4.64,8.78l1.24,4.59A7.28,7.28,0,0,0,1494.59,1049.66Z" style="fill:#fff"/><path d="M1800.87,1034.57a7.31,7.31,0,0,1-7.46,7.15H1574.05a7.31,7.31,0,0,1-7.45-7.15h0a7.31,7.31,0,0,1,7.45-7.15h219.36a7.31,7.31,0,0,1,7.46,7.15Z" style="fill:#fff"/><path d="M1697,1057.5a6.5,6.5,0,0,1-6.5,6.5h-115a6.5,6.5,0,0,1-6.5-6.5h0a6.5,6.5,0,0,1,6.5-6.5h115a6.5,6.5,0,0,1,6.5,6.5Z" style="fill:#fff"/><path d="M1801,1057.5a6.5,6.5,0,0,1-6.5,6.5h-83a6.5,6.5,0,0,1-6.5-6.5h0a6.5,6.5,0,0,1,6.5-6.5h83a6.5,6.5,0,0,1,6.5,6.5Z" style="fill:#fff"/><rect x="1566" y="990" width="129" height="19" rx="9.13" style="fill:url(#linear-gradient-176)"/><path d="M1181.43,331c-9.45-13.52-23.55-19.09-37.36-15-15.06,4.41-23.57,21.27-37.59,28-24.45,11.77-58.26-11.48-76.83,18.85-22.72,37.09-40.27,9.27-40.27,34.44s156.93,6.62,234.36,7.95c11.19.19,59.75-.77,38.85-28-6.5-8.45-15.76-9.86-24.39-11.84-11.26-2.58-38-4-46.19-14.25-4.39-5.53-6.08-13.46-10-19.38Z" style="fill:#fff;opacity:0.58"/><path d="M1465,278.57c-5.67-8.12-14.15-11.46-22.45-9-9,2.65-14.16,12.78-22.57,16.83-14.69,7.06-35-6.9-46.16,11.32-13.65,22.28-24.19,5.57-24.19,20.69s94.27,4,140.79,4.77c6.72.12,35.9-.46,23.34-16.8-3.9-5.07-9.47-5.92-14.66-7.11-6.76-1.55-22.84-2.4-27.74-8.56-2.64-3.32-3.65-8.09-6-11.64C1465.17,278.88,1465.06,278.73,1465,278.57Z" style="fill:#fff;opacity:0.58"/><path d="M847.51,1027.42c-.06,72.52-.62,322.67-5,411.23-.46,9.38-7.06,16.77-15.09,16.9-39.72.64-185.29,1.27-250.13-3.35-13.51-1-24-14-23.91-29.85.34-76.11,2.1-290.18,11.35-388.06,1.1-11.73,9.19-20.91,19.24-21.86,43.33-4.1,189.72-13.23,245.71-7.73C839.81,1005.69,847.53,1015.56,847.51,1027.42Z" style="fill:url(#linear-gradient-177)"/><path d="M829.31,1049.27c.84,58.55,3.27,253.35-.46,325.28-.54,10.51-7.82,18.86-16.82,19.28-37,1.71-163.35,4.5-217.48-1.78-9.75-1.13-17.21-10.55-17.49-22-1.42-59.75-5.3-241.17-1.68-312.29.58-11.35,8.3-20.45,18-21.25,40.1-3.32,174.41-10.35,220.44-6.39C822.47,1030.85,829.17,1039.13,829.31,1049.27Z" style="fill:url(#linear-gradient-178)"/><g style="opacity:0.30000000000000004"><path d="M814.78,1066.31c.75,51.86,2.9,224.36-.41,288-.48,9.31-6.92,16.71-14.89,17.08-32.8,1.51-144.65,4-192.59-1.58-8.63-1-15.24-9.34-15.48-19.49-1.27-52.91-4.7-213.56-1.49-276.55.51-10,7.35-18.11,15.93-18.82,35.52-2.93,154.45-9.16,195.22-5.65C808.72,1050,814.66,1057.33,814.78,1066.31Z" style="fill:#fff"/></g><path d="M749.65,1015.6h0a4,4,0,0,1-3.48,4.1c-9.38.37-35.82,1.41-47.64,1.95-2.33.1-4.1-2.38-3.6-5l.08-.46a3.85,3.85,0,0,1,3.26-3.3c8-.68,32.11-2.51,48.05-1.5A4,4,0,0,1,749.65,1015.6Z" style="fill:#fff;opacity:0.5"/><circle cx="702.38" cy="1212.56" r="93.06" transform="translate(-651.69 851.81) rotate(-45)" style="fill:url(#linear-gradient-179)"/><path d="M759.62,1236.88a16.63,16.63,0,0,0-9.85-10.91l-6.69-2.65a12.83,12.83,0,0,0-15,4.24l-6,8c-9.36.26-20.17-3.22-29.75-10.39-9-6.74-15.2-15.43-17.89-24a.29.29,0,0,1,.46-.32l5.37-7.18a14.65,14.65,0,0,0-.27-17.92l-4.45-5.59a16.78,16.78,0,0,0-26.56.39,21.54,21.54,0,0,0-3.53,7.21c-4.93,17.44,9.11,43.8,35,63.19s55.13,25.43,70.47,15.8a22.08,22.08,0,0,0,6-5.43A16.64,16.64,0,0,0,759.62,1236.88Z" style="fill:#fff"/><path d="M591.62,1439.31a28.62,28.62,0,0,1-28.62-28.4v-48.56a1,1,0,1,1,2,0v48.56a26.59,26.59,0,0,0,26.59,26.34,1,1,0,0,1,1,1A1,1,0,0,1,591.62,1439.31Z" style="fill:#fff"/><path d="M435.3,1447.31s-1.93,10.9-2.87,21.68a7.44,7.44,0,0,0,7.11,8.06c14.36.6,45.09,1.76,56.12,1.27a2.42,2.42,0,0,0,2.12-3.32h0a5.39,5.39,0,0,0-2.76-2.91l-50.76-23.33Z" style="fill:url(#linear-gradient-180)"/><path d="M433.72,1440.91l1.55,13s8.89,4.14,15-.52l-3.68-14.52Z" style="fill:url(#linear-gradient-181)"/><path d="M434.88,1195.86c-.66,3.4-3.58,169.86,14.21,244.45a2.55,2.55,0,0,1-1.48,3,44.12,44.12,0,0,1-14.5,2.94,4.35,4.35,0,0,1-4.32-3.13c-5.09-17.3-29.46-104-32.64-186.85-3.55-92.56,0-3.15,0-3.15l2.09-57.22Z" style="fill:url(#linear-gradient-182)"/><path d="M376.91,1453s-3.06,5.5-6,20.11a4.54,4.54,0,0,0,4,5.43c4.75.47,12.05,1.07,17.9,1a4.52,4.52,0,0,0,4.47-5c-.65-5.34-2.66-14.09-8.9-20.92Z" style="fill:url(#linear-gradient-183)"/><path d="M374.22,1436.23l3.62,19.71s3.57,2.66,10.64.73l-1.73-21.21Z" style="fill:url(#linear-gradient-184)"/><path d="M364.46,1201c-14.55,87.82,3.16,217.06,9.13,242.35a3.93,3.93,0,0,0,3.18,3,26.65,26.65,0,0,0,11.39-.45,3.64,3.64,0,0,0,2.6-3.33c.8-20.45-.65-146,12.91-195.61a11.3,11.3,0,0,1,4.35-6.22L434.34,1222l2-30.24Z" style="fill:url(#linear-gradient-185)"/><path d="M457.19,1034.56c-43.61-.72-91.73,11.45-91.73,11.45-13,75.85-2.28,163.34-2.28,163.34,33.77,8.85,71.85-5.41,71.85-5.41,5.61-31.71,31.79-120.93,31.79-120.93,21.31-2.65,38.86-8.79,53.32-16.92-11-12.78-16.23-29-18.48-38.66C486.24,1032.22,470.64,1034.78,457.19,1034.56Z" style="fill:url(#linear-gradient-186)"/><path d="M586,970.33a8.34,8.34,0,0,0-9.71-2.73c-6.41,27.11-40.06,49.09-74.63,59.83,2.25,9.62,7.45,25.88,18.48,38.66C577.51,1033.83,586,970.33,586,970.33Z" style="fill:url(#linear-gradient-187)"/><path d="M585,971.64c.45,1.43-4.74,3.6-7.8-2.23-.1-2.79-1.8-14.76-.13-17,8.89-12.12,26.12-27.31,26.12-27.31a4.1,4.1,0,0,1,.51,5.7l-8.36,8.71c1.75,3.16,3.88,5.83,4.88,9.65a11.7,11.7,0,0,1-1.16,8.62,102,102,0,0,1-5.37,8.77A11.57,11.57,0,0,1,585,971.64Z" style="fill:url(#linear-gradient-188)"/><path d="M591.65,945.12,584,951.58l-2.4,6.43,6.8,7.54s2.28-12.76,4-15.53S593.23,945.93,591.65,945.12Z" style="fill:url(#linear-gradient-189)"/><path d="M382.18,1088.24,365.46,1046s-40.74,27.68-47.44,62.77a92.72,92.72,0,0,1,34.31,9.62C358.52,1104.48,382.18,1088.24,382.18,1088.24Z" style="fill:url(#linear-gradient-190)"/><path d="M413,999.16l-13.87,40.13a1.44,1.44,0,0,0,.66,1.74c3.78,2.09,17.41,8.13,33.83-2.28a6.79,6.79,0,0,0,3.13-4.86l4.5-34.73Z" style="fill:url(#linear-gradient-191)"/><path d="M443.2,962s15.24,28.68,13.29,40.27-20.84,10.75-37.33,1.34l-11.52-31Z" style="fill:url(#linear-gradient-192)"/><path d="M419.89,988.4a1.19,1.19,0,0,0,.52-1.73c-1.22-1.86-3.51-5.67-4.24-9,0,0-2.74-1.75,7-4.08s24.19-5.93,27.24-14.2c3-8.06-4.83-28.32-17.28-12.17a1.18,1.18,0,0,1-1.87,0c-2-2.66-7.4-8.17-14.84-4.82-7,3.12-7.75,8.23-7.66,10.8a1.18,1.18,0,0,1-1.39,1.2c-3.52-.67-12-1.25-15.92,7.42-3.25,7.14-1.14,11.19.79,13.16a1.18,1.18,0,0,1-.51,2c-2.31.71-5.3,2.67-5,8.09.41,7.5,8.79,6.84,11.18,6.5a1.19,1.19,0,0,1,1.05.37c2.05,2.27,11.27,11.88,21.24,13a1.19,1.19,0,0,0,1.25-1.58l-4.31-12.55a1.18,1.18,0,0,1,.64-1.47Z" style="fill:url(#linear-gradient-193)"/><path d="M421.63,990.18S410.78,982.74,410,989s9.77,9.08,15,6.74Z" style="fill:url(#linear-gradient-194)"/><path d="M318.31,1109.12s-27.84,63.41,40.21,72.69l9.28-7.73s-34-18.56-15.47-55.68C352.33,1118.4,332.23,1101.39,318.31,1109.12Z" style="fill:url(#linear-gradient-195)"/><path d="M367.18,1142.51l24,8.07c2.91.87,4.91,3.8,5.14,7.52l-1.25,40c.39,6.26-4.77,11.77-9.65,10.31l-19.21-6.55c-1.87-.56-3.11-2.52-3.13-4.95l-.43-49.79C362.59,1144.24,365,1141.84,367.18,1142.51Z" style="fill:url(#linear-gradient-196)"/><path d="M361,1189.91c-.65-.71-5.13-8.91-4-19.88s-1-15.91,4.13-15.48,9.34,1.28,8.76,6.68S370.93,1200.91,361,1189.91Z" style="fill:url(#linear-gradient-197)"/></g></g></svg>