<svg xmlns="http://www.w3.org/2000/svg" xmlns:xlink="http://www.w3.org/1999/xlink" viewBox="0 0 650 450"><defs><clipPath id="clip-path"><path d="M140,287c.05,1.32-1.23,1.6-2.21,2a29.77,29.77,0,0,1-20.91.78c-2.37-.8-4.57-1.22-7-1.84a2.2,2.2,0,0,1-.89-.41,2,2,0,0,1-.34-1.9,19.93,19.93,0,0,1,2.81-6.07,13.82,13.82,0,0,0,1.72-4.2c.87-4.07-.49-7.88-1.61-12.5-.09-.36-.18-.72-.26-1.06a52,52,0,0,1-1.38-7.19c0-.28,0-.53,0-.73v-.24a20.7,20.7,0,0,1,.24-4.2c.07-.37.14-.72.24-1.06,1.54-5.65,5.5-6.06,5.5-6.06l9.12,3.17a25.84,25.84,0,0,1,5,3.77c.31.28.64.58,1,.91q.77.77,1.59,1.68a13.62,13.62,0,0,1,2.65,4.4c.11.27.2.55.29.82a16.85,16.85,0,0,1,.46,2,15.1,15.1,0,0,1,.17,1.76,27.14,27.14,0,0,0-.79,3.2c-.21,1.19-.51,2.44-.65,3.68a10.84,10.84,0,0,0-.07,2.34,35,35,0,0,0,4.65,15.07A4.16,4.16,0,0,1,140,287Z" style="fill:none"/></clipPath><clipPath id="clip-path-2"><path d="M120,213.43c-2.1,1.28-3.86,2.37-6.37,2.64-.53.06-.77.93-.14,1,2.6.39,5.13-1.12,7.13-2.61C121.28,214,120.73,213,120,213.43Z" style="fill:none"/></clipPath></defs><g style="isolation:isolate"><g id="Layer_1" data-name="Layer 1"><rect width="650" height="450" style="fill:#fff"/><path d="M611.88,399.81H428.07a18.25,18.25,0,0,1,2.76-6.69,35.58,35.58,0,0,1,2.65-3.62c1.77-2.2,3.76-4.3,5.59-6.34a90.76,90.76,0,0,0,8.46-11.07c1.77-2.71,3.41-5.49,5-8.33a176.68,176.68,0,0,0,8.21-17.52c2.36-5.76,4.59-11.7,8.48-16.56,4.95-6.18,12.12-10.06,18.41-14.86l1-.75c5.48-4.32,10.56-9.31,16.93-12.11,11.39-5,25.93-1.45,33.71,8.24,5.22,6.5,7.59,15.24,12.41,21.81a23.32,23.32,0,0,0,4.92,5.05,28.2,28.2,0,0,0,6.06,3.29c4.54,1.89,9.42,3.19,13.44,6a20.41,20.41,0,0,1,2.38,1.95,26,26,0,0,1,4.07,5,49.4,49.4,0,0,1,5.18,11.55c2.28,7.05,3.87,14.43,7.68,20.78a24.88,24.88,0,0,0,8,8.33c2.16,1.35,7.54,2.18,8.44,4.94A2.53,2.53,0,0,1,611.88,399.81Z" style="fill:#b0beea"/><path d="M578.18,385.32l-25.13,14.49H526.9c-4.37-11.27-.54-32.14,4.34-39.16,2.42-3.47,5.79-6.16,8.52-9.4,4.86-5.77,7.52-13.08,11.85-19.24l.18-.26c2.39-3.48,13.4-14.7,17.12-7.08,1.57,3.22-3.31,10.83-6.32,15.68-.76,1.23-1.4,2.28-1.79,3q-5.91,11.61-12.26,23c-2.51,4.52-4.91,10.67-1.26,14.33,1.52-6,3.19-12.24,7.38-16.76a37,37,0,0,1,8.58-6.27c2.16-1.28,10-7.29,15.17-9.38,1.85-.76,3.35-1,4.11-.34,1.21,1.06.86,3.15,0,5.3a27.89,27.89,0,0,1-4.05,6.5c-3.22,3.62-7.41,6.21-11,9.47a39,39,0,0,0-11.24,18.15,41,41,0,0,1,19.59-12.48c2.62-.75,6-1,7.52,1.24C585.57,379.4,581.62,383.34,578.18,385.32Z" style="fill:#8ca3ea"/><path d="M537.4,399.81H241.23a15.32,15.32,0,0,0,3-3.09c2.32-3.39-.23-4.34-.15-8.45.24-11.34,1.3-24.22,10.2-31.25,3.87-3,8.7-4.51,13.47-6s9.57-3.2,13.18-6.63c9.87-9.37,6.75-27.69,17.37-36.22,7.9-6.34,19.63-4.13,29-8,10.35-4.24,16.18-15,22-24.54S362.93,256,374.07,255c12.8-1.16,24.32,10.26,37.08,8.78,5.07-.58,10.29-3.18,15-1.28,7.34,2.95,7,13.35,10.9,20.26,4,7.14,12.53,10.28,20.52,12.08s16.53,3,22.92,8.12a27.72,27.72,0,0,1,8.05,11.11c5.43,12.65,5.25,29.26,14.83,39.57,6.89,7.43,17.7,10.22,24.57,17.66S536.54,389.51,537.4,399.81Z" style="fill:#d0def2"/><path d="M308.82,399.81H30.37c0-3.64,3.44-8.63,6.23-11.3,5-4.79,11.41-8.2,15.86-13.45a26.11,26.11,0,0,0,2.43-3.37c4-6.49,5-14.31,4.76-22.11a91.5,91.5,0,0,0-.84-9.43c-1.64-12-4.48-24.49-.73-36.11,5.33-16.54,25.11-27.73,43.19-24.42,25.4,4.64,41.57,32.53,67.4,34.08,11.8.7,23-4.41,34.14-8.08,9.37-3.09,19.33-5.21,29.21-4.22s19.7,5.48,25.08,13.31c7.5,11,5,25.49,9.91,37.65.22.55.46,1.09.71,1.62a35.2,35.2,0,0,0,15,15.7c6.43,3.5,14.14,5.24,19.27,10.28S308.61,392.54,308.82,399.81Z" style="fill:#b0beea"/><path d="M97.68,350.53a14.52,14.52,0,0,1-1.82,5.62c-.28.54-.59,1.08-.91,1.6s-.79,1.28-1.19,1.9c-1.82,2.81-3.72,5.72-4.14,9a32.73,32.73,0,0,0-.07,4.32c0,.55,0,1.08,0,1.62a10,10,0,0,1-.38,2.09c-1.28,4.14-5.9,6.51-7.35,10.59-.81,2.26-.54,4.74-.32,7.13a15.21,15.21,0,0,1-.66,5.37H73.22c-2.41-4.65-2.21-9.49-7.44-13.07-3-2.05-6.72-3.25-8.75-6.24-1.65-2.43-1.77-5.41-2-8.4,0-.46-.05-.93-.1-1.39,0-.29,0-.57-.07-.86a15.13,15.13,0,0,0-.8-3.73c-1.62-4.34-5.83-7.11-8.37-11A14.41,14.41,0,0,1,44.55,353c-.17-.38-.32-.77-.46-1.16a16.37,16.37,0,0,1,1.22-13.57,8.23,8.23,0,0,1,2-2.4,4.71,4.71,0,0,1,1.22-.68l.22-.07a5.52,5.52,0,0,1,3.82.4c4,1.86,5.3,6.49,7.06,10.77.09.23.19.46.29.68a21.43,21.43,0,0,0,1,2,12.28,12.28,0,0,0,3,3.89c1.07.88,2.34,1.5,3.36,2.43,2,1.79,2.71,4.36,3,7.06.1.82.17,1.65.22,2.47s.07,1.38.11,2.06c.22,4.13,1.28,8.95,5.07,10.62-.25-3.25-.47-6.64.38-9.73a11.15,11.15,0,0,1,.62-1.76c.11-.26.23-.52.36-.77,1-1.9,2.55-3.47,3.61-5.34,1.48-2.58,2-5.56,2.76-8.44.13-.48.27-1,.43-1.44s.24-.71.37-1.06c1.4-3.58,4.81-7,8.57-6.2a3.8,3.8,0,0,1,.6.18,4.79,4.79,0,0,1,1.59.89A8,8,0,0,1,97.68,350.53Z" style="fill:#8ca3ea"/><path d="M467.13,389.89a30.51,30.51,0,0,1-3.83,1.37c-4,1.56-6.2,5.67-9.37,8.55h-6.32c-.25-.48-.48-1-.75-1.46a6.55,6.55,0,0,0-4.28-3.08c-2.1-.42-4.27.25-6.41.12a8.74,8.74,0,0,1-5.34-2.27,7.34,7.34,0,0,1-.9-.95,3.59,3.59,0,0,1-.9-1.94,1.71,1.71,0,0,1,1-1.76c1-.35,1.94.52,2.91.89a3.58,3.58,0,0,0,.54.14c1.38.25,2.87-.27,4.3-.48a9.47,9.47,0,0,1,8.69,3.39,30.33,30.33,0,0,1-2.55-6.39,10.25,10.25,0,0,1,.49-6.74c.59-1.2,1.48-2.23,2-3.44a16.1,16.1,0,0,0,1.07-3.75,17.23,17.23,0,0,1,.55-2.17,15.83,15.83,0,0,1,4.41-6.16c.67-.64,1.37-1.25,2.05-1.86a4.51,4.51,0,0,1,1.9-1.17c-.31,3.34-.61,6.68-.92,10a68,68,0,0,1-1.13,8.43C453.54,383,452,386.7,452,390.6c0,.36.07.82.42.91a6.41,6.41,0,0,1,3.39-4.07c1.19-.55,2.52-.73,3.7-1.31a24.41,24.41,0,0,0,3.17-2.22,11.54,11.54,0,0,1,4.67-1.91,2.15,2.15,0,0,1,1.64.19,1.91,1.91,0,0,1,.65,1A5.71,5.71,0,0,1,467.13,389.89Z" style="fill:#8ca3ea"/><path d="M271.1,367.68a31,31,0,0,1-5.77,16.14c-4.12,5.55-13.36,8.4-14,16h-4c-.71-5.48-3.35-8.72-7.51-12.7-2.25-2.17-4.45-4.86-3.48-8.11.2-.51,1-.83,1.36-.18a23.68,23.68,0,0,0,5.62,7.07,26.08,26.08,0,0,1,4,4.09c-.63-3.52-1.54-6.93-4-10.08a.72.72,0,0,1,1-1,19.5,19.5,0,0,1,5.9,10.26A41.2,41.2,0,0,1,259.66,375a.88.88,0,0,1,1.37,1.06c-2,3.77-4.86,7-7,10.69a21.9,21.9,0,0,0-2.24,5.25,34.86,34.86,0,0,1,5.35-4.67c3.69-2.75,6.6-5.49,8.67-9.64,1.66-3.34,2.51-7,4.19-10.32A.61.61,0,0,1,271.1,367.68Z" style="fill:#8ca3ea"/><path d="M95.86,356.15c-.28.54-.59,1.08-.91,1.6a29.36,29.36,0,0,0-5.11.18h-.07c-2.16,3.37-4.52,6.62-5.56,10.51-.49,1.8-.77,3.63-1.11,5.46,1.06.7,2.07-.1,4.23-.55a21.28,21.28,0,0,1,2.22-.34c0,.55,0,1.08,0,1.62a36.89,36.89,0,0,0-5,1.13c-.92.26-1.27.49-1.86.27-.16.68-.34,1.37-.56,2-.89,2.7-2,5.29-2.84,8a52.27,52.27,0,0,0-2,13.73h-2a45.77,45.77,0,0,0-2.09-11.14c-1.73-4.71-4.65-8.82-7.4-13a4.26,4.26,0,0,1-1.9-.3c-1.43-.36-3.54-1.66-4.72-2.08a33.05,33.05,0,0,0-4.19-1.17c0-.46-.05-.93-.1-1.39A32,32,0,0,1,59.61,372,21.86,21.86,0,0,0,63,373.33a6.8,6.8,0,0,0,1.41-.06c-.58-.95-1.16-1.9-1.69-2.88-2.37-4.39-4.12-9-6.24-13.46-2.31,0-5.45-2.17-7.35-2.76-1.5-.46-3-.84-4.53-1.18-.17-.38-.32-.77-.46-1.16.67.11,1.33.23,2,.37,2.94.61,6,2.41,8.93,2.77a3.3,3.3,0,0,0,.44,0c-.64-1.27-1.31-2.52-2.07-3.74a45.94,45.94,0,0,1-4.23-8.33c-.38-1-1-4.46-1.83-7.05a4.71,4.71,0,0,1,1.22-.68l.22-.07c1.47,3.13,2.2,7.94,2.86,9.4,1.54,3.39,3.74,6.4,5.58,9.62,1.24-1.44,1.55-4.36,2.32-6.22.13-.32.27-.63.41-1a21.43,21.43,0,0,0,1,2c-.7,1.68-1.36,3.39-2,5.17a11,11,0,0,1-.64,1.91c1.59,3.21,2.74,6.6,4.17,9.89A57.87,57.87,0,0,0,66,372.56c.72-.74.81-1.94,1.31-3.33a50.08,50.08,0,0,1,3.06-6.9c.1.82.17,1.65.22,2.47l-.21.43a66.63,66.63,0,0,0-2.76,7.45c-.13.4-.23,1.21-.44,1.83a79.75,79.75,0,0,1,6.73,12.21A41.73,41.73,0,0,1,76.18,396a51.73,51.73,0,0,1,.81-5.83c1-5.15,3.19-9.92,4.48-15-1.22-1.34-2.52-4.43-3.44-5.52a23.43,23.43,0,0,0-1.93-1.93,11.15,11.15,0,0,1,.62-1.76,21,21,0,0,1,5.06,6.28l.25.4c1.09-6.14,3.11-9.93,6.37-15.11l.3-.49a19.21,19.21,0,0,0-5.25-5.63c.13-.48.27-1,.43-1.44a20.67,20.67,0,0,1,3.4,2.8c.71.75,1.41,2.19,2.19,2.92a34.23,34.23,0,0,0,4-12.8,4.79,4.79,0,0,1,1.59.89,32.09,32.09,0,0,1-2.18,8.48,28.85,28.85,0,0,1-2.06,4,23,23,0,0,0,3.85-.21C95,356.11,95.45,356.12,95.86,356.15Z" style="fill:#d0def2"/><path d="M460.23,389.06a67.06,67.06,0,0,0-5.41,5,11,11,0,0,0-2.76,5.78h-2.65c-.52-1.8-1.18-3.51-2.89-4.56a17.13,17.13,0,0,0-6.95-2.1c-.24,0-.34-.41-.06-.46a12.32,12.32,0,0,1,8.14,2,6,6,0,0,1,1.81,2,76.78,76.78,0,0,1-1.75-11c-.3-6.78,3.69-11.55,5.43-17.79a.07.07,0,0,1,.13,0c-.29,3-1.38,5.23-2.47,8A22.63,22.63,0,0,0,449.42,388c.43,3,1.38,6.14,1.93,9.25a8.57,8.57,0,0,1,1.35-2.8,18.4,18.4,0,0,1,7.13-5.91C460.15,388.4,460.53,388.8,460.23,389.06Z" style="fill:#d0def2"/><path d="M145.61,408.29c-8.8-1.43-18.48-.39-27.4-.38l-13.53,0c-4.54,0-9.37-.47-13.79.66a1,1,0,0,0,0,1.84c4.42,1.13,9.25.65,13.79.66l13.53,0c8.94,0,18.58,1.06,27.4-.38A1.27,1.27,0,0,0,145.61,408.29Z" style="fill:#b0beea;mix-blend-mode:multiply"/><path d="M225.35,408.29c-8.8-1.43-18.48-.39-27.4-.38l-13.53,0c-4.54,0-9.37-.47-13.79.66a1,1,0,0,0,0,1.84c4.42,1.13,9.25.65,13.79.66l13.53,0c8.94,0,18.58,1.06,27.4-.38A1.27,1.27,0,0,0,225.35,408.29Z" style="fill:#b0beea;mix-blend-mode:multiply"/><path d="M578.59,408.29c-17-1.43-35.66-.39-52.88-.38l-26.11,0c-8.76,0-18.07-.47-26.6.66-1.75.23-1.76,1.61,0,1.84,8.53,1.13,17.84.65,26.6.66l26.11,0c17.25,0,35.86,1.06,52.88-.38C580.92,410.53,580.92,408.49,578.59,408.29Z" style="fill:#b0beea;mix-blend-mode:multiply"/><path d="M395.87,408.28c-19.87-1.42-41.71-.39-61.84-.38l-30.54,0c-10.24,0-21.14-.46-31.11.65-2.05.23-2.05,1.58,0,1.81,10,1.12,20.87.64,31.11.65l30.54,0c20.17,0,41.94,1,61.84-.37C398.59,410.48,398.59,408.47,395.87,408.28Z" style="fill:#b0beea;mix-blend-mode:multiply"/><path d="M73.41,285.9a.47.47,0,0,1-.31-.12c-.95-.83-1.87-1.7-2.76-2.6a.47.47,0,0,1,.67-.66c.87.88,1.78,1.74,2.71,2.56a.47.47,0,0,1,0,.66A.44.44,0,0,1,73.41,285.9Zm-5.28-5.34a.48.48,0,0,1-.35-.16c-.82-.95-1.62-1.94-2.38-2.95a.48.48,0,0,1,.09-.66.46.46,0,0,1,.66.09c.75,1,1.53,2,2.34,2.9a.48.48,0,0,1,0,.67A.51.51,0,0,1,68.13,280.56Zm-4.51-6a.46.46,0,0,1-.39-.21c-.69-1.05-1.35-2.14-2-3.23a.48.48,0,0,1,.18-.64.47.47,0,0,1,.64.17c.61,1.08,1.27,2.15,1.94,3.18a.48.48,0,0,1-.13.65A.42.42,0,0,1,63.62,274.56Zm450.21-4.95a.48.48,0,0,1-.47-.43.47.47,0,0,1,.42-.51l3.23-.34a.48.48,0,0,1,.52.42.46.46,0,0,1-.42.51c-1.08.12-2.16.24-3.23.34Zm7-.79a.46.46,0,0,1-.46-.41.46.46,0,0,1,.4-.52q1.86-.24,3.72-.51a.46.46,0,1,1,.13.92c-1.24.19-2.48.36-3.73.52ZM59.91,268a.47.47,0,0,1-.42-.27c-.55-1.13-1.08-2.29-1.56-3.44a.47.47,0,0,1,.25-.62.46.46,0,0,1,.61.25c.48,1.15,1,2.29,1.54,3.4a.48.48,0,0,1-.21.63A.54.54,0,0,1,59.91,268Zm468.32-.31a.47.47,0,0,1-.08-.93c1.23-.2,2.46-.42,3.69-.65a.49.49,0,0,1,.55.38.47.47,0,0,1-.38.55c-1.23.23-2.47.44-3.71.65Zm7.38-1.36a.49.49,0,0,1-.46-.38.47.47,0,0,1,.37-.55c1.22-.26,2.44-.52,3.66-.8a.47.47,0,0,1,.56.35.47.47,0,0,1-.35.57l-3.68.8Zm7.33-1.68a.47.47,0,0,1-.12-.93c1.21-.3,2.42-.62,3.62-1a.47.47,0,1,1,.25.91c-1.21.33-2.42.66-3.64,1Zm7.23-2a.47.47,0,0,1-.45-.34.47.47,0,0,1,.31-.58q1.8-.56,3.57-1.14a.47.47,0,0,1,.3.89c-1.19.4-2.39.78-3.59,1.15ZM57,261.11a.47.47,0,0,1-.44-.32c-.41-1.17-.8-2.39-1.15-3.6a.47.47,0,1,1,.9-.26c.35,1.2.73,2.39,1.14,3.55a.48.48,0,0,1-.29.6A.41.41,0,0,1,57,261.11Zm500.29-.81a.47.47,0,0,1-.44-.31.46.46,0,0,1,.28-.6c1.17-.43,2.33-.87,3.49-1.33a.47.47,0,0,1,.35.87c-1.17.46-2.34.91-3.52,1.34A.45.45,0,0,1,557.3,260.3Zm7-2.77a.47.47,0,0,1-.43-.28.46.46,0,0,1,.24-.62c1.15-.5,2.28-1,3.41-1.54a.48.48,0,0,1,.63.23.46.46,0,0,1-.23.62c-1.14.54-2.28,1.05-3.44,1.55A.39.39,0,0,1,564.28,257.53Zm6.8-3.19a.47.47,0,0,1-.42-.25.46.46,0,0,1,.21-.63c1.11-.57,2.21-1.15,3.3-1.75a.46.46,0,0,1,.64.18.48.48,0,0,1-.19.64c-1.1.61-2.21,1.19-3.33,1.76A.41.41,0,0,1,571.08,254.34Zm-516.15-.45a.46.46,0,0,1-.45-.36c-.28-1.23-.53-2.47-.75-3.71a.47.47,0,0,1,.39-.54.47.47,0,0,1,.54.38c.21,1.22.45,2.45.73,3.66a.47.47,0,0,1-.35.56Zm522.73-3.17a.48.48,0,0,1-.41-.23.46.46,0,0,1,.17-.64c1.07-.64,2.13-1.3,3.17-2a.47.47,0,1,1,.51.79c-1.05.68-2.12,1.35-3.2,2A.44.44,0,0,1,577.66,250.72Zm6.3-4.08a.47.47,0,0,1-.38-.2.46.46,0,0,1,.12-.65c1-.71,2-1.46,3-2.21a.47.47,0,0,1,.66.09.45.45,0,0,1-.09.65c-1,.77-2,1.52-3,2.23A.44.44,0,0,1,584,246.64Zm-530.3-.15a.47.47,0,0,1-.47-.41c-.14-1.25-.26-2.51-.34-3.77a.48.48,0,0,1,.44-.5.46.46,0,0,1,.5.44c.08,1.24.19,2.49.34,3.72a.47.47,0,0,1-.42.52Zm536.28-4.41a.47.47,0,0,1-.3-.83c1-.8,1.91-1.62,2.83-2.44a.46.46,0,1,1,.62.69c-.92.83-1.88,1.67-2.85,2.47A.5.5,0,0,1,589.94,242.08ZM53.19,239a.47.47,0,0,1-.47-.46v-.7c0-1,0-2.07.07-3.09a.45.45,0,0,1,.49-.44.47.47,0,0,1,.45.48c0,1-.07,2-.07,3.05v.69A.48.48,0,0,1,53.19,239Zm542.33-1.94a.51.51,0,0,1-.34-.14.48.48,0,0,1,0-.67c.89-.86,1.77-1.76,2.62-2.66a.47.47,0,0,1,.69.64c-.87.92-1.76,1.82-2.65,2.69A.47.47,0,0,1,595.52,237.06Zm5.16-5.47a.45.45,0,0,1-.31-.11.46.46,0,0,1,0-.66c.81-.94,1.62-1.91,2.39-2.88a.47.47,0,0,1,.66-.07.46.46,0,0,1,.07.66c-.77,1-1.59,2-2.41,2.9A.44.44,0,0,1,600.68,231.59ZM53.51,231.5a.48.48,0,0,1-.46-.52c.12-1.25.28-2.51.46-3.75a.47.47,0,0,1,.93.14c-.18,1.22-.34,2.47-.46,3.7A.47.47,0,0,1,53.51,231.5Zm551.84-5.78a.49.49,0,0,1-.28-.09.48.48,0,0,1-.1-.66c.73-1,1.45-2,2.13-3.07a.48.48,0,0,1,.65-.13.46.46,0,0,1,.13.65c-.69,1-1.41,2.09-2.15,3.1A.46.46,0,0,1,605.35,225.72Zm-550.7-1.65h-.1a.45.45,0,0,1-.36-.55c.25-1.23.55-2.47.87-3.68a.47.47,0,0,1,.58-.33.46.46,0,0,1,.33.57c-.32,1.2-.61,2.42-.87,3.63A.46.46,0,0,1,54.65,224.07Zm554.84-4.62a.5.5,0,0,1-.24-.06.47.47,0,0,1-.16-.65c.63-1.07,1.25-2.16,1.83-3.25a.47.47,0,1,1,.83.45c-.59,1.1-1.21,2.2-1.86,3.28A.46.46,0,0,1,609.49,219.45Zm-552.9-2.63-.15,0a.47.47,0,0,1-.29-.6c.39-1.19.83-2.39,1.29-3.55a.48.48,0,0,1,.61-.27.47.47,0,0,1,.26.61c-.46,1.15-.88,2.33-1.27,3.51A.47.47,0,0,1,56.59,216.82Zm556.43-4a.53.53,0,0,1-.2-.05.47.47,0,0,1-.22-.62c.53-1.13,1-2.28,1.51-3.41a.47.47,0,0,1,.87.35c-.48,1.16-1,2.32-1.53,3.46A.47.47,0,0,1,613,212.83Zm-553.66-3a.51.51,0,0,1-.2,0,.48.48,0,0,1-.22-.63c.53-1.13,1.11-2.27,1.71-3.37a.47.47,0,1,1,.82.45c-.59,1.08-1.16,2.2-1.68,3.32A.47.47,0,0,1,59.36,209.84Zm556.52-4-.15,0a.46.46,0,0,1-.29-.6c.41-1.17.8-2.36,1.15-3.55a.47.47,0,0,1,.58-.32.48.48,0,0,1,.32.59c-.35,1.2-.74,2.41-1.16,3.59A.47.47,0,0,1,615.88,205.89ZM63,203.26a.5.5,0,0,1-.26-.08.46.46,0,0,1-.14-.64c.67-1.07,1.39-2.12,2.12-3.14a.48.48,0,0,1,.66-.1.47.47,0,0,1,.1.66c-.72,1-1.42,2-2.09,3.08A.47.47,0,0,1,63,203.26Zm344.38-.75h-1.41a.47.47,0,0,1,0-.94c1.24,0,2.49,0,3.73,0a.47.47,0,0,1,0,.94Q408.54,202.51,407.35,202.51Zm-5.15-.13c-1.28-.07-2.55-.16-3.79-.28a.47.47,0,0,1-.43-.51.45.45,0,0,1,.51-.42c1.24.11,2.49.2,3.73.27a.46.46,0,0,1,.44.49A.47.47,0,0,1,402.2,202.38Zm11.26-.06a.46.46,0,0,1-.47-.44.47.47,0,0,1,.44-.5c1.24-.07,2.49-.17,3.73-.3a.47.47,0,0,1,.09.94c-1.25.12-2.51.22-3.76.3Zm-18.74-.63h-.06c-1.25-.16-2.51-.35-3.74-.56a.47.47,0,0,1,.16-.93c1.22.21,2.46.4,3.7.56a.47.47,0,0,1-.06.94Zm26.21-.11a.47.47,0,0,1-.46-.41.46.46,0,0,1,.4-.53c1.23-.17,2.47-.37,3.69-.58a.47.47,0,0,1,.16.92c-1.22.22-2.48.42-3.72.59Zm-33.61-1.17h-.1c-1.23-.26-2.46-.55-3.68-.87a.46.46,0,0,1-.33-.57.47.47,0,0,1,.57-.34c1.2.31,2.42.6,3.63.86a.47.47,0,0,1,.36.56A.46.46,0,0,1,387.32,200.41Zm41-.14a.47.47,0,0,1-.46-.37.46.46,0,0,1,.36-.56c1.22-.27,2.44-.55,3.64-.86a.47.47,0,0,1,.57.34.48.48,0,0,1-.34.57c-1.21.31-2.44.6-3.67.87ZM618,198.68h-.11a.47.47,0,0,1-.35-.57c.29-1.2.54-2.43.75-3.65a.46.46,0,0,1,.54-.38.46.46,0,0,1,.38.54c-.21,1.24-.47,2.49-.75,3.71A.46.46,0,0,1,618,198.68ZM380,198.53a.3.3,0,0,1-.13,0c-1.2-.36-2.41-.75-3.59-1.16a.47.47,0,0,1-.29-.6.46.46,0,0,1,.6-.29c1.17.41,2.36.8,3.55,1.16a.45.45,0,0,1,.31.58A.46.46,0,0,1,380,198.53Zm55.56-.13a.47.47,0,0,1-.45-.33.48.48,0,0,1,.32-.59c1.19-.35,2.39-.73,3.56-1.13a.47.47,0,1,1,.3.89c-1.18.4-2.39.78-3.59,1.14A.34.34,0,0,1,435.6,198.4ZM67.38,197.19a.5.5,0,0,1-.3-.11.47.47,0,0,1-.06-.66c.81-1,1.66-1.92,2.53-2.82a.47.47,0,0,1,.68.65c-.85.89-1.69,1.82-2.49,2.77A.46.46,0,0,1,67.38,197.19ZM373,196.06a.38.38,0,0,1-.17,0c-1.16-.46-2.33-1-3.48-1.47a.47.47,0,0,1,.39-.86c1.13.51,2.28,1,3.44,1.46a.47.47,0,0,1,.26.61A.48.48,0,0,1,373,196.06Zm69.76-.07a.47.47,0,0,1-.43-.31.45.45,0,0,1,.27-.6c.69-.27,1.38-.54,2.07-.83l1.39-.58a.47.47,0,0,1,.37.87l-1.4.58c-.7.29-1.4.57-2.1.83A.33.33,0,0,1,442.71,196Zm6.92-3a.47.47,0,0,1-.2-.89c1.12-.52,2.24-1.06,3.37-1.63a.47.47,0,0,1,.63.2.48.48,0,0,1-.21.63q-1.71.87-3.39,1.65A.51.51,0,0,1,449.63,193ZM366.11,193a.38.38,0,0,1-.21-.05c-1.13-.56-2.25-1.16-3.34-1.77a.47.47,0,0,1,.46-.82c1.08.61,2.19,1.2,3.3,1.75a.49.49,0,0,1,.21.64A.48.48,0,0,1,366.11,193Zm-293.53-1.2a.47.47,0,0,1-.32-.81c.9-.82,1.86-1.64,2.87-2.46a.47.47,0,1,1,.6.72c-1,.81-2,1.63-2.84,2.43A.47.47,0,0,1,72.58,191.77Zm546.7-.49h-.06a.47.47,0,0,1-.41-.52c.09-.8.17-1.6.23-2.4,0-.44.06-.88.08-1.31a.46.46,0,0,1,.49-.45.47.47,0,0,1,.45.49c0,.45,0,.9-.09,1.34-.06.82-.14,1.63-.23,2.44A.46.46,0,0,1,619.28,191.28Zm-162.95-1.63a.45.45,0,0,1-.41-.24.47.47,0,0,1,.18-.64c1.11-.6,2.2-1.23,3.25-1.86a.47.47,0,0,1,.64.16.48.48,0,0,1-.16.65c-1.06.63-2.16,1.26-3.27,1.87A.49.49,0,0,1,456.33,189.65Zm-96.77-.36a.45.45,0,0,1-.25-.07c-1.08-.67-2.15-1.37-3.16-2.07a.46.46,0,0,1-.12-.65.48.48,0,0,1,.65-.12c1,.69,2.06,1.38,3.13,2.05a.46.46,0,0,1-.25.86ZM78.4,187a.49.49,0,0,1-.38-.19.48.48,0,0,1,.1-.66c1-.74,2-1.48,3.06-2.19a.48.48,0,0,1,.66.11.49.49,0,0,1-.12.66c-1,.71-2,1.43-3,2.18A.47.47,0,0,1,78.4,187Zm384.37-1.25a.47.47,0,0,1-.26-.86c1.06-.69,2.09-1.41,3.08-2.12a.46.46,0,0,1,.65.1.48.48,0,0,1-.1.66c-1,.72-2.05,1.44-3.11,2.15A.48.48,0,0,1,462.77,185.78ZM353.38,185a.46.46,0,0,1-.29-.1c-1-.78-2-1.58-2.92-2.39a.47.47,0,0,1-.05-.67.48.48,0,0,1,.67,0c.91.8,1.88,1.59,2.88,2.36a.47.47,0,0,1,.08.66A.46.46,0,0,1,353.38,185Zm266.22-1.24a.47.47,0,0,1-.47-.45c0-1.22-.15-2.46-.3-3.7a.46.46,0,0,1,.41-.52.47.47,0,0,1,.52.41c.16,1.26.26,2.53.31,3.77a.47.47,0,0,1-.45.49ZM84.55,182.72a.46.46,0,0,1-.39-.21.47.47,0,0,1,.13-.65l3.11-2.1a.47.47,0,1,1,.53.78l-3.12,2.1A.5.5,0,0,1,84.55,182.72Zm384.3-1.35a.46.46,0,0,1-.37-.18.47.47,0,0,1,.07-.66c1-.8,1.94-1.61,2.83-2.43a.47.47,0,0,1,.63.7c-.9.82-1.87,1.65-2.87,2.46A.48.48,0,0,1,468.85,181.37Zm-121.12-1.28a.47.47,0,0,1-.33-.14c-.9-.89-1.78-1.82-2.6-2.76a.47.47,0,0,1,.05-.67.46.46,0,0,1,.66,0c.81.92,1.66,1.83,2.55,2.71a.48.48,0,0,1,0,.67A.47.47,0,0,1,347.73,180.09Zm-257-1.59a.47.47,0,0,1-.27-.85c1-.71,2-1.44,3-2.17a.47.47,0,1,1,.56.75c-1,.75-2,1.47-3.07,2.19A.45.45,0,0,1,90.77,178.5Zm527.93-2.17a.46.46,0,0,1-.46-.37c-.24-1.21-.53-2.42-.87-3.62a.47.47,0,0,1,.91-.26c.34,1.23.63,2.47.88,3.69a.46.46,0,0,1-.37.55Zm-144.32,0a.45.45,0,0,1-.32-.13.46.46,0,0,1,0-.66c.88-.92,1.7-1.86,2.45-2.79a.47.47,0,0,1,.66-.08.47.47,0,0,1,.07.66c-.76,1-1.6,1.92-2.5,2.86A.48.48,0,0,1,474.38,176.29ZM342.8,174.43a.49.49,0,0,1-.38-.19c-.74-1-1.46-2.05-2.14-3.13a.46.46,0,0,1,.14-.64.47.47,0,0,1,.65.14c.67,1.06,1.38,2.09,2.1,3.06a.46.46,0,0,1-.09.66A.42.42,0,0,1,342.8,174.43Zm-246-.39a.47.47,0,0,1-.29-.83c.81-.66,1.6-1.31,2.32-2l.53-.46a.47.47,0,0,1,.66,0,.45.45,0,0,1,0,.66l-.53.47c-.74.64-1.53,1.31-2.35,2A.47.47,0,0,1,96.81,174Zm382.26-3.6a.43.43,0,0,1-.26-.09.46.46,0,0,1-.12-.65l2.12-3.1a.47.47,0,0,1,.78.54l-2.13,3.09A.46.46,0,0,1,479.07,170.44Zm-376.6-1.33a.5.5,0,0,1-.35-.16.47.47,0,0,1,0-.66c.92-.84,1.83-1.7,2.73-2.57a.47.47,0,0,1,.65.68c-.91.87-1.82,1.73-2.74,2.58A.5.5,0,0,1,102.47,169.11Zm514.23,0a.48.48,0,0,1-.45-.31c-.41-1.16-.86-2.33-1.35-3.47a.47.47,0,1,1,.86-.37c.5,1.16,1,2.35,1.38,3.53a.48.48,0,0,1-.29.6A.39.39,0,0,1,616.7,169.09Zm-277.92-1a.45.45,0,0,1-.41-.25c-.59-1.09-1.16-2.23-1.7-3.39a.47.47,0,0,1,.86-.39c.52,1.14,1.08,2.26,1.66,3.33a.47.47,0,0,1-.19.64A.46.46,0,0,1,338.78,168.1Zm144.55-3.85a.48.48,0,0,1-.27-.09.47.47,0,0,1-.11-.65c.71-1,1.43-2.06,2.15-3.08a.47.47,0,1,1,.77.54c-.72,1-1.44,2-2.15,3.07A.46.46,0,0,1,483.33,164.25Zm-375.45-.35a.47.47,0,0,1-.33-.8c.88-.88,1.75-1.78,2.61-2.68a.47.47,0,1,1,.68.64c-.87.91-1.74,1.81-2.63,2.7A.47.47,0,0,1,107.88,163.9Zm505.87-1.71a.48.48,0,0,1-.42-.26c-.55-1.1-1.15-2.21-1.77-3.29a.47.47,0,0,1,.17-.64.46.46,0,0,1,.64.17c.63,1.1,1.24,2.22,1.8,3.33a.49.49,0,0,1-.21.64A.54.54,0,0,1,613.75,162.19Zm-278.13-.9a.47.47,0,0,1-.43-.3c-.46-1.15-.9-2.34-1.31-3.55a.46.46,0,0,1,.29-.59.47.47,0,0,1,.6.29c.41,1.19.84,2.37,1.29,3.5a.46.46,0,0,1-.26.61A.58.58,0,0,1,335.62,161.29Zm-222.56-2.83a.49.49,0,0,1-.32-.12.47.47,0,0,1,0-.66c.84-.93,1.67-1.86,2.49-2.8a.47.47,0,1,1,.71.61c-.82.95-1.66,1.89-2.5,2.82A.49.49,0,0,1,113.06,158.46Zm374.62-.34a.49.49,0,0,1-.28-.09.48.48,0,0,1-.1-.66c.74-1,1.49-2,2.25-3a.47.47,0,0,1,.66-.09.48.48,0,0,1,.09.66c-.76,1-1.51,2-2.24,3A.47.47,0,0,1,487.68,158.12ZM610,155.67a.47.47,0,0,1-.39-.22c-.68-1-1.39-2.07-2.12-3.07a.47.47,0,1,1,.76-.55c.74,1,1.46,2.06,2.14,3.11a.47.47,0,0,1-.13.65A.5.5,0,0,1,610,155.67Zm-276.83-1.49a.48.48,0,0,1-.45-.33c-.36-1.2-.7-2.41-1-3.63a.49.49,0,0,1,.34-.58.48.48,0,0,1,.57.34q.48,1.82,1,3.6a.45.45,0,0,1-.31.58A.34.34,0,0,1,333.17,154.18ZM118,152.79a.43.43,0,0,1-.3-.11.46.46,0,0,1-.06-.66c.79-1,1.58-1.93,2.35-2.91a.47.47,0,0,1,.66-.07.45.45,0,0,1,.08.65c-.78,1-1.57,2-2.37,2.93A.48.48,0,0,1,118,152.79Zm374.24-.65a.46.46,0,0,1-.36-.76q1.17-1.47,2.4-2.91a.47.47,0,0,1,.66-.05.46.46,0,0,1,.05.66c-.81.95-1.6,1.91-2.38,2.89A.48.48,0,0,1,492.23,152.14Zm113.34-2.55a.48.48,0,0,1-.36-.17c-.78-1-1.59-1.92-2.42-2.85a.47.47,0,0,1,.7-.63c.84.95,1.66,1.91,2.45,2.89a.46.46,0,0,1-.37.76Zm-274.35-2.67a.46.46,0,0,1-.46-.35c-.3-1.22-.58-2.44-.86-3.67a.47.47,0,0,1,.35-.56.46.46,0,0,1,.56.35c.28,1.22.57,2.44.86,3.65a.47.47,0,0,1-.34.57Zm-208.57,0a.52.52,0,0,1-.29-.09.48.48,0,0,1-.09-.66c.75-1,1.49-2,2.21-3a.48.48,0,0,1,.66-.11.47.47,0,0,1,.11.65c-.73,1-1.47,2-2.23,3A.47.47,0,0,1,122.65,146.9Zm374.46-.47a.49.49,0,0,1-.32-.12.48.48,0,0,1,0-.67c.87-.94,1.75-1.86,2.61-2.73a.47.47,0,0,1,.66,0,.46.46,0,0,1,0,.67c-.85.85-1.71,1.76-2.57,2.7A.49.49,0,0,1,497.11,146.43ZM600.57,144a.51.51,0,0,1-.34-.14c-.87-.89-1.77-1.76-2.68-2.6a.47.47,0,0,1,0-.67.46.46,0,0,1,.66,0c.92.85,1.83,1.73,2.71,2.63a.47.47,0,0,1-.33.8Zm-98.17-2.88a.46.46,0,0,1-.34-.15.47.47,0,0,1,0-.67c.93-.85,1.89-1.69,2.84-2.48a.46.46,0,0,1,.66.06.47.47,0,0,1-.06.66c-.94.78-1.89,1.61-2.81,2.46A.47.47,0,0,1,502.4,141.11ZM127,140.78a.42.42,0,0,1-.26-.08.46.46,0,0,1-.13-.65c.7-1,1.38-2.08,2.06-3.13a.46.46,0,0,1,.64-.14.47.47,0,0,1,.15.65q-1,1.59-2.07,3.15A.47.47,0,0,1,127,140.78Zm202.53-1.18a.47.47,0,0,1-.46-.37l-.8-3.68a.47.47,0,0,1,.36-.55.46.46,0,0,1,.56.36L330,139a.48.48,0,0,1-.36.56Zm265.51-.71a.5.5,0,0,1-.3-.11c-1-.8-1.93-1.58-2.91-2.33a.47.47,0,0,1-.09-.66.48.48,0,0,1,.66-.09c1,.76,2,1.55,3,2.36a.47.47,0,0,1-.31.83Zm-86.88-2.58a.47.47,0,0,1-.28-.85c1-.71,1.94-1.41,2.91-2.06l.18-.12a.47.47,0,0,1,.65.13.48.48,0,0,1-.13.65l-.17.12c-1,.64-1.93,1.33-2.88,2A.42.42,0,0,1,508.17,136.31Zm-377.12-1.86a.44.44,0,0,1-.24-.07.47.47,0,0,1-.16-.64c.64-1.07,1.27-2.15,1.89-3.23a.45.45,0,0,1,.63-.18.46.46,0,0,1,.18.64c-.62,1.09-1.25,2.18-1.9,3.25A.45.45,0,0,1,131.05,134.45Zm458-.11a.42.42,0,0,1-.26-.08c-1-.71-2.08-1.39-3.13-2a.46.46,0,0,1-.15-.64.46.46,0,0,1,.64-.16c1.07.66,2.13,1.35,3.17,2.07a.47.47,0,0,1,.12.65A.47.47,0,0,1,589.08,134.34Zm-261.14-2.09a.46.46,0,0,1-.46-.36c-.27-1.22-.55-2.44-.83-3.66a.47.47,0,1,1,.91-.21q.44,1.83.84,3.66a.46.46,0,0,1-.36.56Zm186.48-.11a.48.48,0,0,1-.41-.23.47.47,0,0,1,.17-.64c1.08-.64,2.2-1.25,3.31-1.83a.47.47,0,1,1,.43.83c-1.1.57-2.2,1.18-3.26,1.81A.53.53,0,0,1,514.42,132.14Zm68.27-1.74a.46.46,0,0,1-.22-.06c-1.1-.6-2.22-1.17-3.33-1.7a.47.47,0,0,1-.22-.62.48.48,0,0,1,.63-.23c1.12.54,2.26,1.12,3.37,1.73a.47.47,0,0,1,.18.64A.46.46,0,0,1,582.69,130.4Zm-61.61-1.71a.46.46,0,0,1-.42-.28.47.47,0,0,1,.23-.62c1.14-.51,2.31-1,3.49-1.46a.47.47,0,1,1,.34.87c-1.16.46-2.32.94-3.44,1.45A.45.45,0,0,1,521.08,128.69Zm-386.34-.78a.54.54,0,0,1-.21,0,.48.48,0,0,1-.2-.64c.58-1.1,1.15-2.21,1.7-3.33a.48.48,0,0,1,.63-.22.47.47,0,0,1,.21.63q-.83,1.7-1.71,3.36A.47.47,0,0,1,134.74,127.91Zm441.17-.75a.47.47,0,0,1-.17,0c-1.16-.48-2.34-.92-3.49-1.31a.47.47,0,0,1-.3-.59.47.47,0,0,1,.6-.3c1.17.4,2.36.85,3.54,1.33a.47.47,0,0,1,.26.61A.48.48,0,0,1,575.91,127.16ZM528.08,126a.47.47,0,0,1-.14-.92c1.18-.39,2.4-.76,3.62-1.09a.47.47,0,0,1,.57.33.47.47,0,0,1-.33.58c-1.2.33-2.4.69-3.57,1.07Zm-201.87-1a.46.46,0,0,1-.45-.35c-.31-1.21-.63-2.42-1-3.61a.46.46,0,0,1,.32-.58.47.47,0,0,1,.58.32c.34,1.21.67,2.42,1,3.64a.47.47,0,0,1-.34.57Zm242.59-.19a.25.25,0,0,1-.12,0c-1.19-.32-2.41-.62-3.62-.88a.46.46,0,0,1-.36-.56.47.47,0,0,1,.55-.36c1.24.27,2.47.57,3.68.9a.47.47,0,0,1,.33.58A.48.48,0,0,1,568.8,124.75ZM535.33,124a.47.47,0,0,1-.46-.37.48.48,0,0,1,.36-.56c1.23-.26,2.48-.5,3.71-.7a.46.46,0,0,1,.54.39.46.46,0,0,1-.38.53c-1.23.2-2.46.44-3.67.7Zm26.13-.81h-.07c-1.22-.19-2.46-.35-3.7-.47a.47.47,0,0,1-.42-.52.49.49,0,0,1,.51-.42c1.26.13,2.52.29,3.75.48a.47.47,0,0,1,.39.54A.46.46,0,0,1,561.46,123.18Zm-18.72-.4a.47.47,0,0,1,0-.94c1.25-.13,2.51-.24,3.77-.32a.46.46,0,0,1,.49.45.46.46,0,0,1-.44.49c-1.24.07-2.49.18-3.72.32Zm11.25-.36c-1.12,0-2.24-.08-3.34-.08h-.41a.46.46,0,0,1-.47-.46.47.47,0,0,1,.46-.48h.42c1.11,0,2.25,0,3.36.08a.47.47,0,0,1,.45.49A.47.47,0,0,1,554,122.42Zm-415.93-1.25a.43.43,0,0,1-.19,0,.48.48,0,0,1-.24-.62c.52-1.14,1-2.28,1.5-3.43a.47.47,0,0,1,.62-.25.46.46,0,0,1,.25.61c-.49,1.16-1,2.31-1.51,3.46A.47.47,0,0,1,138.06,121.17Zm186.09-3.45a.46.46,0,0,1-.44-.32c-.39-1.22-.8-2.41-1.21-3.54a.46.46,0,0,1,.28-.6.47.47,0,0,1,.6.28c.42,1.14.83,2.34,1.22,3.57a.47.47,0,0,1-.3.59A.39.39,0,0,1,324.15,117.72ZM141,114.25a.35.35,0,0,1-.17,0,.47.47,0,0,1-.27-.6q.67-1.76,1.29-3.51a.46.46,0,1,1,.88.3q-.62,1.78-1.29,3.54A.47.47,0,0,1,141,114.25Zm180.59-3.57a.46.46,0,0,1-.43-.29c-.5-1.16-1-2.3-1.55-3.39a.47.47,0,1,1,.84-.41c.54,1.1,1.07,2.25,1.57,3.44a.46.46,0,0,1-.25.61A.39.39,0,0,1,321.56,110.68Zm-178.12-3.53a.32.32,0,0,1-.14,0,.47.47,0,0,1-.31-.59c.37-1.19.72-2.38,1-3.59a.47.47,0,0,1,.58-.32.46.46,0,0,1,.33.57c-.34,1.21-.69,2.42-1.07,3.62A.46.46,0,0,1,143.44,107.15Zm174.8-3.2a.49.49,0,0,1-.41-.24c-.61-1.07-1.27-2.13-1.95-3.17a.46.46,0,0,1,.13-.65.47.47,0,0,1,.65.14c.69,1,1.36,2.13,2,3.22a.47.47,0,0,1-.41.7Zm-172.81-4h-.11a.47.47,0,0,1-.34-.57c.29-1.21.56-2.43.81-3.65a.47.47,0,0,1,.92.19c-.25,1.23-.53,2.46-.82,3.68A.46.46,0,0,1,145.43,99.91ZM314.09,97.7a.5.5,0,0,1-.38-.19c-.74-1-1.53-2-2.34-2.88a.47.47,0,0,1,0-.66.46.46,0,0,1,.66,0c.83.95,1.63,1.94,2.39,2.93a.47.47,0,0,1-.09.66A.42.42,0,0,1,314.09,97.7ZM146.94,92.55h-.08a.48.48,0,0,1-.38-.54c.21-1.23.4-2.47.57-3.7a.46.46,0,0,1,.52-.4.47.47,0,0,1,.41.52c-.17,1.25-.36,2.49-.57,3.73A.47.47,0,0,1,146.94,92.55ZM309.17,92a.47.47,0,0,1-.33-.14c-.86-.88-1.77-1.75-2.69-2.58a.47.47,0,0,1,0-.67.48.48,0,0,1,.67,0c.93.85,1.85,1.73,2.73,2.62a.46.46,0,0,1,0,.66A.47.47,0,0,1,309.17,92Zm-5.57-5a.45.45,0,0,1-.29-.1c-1-.77-2-1.53-3-2.26a.47.47,0,1,1,.54-.76c1,.73,2,1.5,3,2.29a.47.47,0,0,1,.07.66A.48.48,0,0,1,303.6,87ZM148,85.11a.49.49,0,0,1-.47-.52c.13-1.24.23-2.48.31-3.72a.47.47,0,1,1,.94.06c-.08,1.25-.19,2.51-.31,3.76A.48.48,0,0,1,148,85.11ZM297.5,82.62a.46.46,0,0,1-.25-.08c-1-.66-2.11-1.31-3.2-1.94a.47.47,0,1,1,.47-.81c1.1.63,2.19,1.29,3.24,2a.47.47,0,0,1-.26.87ZM291,78.87a.54.54,0,0,1-.21-.05c-1.09-.56-2.22-1.11-3.36-1.64a.46.46,0,0,1-.23-.62.47.47,0,0,1,.62-.23c1.15.53,2.29,1.08,3.4,1.65a.47.47,0,0,1,.2.63A.45.45,0,0,1,291,78.87Zm-140.87-.05c-1.12,0-2.22,0-3.28-.08a.47.47,0,0,1,0-.94c1,.06,2.13.08,3.23.08h.5a.47.47,0,0,1,.47.47.46.46,0,0,1-.46.47Zm4.26-.11a.47.47,0,0,1-.47-.45.46.46,0,0,1,.44-.49c1.25-.07,2.49-.15,3.73-.26a.46.46,0,0,1,.51.43.48.48,0,0,1-.43.51c-1.25.1-2.5.19-3.76.26Zm-11.25-.28h-.06c-1.28-.15-2.54-.36-3.75-.61a.47.47,0,0,1,.2-.92c1.17.25,2.41.45,3.66.6a.47.47,0,0,1,0,.94Zm18.8-.35a.51.51,0,0,1-.5-.42.43.43,0,0,1,.38-.51l3.73-.43a.46.46,0,0,1,.52.41.46.46,0,0,1-.41.52c-1.22.15-2.45.29-3.67.42Zm-13.48-.46a.48.48,0,0,1-.47-.49c0-1,.05-2.08.05-3.12v-.62a.45.45,0,0,1,.46-.47.48.48,0,0,1,.48.47V74c0,1,0,2.1-.05,3.15A.47.47,0,0,1,148.44,77.62Zm20.87-.44a.48.48,0,0,1-.47-.4.47.47,0,0,1,.41-.53l3.71-.51a.47.47,0,0,1,.54.39.47.47,0,0,1-.4.53l-3.73.52Zm-33.54-.3a.36.36,0,0,1-.14,0c-.53-.16-1-.34-1.58-.53s-1.33-.51-2-.8a.47.47,0,0,1-.24-.62.46.46,0,0,1,.62-.24c.63.28,1.28.54,1.92.78s1,.36,1.54.52a.47.47,0,0,1-.14.91Zm41-.76a.47.47,0,0,1-.07-.93l3.71-.57a.47.47,0,0,1,.14.92l-3.71.58Zm107.4-.39a.57.57,0,0,1-.18,0c-1.14-.47-2.31-.92-3.49-1.34a.47.47,0,0,1-.28-.6.48.48,0,0,1,.6-.29c1.19.43,2.38.89,3.53,1.36a.47.47,0,0,1,.26.61A.48.48,0,0,1,284.15,75.73Zm-100-.77a.47.47,0,0,1-.08-.94l3.71-.6a.47.47,0,0,1,.54.38.47.47,0,0,1-.39.54l-3.71.61Zm-55.24-1.13a.55.55,0,0,1-.24-.07,30.17,30.17,0,0,1-3.13-2.19.47.47,0,1,1,.59-.73,28.2,28.2,0,0,0,3,2.11.48.48,0,0,1-.25.88Zm62.65-.1a.45.45,0,0,1-.46-.39.47.47,0,0,1,.38-.54l3.71-.61a.47.47,0,0,1,.54.38.47.47,0,0,1-.39.54l-3.7.62Zm85.5-.55-.14,0c-1.17-.37-2.38-.73-3.59-1.06a.47.47,0,0,1-.32-.58.48.48,0,0,1,.58-.33c1.21.34,2.43.7,3.62,1.08a.47.47,0,0,1-.15.92ZM199,72.51a.47.47,0,0,1-.07-.93l3.71-.6a.47.47,0,0,1,.15.93l-3.71.59Zm7.42-1.17a.47.47,0,0,1-.07-.94l3.72-.55a.46.46,0,0,1,.53.4.47.47,0,0,1-.39.53l-3.72.55Zm63.43-.18h-.11c-1.21-.29-2.43-.56-3.65-.81a.47.47,0,0,1-.37-.55.48.48,0,0,1,.56-.37c1.23.25,2.46.53,3.68.82a.47.47,0,0,1-.11.92Zm-56-.89a.47.47,0,0,1-.46-.41.46.46,0,0,1,.4-.53c1.24-.17,2.48-.33,3.73-.48a.46.46,0,0,1,.52.41.47.47,0,0,1-.41.52q-1.86.23-3.72.48Zm-65.44-.17a.46.46,0,0,1-.47-.45c0-1.19-.08-2.44-.15-3.75a.47.47,0,0,1,.45-.49.44.44,0,0,1,.49.44c.07,1.32.11,2.58.14,3.77a.46.46,0,0,1-.45.48Zm114.07-.43h-.08c-1.23-.2-2.46-.39-3.7-.55a.48.48,0,0,1-.4-.53.46.46,0,0,1,.53-.4c1.24.16,2.49.35,3.73.56a.47.47,0,0,1-.08.93Zm-41.17-.32a.47.47,0,0,1-.05-.94L225,68a.46.46,0,0,1,.51.42.47.47,0,0,1-.42.52c-1.24.11-2.49.24-3.73.38Zm-98.22-.21a.45.45,0,0,1-.34-.15A24.86,24.86,0,0,1,120.32,66a.49.49,0,0,1,.12-.66.47.47,0,0,1,.65.12,25.81,25.81,0,0,0,2.34,2.85.46.46,0,0,1,0,.66A.45.45,0,0,1,123.09,69.14Zm132-.46c-1.29-.13-2.54-.24-3.78-.32a.47.47,0,0,1,.07-.94c1.25.09,2.5.19,3.75.32a.47.47,0,0,1,0,.94Zm-26.25,0a.47.47,0,0,1-.47-.44.46.46,0,0,1,.43-.5c1.25-.1,2.5-.18,3.76-.26a.46.46,0,0,1,.49.44.47.47,0,0,1-.44.5C231.32,68.46,228.8,68.65,228.79,68.65Zm7.5-.44a.47.47,0,0,1,0-.94c1.25,0,2.51-.08,3.76-.1a.45.45,0,0,1,.48.46.46.46,0,0,1-.46.47C238.8,68.12,236.29,68.21,236.29,68.21Zm11.26,0c-.48,0-3-.08-3.76-.08a.47.47,0,0,1,0-.94c.79,0,3.3.06,3.76.08a.47.47,0,0,1,0,.94ZM118.83,63a.47.47,0,0,1-.43-.27,20.26,20.26,0,0,1-1.3-3.61.47.47,0,0,1,.34-.57.48.48,0,0,1,.57.34,19,19,0,0,0,1.24,3.45A.46.46,0,0,1,119,63,.43.43,0,0,1,118.83,63Zm29.17-.4a.46.46,0,0,1-.46-.43c-.12-1.29-.26-2.54-.42-3.71a.47.47,0,1,1,.93-.13c.17,1.18.31,2.45.42,3.76a.46.46,0,0,1-.42.51Zm-31-6.83a.47.47,0,0,1-.47-.45c0-.19,0-.38,0-.56a15.42,15.42,0,0,1,.36-3.29.47.47,0,1,1,.91.2,14.83,14.83,0,0,0-.33,3.09c0,.17,0,.35,0,.52a.47.47,0,0,1-.45.49Zm29.94-.61a.47.47,0,0,1-.46-.37c-.27-1.27-.59-2.48-.94-3.59a.46.46,0,0,1,.3-.59.47.47,0,0,1,.59.31c.36,1.14.69,2.38,1,3.68a.47.47,0,0,1-.36.55Zm-28.41-6.67a.45.45,0,0,1-.19,0,.46.46,0,0,1-.23-.62,18.11,18.11,0,0,1,2-3.3.48.48,0,0,1,.66-.1.47.47,0,0,1,.09.66A17.74,17.74,0,0,0,119,48.2.47.47,0,0,1,118.53,48.48ZM144.62,48a.46.46,0,0,1-.42-.27,20.28,20.28,0,0,0-1.86-3.15.48.48,0,0,1,.1-.66.49.49,0,0,1,.66.1A20.73,20.73,0,0,1,145,47.35a.47.47,0,0,1-.22.63A.45.45,0,0,1,144.62,48ZM123,42.51a.44.44,0,0,1-.35-.16.46.46,0,0,1,0-.66,16.15,16.15,0,0,1,3.19-2.16.47.47,0,1,1,.43.83,15.5,15.5,0,0,0-3,2A.45.45,0,0,1,123,42.51Zm17.16-.45a.46.46,0,0,1-.3-.11,13,13,0,0,0-3.07-1.89.47.47,0,0,1-.25-.62.49.49,0,0,1,.62-.24,13.83,13.83,0,0,1,3.3,2,.47.47,0,0,1-.3.83Zm-10.52-2.87a.47.47,0,0,1-.09-.93,12.41,12.41,0,0,1,3.89-.11.47.47,0,0,1-.12.93,11.4,11.4,0,0,0-3.59.1Z" style="fill:#d0def2"/><path d="M219.33,295.05l-39-1.66a26,26,0,0,1,.63-4c.95-4.18,2.65-8,3.81-12.23,1.51-5.59-1.87-16.64-3.49-21.94s-.47-13.24-.47-13.24c1.29-1.52,9.4-3.52,12.29-4.61a2.81,2.81,0,0,0,1-.51c.46-.57.5-3.21.46-4.89,0-.83,0-1.43,0-1.43l.51-.43,8.52,1.32a7.44,7.44,0,0,0,.06,3,2.32,2.32,0,0,0,1.2,1.59,6.9,6.9,0,0,0,1.52.45l.12,0a27.68,27.68,0,0,0,4,.37c.89,0,1.52,0,1.52,0a44.48,44.48,0,0,1,4.4,9.68c.47,1.42.91,3,1.28,4.65,1.44,6.53,1.68,28.48,1.71,38.65C219.34,293,219.33,295.05,219.33,295.05Z" style="fill:#f5a784"/><path d="M200.31,408.49c-1.25.86-12.72,0-12.83-.76s-.28-1.62-.37-2.31a1.13,1.13,0,0,1,0-.18c0-5.61-1.44-18.82-1.44-18.82s6-3.93,8.31-.74c0,0-2.92,18.34-.18,19.68l.39.17a22.06,22.06,0,0,0,6,1.69S201.55,407.62,200.31,408.49Z" style="fill:#f5a784"/><path d="M200.31,408.49c-1.25.86-12.72,0-12.83-.76s-.28-1.62-.37-2.31l0-.18a22.76,22.76,0,0,0,7.08.29,22.06,22.06,0,0,0,6,1.69S201.55,407.62,200.31,408.49Z" style="fill:#05004a"/><path d="M217,401.68c-1.52,0-10.6-7-10.24-7.77s.68-1.5,1-2.12c0-.06,0-.12.07-.17,3.13-4.66,6.83-20.37,6.83-20.37s7.72.57,7.86,4.5c0,0-10.73,17.06-9.19,19.69a3.9,3.9,0,0,0,.22.36,21.76,21.76,0,0,0,4,4.72S218.51,401.66,217,401.68Z" style="fill:#f5a784"/><path d="M217,401.68c-1.52,0-10.6-7-10.24-7.77s.68-1.5,1-2.12a1.22,1.22,0,0,0,.07-.17,22.76,22.76,0,0,0,5.72,4.18,21.76,21.76,0,0,0,4,4.72S218.51,401.66,217,401.68Z" style="fill:#05004a"/><path d="M215.52,390.34c-.89,1.29-6.86-1.54-6.21-4,8.31-31.77,13.49-36.13,13.49-36.13a3.38,3.38,0,0,0-.17-3.48C212.7,332,202.9,313.17,202.9,313.17c.2,7.5-2.65,34.76-3.29,42.26s-5.13,42.52-6,42.95c-5,2.61-8,0-8,0s-4.42-19-2.85-29.5-1.24-25.3-2.46-39.44a219.19,219.19,0,0,1-.93-29.33c.57-10.94,2.35-13.68,2.35-13.68,11.28,2.59,26.44,2.35,33.57,2.05,2.5-.1,4-.21,4-.21l1.46,3.93c4.49,12.07,17.77,48.2,18.55,54.76C240.27,354.85,215.52,390.34,215.52,390.34Z" style="fill:#39c"/><path d="M220.17,290.52l-4.85-2c-7.13.3-22.29.54-33.57-2.05,0,0-1.78,2.74-2.35,13.68,8.42.46,28.83.55,41.39-7.91Z" style="fill:#2c88b5"/><path d="M248.92,198.4s-.09-3.24.83-5c1.23-2.31,11.19-2,11.19-2a2,2,0,0,1-1.48,3.33c-5.13,1.14-4.72,5.62-4.72,5.62S248.69,200.1,248.92,198.4Z" style="fill:#f5a784"/><path d="M203.59,234.36c-6.2,1.68-8.07-.26-9.05-2.43,0-.83,0-1.43,0-1.43l.51-.43,8.52,1.32A7.44,7.44,0,0,0,203.59,234.36Z" style="fill:#e0855c"/><path d="M204,225.24c3.94-1.8,2.06-6.67,1.57-9.88a7.67,7.67,0,0,0-1-3.33,5.26,5.26,0,0,0-3.66-2,6.36,6.36,0,0,0-4.65,1.19c-1.13.93-1.58,2.46-2.56,3.52-1.63,1.76-4.57,2.21-5.61,4.38a5.38,5.38,0,0,0-.36,2.64c.26,3.5,2.32,7,6.26,6.81a28.9,28.9,0,0,0,7.24-1.6,6.06,6.06,0,0,0,1.55-.65C203.39,225.91,203.22,225.59,204,225.24Z" style="fill:#05004a"/><path d="M205.35,221.39a1.73,1.73,0,0,1,2.76-.49c1.68,1.4-.1,5-1.87,5.46A39.86,39.86,0,0,1,205.35,221.39Z" style="fill:#e0855c"/><path d="M204,216.58c1.09.79,1.91,4,2.41,6.33,1.52,7.12-.22,9.74-3.8,10.8s-7.67.34-9.66-6.16c-1-3.25-2-6.24-1-7.9C193.34,217.19,200.65,214.17,204,216.58Z" style="fill:#f5a784"/><path d="M193.28,226.5s-1.66-2.77-3.14-.88,1.71,5.7,4.36,4.88C194.5,230.5,194.32,227.36,193.28,226.5Z" style="fill:#f5a784"/><path d="M191.21,226.82a2.61,2.61,0,0,1,1.2.51,3.07,3.07,0,0,1,1,.86c.07.11-.09.22-.18.16-.27-.18-.5-.4-.76-.59a1.33,1.33,0,0,1-.44.5c-.15.09-.31-.09-.26-.23a1.3,1.3,0,0,1,.35-.49,7.33,7.33,0,0,1-1-.49A.13.13,0,0,1,191.21,226.82Z" style="fill:#e0855c"/><path d="M203,222.84s.66.12.37-1-.68-.76-.68-.76-.43.08-.21.93S203,222.84,203,222.84Z" style="fill:#05004a"/><path d="M197,224.44s.66.12.37-1-.68-.76-.68-.76-.43.08-.21.93S197,224.44,197,224.44Z" style="fill:#05004a"/><path d="M200.94,226.73c.3-.1,1.06,0,1.14-.41a9.08,9.08,0,0,0-.85-2.15,29.64,29.64,0,0,1-1.26-2.83c0-.05.07-.1.11-.05a36.09,36.09,0,0,1,2.41,5.15.16.16,0,0,1-.11.22c-.47.08-.9.26-1.35.34C200.87,227,200.78,226.79,200.94,226.73Z" style="fill:#e0855c"/><path d="M201.69,219.64c.4-.31,1.22-.52,1.63-.12a.14.14,0,0,1-.08.23c-.22,0-.44,0-.66,0a1.83,1.83,0,0,0-.68.23C201.71,220.06,201.51,219.77,201.69,219.64Z" style="fill:#05004a"/><path d="M195.52,221.82c.14-.68,1.23-.93,1.77-.63a.18.18,0,0,1,0,.31,4.73,4.73,0,0,1-.85.16,2.82,2.82,0,0,0-.64.34A.18.18,0,0,1,195.52,221.82Z" style="fill:#05004a"/><path d="M204.11,227.76a4.43,4.43,0,0,1-4.4,1.28s.61,1.39,2.78,1C203.92,229.71,204.11,227.76,204.11,227.76Z" style="fill:#fff"/><path d="M182.44,250.76a20.4,20.4,0,0,1-3-2.42c-11-10.69-17.82-36.69-17.71-40,.15-4.65,1.45-11,2.73-16.32.18-.74.35-1.46.53-2.15.49-1.92.95-3.62,1.33-4.95.5-1.83.85-2.94.85-2.94s4.46-3.12,5.84.21c0,0-.56,3.29-.69,4.73-.08.94-.42,4.72-.47,5.38-.55,6.3-1.18,14.5-1,16.7.21,2.8,10.42,20.59,21,27.79l.18.13C193.93,238.18,198,261.06,182.44,250.76Z" style="fill:#f5a784"/><path d="M167.8,184.33s-.6-1.64-1.56-3.59-3.11-6.22-3-7.81a4,4,0,0,1,.32-.7,1.63,1.63,0,0,1,.11-.17,4,4,0,0,1,1-1.09l.12-.08a3.77,3.77,0,0,1,1.28-.57l.13,0a4.94,4.94,0,0,1,1.33-.14s2.08,4.39,3.27,5.52c0,0-.56-2.94.17-3.54l.63-.09s1,3.1,1.52,4.45a9,9,0,0,1-.25,6.63S169.9,185.77,167.8,184.33Z" style="fill:#f5a784"/><path d="M166.08,170.32l.13,0a50.28,50.28,0,0,0,2.91,5.83s0,.08-.06.05A15.73,15.73,0,0,1,166.08,170.32Z" style="fill:#e0855c"/><path d="M164.68,171l.12-.08a50.33,50.33,0,0,0,2.9,5.84s0,.08-.06,0A15.74,15.74,0,0,1,164.68,171Z" style="fill:#e0855c"/><path d="M163.53,172.23a1,1,0,0,1,.11-.17,55.65,55.65,0,0,0,2.77,5.51s0,.07,0,0A14,14,0,0,1,163.53,172.23Z" style="fill:#e0855c"/><path d="M255.94,199.42c-.42,4.31-6.24,22.78-10.48,31.76-1.2,2.53-13.38,10.08-21.28,14.86l-6.66,4.05a4.36,4.36,0,0,1,.15.87c0,.1,0,.17,0,.19,1.35,6.12,2.57,25.82,2.74,36.63,0,.72,0,1.4,0,2a48.64,48.64,0,0,1-40-.76c.94-4.18,3.29-7.67,4.44-11.93,1.51-5.58-2.6-20.6-6.29-29.08a8,8,0,0,1-.41-1.19c-10.16-11.43-16.4-35.35-16.3-38.46.16-4.65,1.45-11,2.73-16.32,2.24.12,5.05.29,7.39.28-.54,6.3-1.17,14.51-1,16.7.21,2.81,10.42,20.59,21,27.79l.18.13a1.6,1.6,0,0,1,.42.57l.58-.21c2,3.06,7,10,11.07,8.5,3-1.14,3-4.85,2.53-7.67,0-.21-.1-.41-.13-.58s0-.25-.08-.35,0-.24-.05-.33-.09-.35-.13-.5l.12,0a7.56,7.56,0,0,0,.85-.19c.58-.14,1.39-.37,2.39-.68l.05.09c2.82-.87,7.14-2.33,12.08-4.25l1.41-.56a115.05,115.05,0,0,0,12.4-5.47,294.28,294.28,0,0,0,12.83-27.11C252.58,199.56,253.84,199.07,255.94,199.42Z" style="fill:#05004a"/><path d="M217.62,251.15c1.35,6.12,2.57,25.82,2.74,36.63-4-1.7-11.58-4.36-11.58-18.61,0-19.24-.74-29-1.5-32.93.58-.14,1.39-.37,2.39-.68l.05.09c2.82-.87,7.14-2.33,12.08-4.25L224.18,246l-6.66,4.05a4.36,4.36,0,0,1,.15.87C217.67,251.06,217.65,251.13,217.62,251.15Z" style="fill:#040038"/><path d="M87.16,302.65a16,16,0,0,1-3.21,3c-1.57,1.23-5.32,3.47-5.88,4.82a3,3,0,0,0,0,.69,1.23,1.23,0,0,0,0,.19,3.67,3.67,0,0,0,.42,1.31l.07.11a3.67,3.67,0,0,0,.83,1l.09.07a5,5,0,0,0,1,.64s3.46-2.77,4.88-3.23c0,0-1.63,2.19-1.27,3l.49.33s2-2.16,3-3a9.57,9.57,0,0,0,2.82-5.38S89.45,302.3,87.16,302.65Z" style="fill:#f5a784"/><path d="M79.39,313.75l.09.07a44,44,0,0,1,4.71-3.63s0-.08,0-.07A14.25,14.25,0,0,0,79.39,313.75Z" style="fill:#e0855c"/><path d="M78.49,312.66l.07.11a43.86,43.86,0,0,1,4.7-3.63s0-.08,0-.06A14.19,14.19,0,0,0,78.49,312.66Z" style="fill:#e0855c"/><path d="M78.05,311.16a1.23,1.23,0,0,0,0,.19,50.25,50.25,0,0,1,4.47-3.42s0-.07,0-.06A13,13,0,0,0,78.05,311.16Z" style="fill:#e0855c"/><path d="M116.52,243.2s-3.76-1.22-7.58,6.64-6.33,24.62-9,30.91S85.13,305.8,85.13,305.8l3.58,2.43s14.2-17.31,18.13-25S128.68,241.68,116.52,243.2Z" style="fill:#f5a784"/><path d="M162.73,336.36C161.47,341.76,155,353,149,362.47c-5.48,8.75-10.51,16.09-10.61,16.23a29.6,29.6,0,0,0-3,5.79,4.31,4.31,0,0,0,.51,2.2,12.47,12.47,0,0,0,3,4.53s1,1.39-.74,1.24-9-7.37-8.49-8.15,1-1.59,1.35-2.28a35.41,35.41,0,0,0,2-4s.38-1.06,1.07-2.85c0,0,1.64-7.45,4.55-16.16,2.57-7.71,6.14-16.41,10.43-21.79,0,0-8.87-9.48-18.16-20.11-6-6.93-12.28-14.35-16.32-19.95-2.19-3-3.45-6-1.17-8.74,1.13-1.37,3.16-2.66,6.41-3.86,9.73-3.59,14.34-5.53,14.34-5.53S165.16,326,162.73,336.36Z" style="fill:#f5a784"/><path d="M130.92,317.12c0,.26-.1.51-.14.73-1.21,6.13-12.85,35.88-14.41,40.39-.71,2.05-4,10.72-7.38,19.78-4.07,10.88-8.32,22.33-8.49,23.54a4.43,4.43,0,0,0,.84,2.1,12.46,12.46,0,0,0,3.69,4s1.17,1.22-.54,1.34-10-5.89-9.65-6.73.71-1.72,1-2.46a32.25,32.25,0,0,0,1.33-4.26s.21-1.08.6-2.92c0,0,.79-7.34,2-15.83s2.82-18.1,4.47-22.73c1.4-3.94,4-6.07,4.86-16.32s0-46.93,0-46.93c0-.75.87-1.95,4.35-2.39a40,40,0,0,1,9.8.3C134.69,290.18,132.21,310.18,130.92,317.12Z" style="fill:#f5a784"/><path d="M110.37,228.88a8.4,8.4,0,0,0,2.61,4.67,10.3,10.3,0,0,0,7.21,2.08c2.9-.2,6-1,7.73-3.46,1.92-2.75,3.91-5.6,3.68-9.13a8.56,8.56,0,0,0-3.72-6.31c-2.5-1.76-4.95-3.47-8.12-2a8.29,8.29,0,0,0,1-4.64,5.21,5.21,0,0,0-2.42-4,5,5,0,0,0-5.56.68,6.68,6.68,0,0,0-2.13,5.37c.11,2.07,1.54,4.64,3.88,4.61C110.7,218.69,109.33,224.4,110.37,228.88Z" style="fill:#05004a"/><path d="M109.08,290.82l28.21,3.1a159,159,0,0,0-3.67-22.9c-2-8.21-.12-8.81,0-11.41S129,252.39,127.37,249c-1.32-2.72-2.67-5-2.71-8.26a13.29,13.29,0,0,1,.19-2.51s-4.74-6.35-7.19-2.46a5.28,5.28,0,0,0-.1,1.17c-.09,1.6-.29,4.35-1.58,5.35,0,0-6.21,3.49-5.28,12.17s5.61,17.23,3.9,20.7S109.08,281.44,109.08,290.82Z" style="fill:#f5a784"/><path d="M117.56,237a9.45,9.45,0,0,0,7.1,3.8,13.29,13.29,0,0,1,.19-2.51s-4.74-6.35-7.19-2.46A5.28,5.28,0,0,0,117.56,237Z" style="fill:#e0855c"/><path d="M129.7,384.31c-.48.78,6.77,8,8.49,8.15s.74-1.24.74-1.24a12.47,12.47,0,0,1-3-4.53,14.45,14.45,0,0,1-4.86-4.66C130.67,382.71,130.22,383.48,129.7,384.31Z" style="fill:#05004a"/><path d="M94.84,402.27c-.36.84,7.93,6.84,9.65,6.73s.54-1.34.54-1.34a12.45,12.45,0,0,1-3.69-4,14.59,14.59,0,0,1-5.52-3.85C95.55,400.54,95.22,401.37,94.84,402.27Z" style="fill:#05004a"/><path d="M128.64,224.24c.74,1,1,3,1,5.3.22,7-3.14,9.52-5.42,9.52s-7.27-1-8-7.44c-.38-3.23-.36-5.94.38-7.6C118.16,220.53,125.37,219.64,128.64,224.24Z" style="fill:#f5a784"/><path d="M126.46,230s.6.22.51-.84-.51-.83-.51-.83-.42,0-.35.83S126.46,230,126.46,230Z" style="fill:#05004a"/><path d="M120.76,230.13s.6.22.51-.84-.51-.83-.51-.83-.42,0-.35.83S120.76,230.13,120.76,230.13Z" style="fill:#05004a"/><path d="M123.34,232.29c.3,0,1,.13,1.15-.19a8.72,8.72,0,0,0-.44-2.17c-.08-.31-.16-.58-.23-.85l.08-.06.19-.07c.29,1.11.49,2.27.76,3.33a.16.16,0,0,1-.15.19c-.44,0-.88.08-1.32.09C123.23,232.56,123.18,232.31,123.34,232.29Z" style="fill:#e0855c"/><path d="M125.8,226.75c.43-.22,1.24-.28,1.55.17a.13.13,0,0,1-.11.2c-.22,0-.41-.11-.62-.13a1.76,1.76,0,0,0-.68.1A.19.19,0,0,1,125.8,226.75Z" style="fill:#05004a"/><path d="M119.86,227.42c.25-.61,1.31-.67,1.77-.29a.17.17,0,0,1-.08.28,3.2,3.2,0,0,1-.82,0,2.67,2.67,0,0,0-.66.21C120,227.67,119.81,227.54,119.86,227.42Z" style="fill:#05004a"/><path d="M122.61,233.94a2.9,2.9,0,0,0,1.24.48c.39,0,.8-.17,1.17,0a.1.1,0,0,1,.06.15c-.28.41-1,.45-1.47.42a1.67,1.67,0,0,1-1.32-.68A.24.24,0,0,1,122.61,233.94Z" style="fill:#e0855c"/><path d="M123.19,222a2.2,2.2,0,0,1-.79,1.31,4,4,0,0,1-1.49.46,1.73,1.73,0,0,0-1.29.84,4.31,4.31,0,0,0-.21,1.08,2,2,0,0,1-.92,1.31c-.42.25-.95.34-1.25.73a4.61,4.61,0,0,0-.43,1c-.16.32-.52.6-.83.45a9.7,9.7,0,0,1-1.34-3.42,5.86,5.86,0,0,1,2-5.16,6.24,6.24,0,0,1,5.28-1.25C123.35,219.58,123.47,220.68,123.19,222Z" style="fill:#05004a"/><path d="M116.72,230.1s-1.09-2.89-2.81-1.36.65,5.66,3.27,5.33C117.18,234.07,117.55,231.08,116.72,230.1Z" style="fill:#f5a784"/><path d="M114.75,230.05a2.39,2.39,0,0,1,1,.68,3,3,0,0,1,.76,1c0,.12-.11.19-.19.12-.23-.21-.4-.46-.61-.68a1.42,1.42,0,0,1-.51.4c-.15.05-.27-.14-.2-.27a1.21,1.21,0,0,1,.41-.4,6.52,6.52,0,0,1-.82-.62A.12.12,0,0,1,114.75,230.05Z" style="fill:#e0855c"/><path d="M162.73,336.36C161.47,341.76,155,353,149,362.47A41.79,41.79,0,0,1,138.65,359c2.57-7.71,6.14-16.41,10.43-21.79,0,0-8.87-9.48-18.16-20.11,0,.26-.1.51-.14.73a53.92,53.92,0,0,1-1.54,5.3c-3.52,10.69-11.59,31.39-12.87,35.09-.71,2.05-4,10.72-7.38,19.78a21.35,21.35,0,0,1-9.24-1.22c1.2-8.47,2.82-18.1,4.47-22.73,1.4-3.94,4-6.07,4.86-16.32a256.23,256.23,0,0,0,.4-27.17c-.07-3-.14-5.93-.19-8.88,0-1.43,0-2.89,0-4.36a36.24,36.24,0,0,0-.23-4.8,20.93,20.93,0,0,1,4.75-15.67,1.11,1.11,0,0,1,.47-.39,1.06,1.06,0,0,1,.68,0c3.28.78,6.41,2.44,9.71,3a42.39,42.39,0,0,0,10.07.45.83.83,0,0,1,.58.11,1,1,0,0,1,.22.31c3.37,6.48,7.53,12.65,11.24,19,5.72,9.72,12,20,15.22,30.88C162.57,332.15,163.19,334.38,162.73,336.36Z" style="fill:#05004a"/><path d="M155.25,234.89s1.31-2.88,2.63-5.75c.79-1.73,3-5.29,2.9-6.69a3.81,3.81,0,0,0-.3-.6l-.1-.15a3.27,3.27,0,0,0-.93-.93l-.1-.07a3.49,3.49,0,0,0-1.14-.47l-.11,0a4.75,4.75,0,0,0-1.17-.09s-1.73,3.88-2.74,4.9c0,0,.42-2.59-.22-3.1l-.56-.06s-.78,2.73-1.24,3.92a9.18,9.18,0,0,0,0,5.83S153.45,236.2,155.25,234.89Z" style="fill:#f5a784"/><path d="M158.21,220.23l-.11,0a43.34,43.34,0,0,1-2.43,5.17s0,.07.06,0A13.7,13.7,0,0,0,158.21,220.23Z" style="fill:#e0855c"/><path d="M159.45,220.77l-.1-.07a44.89,44.89,0,0,1-2.42,5.17s0,.07,0,0A13.69,13.69,0,0,0,159.45,220.77Z" style="fill:#e0855c"/><path d="M160.48,221.85l-.1-.15a45.13,45.13,0,0,1-2.31,4.88s0,.06.05,0A12.35,12.35,0,0,0,160.48,221.85Z" style="fill:#e0855c"/><g style="clip-path:url(#clip-path)"><rect x="95.5" y="203.16" width="41.97" height="41.97" style="fill:#29aac9"/><rect x="95.5" y="245.12" width="41.97" height="41.97" style="fill:#29aac9"/><rect x="95.5" y="287.09" width="41.97" height="41.97" style="fill:#29aac9"/><rect x="137.47" y="203.16" width="41.97" height="41.97" style="fill:#29aac9"/><rect x="137.47" y="245.12" width="41.97" height="41.97" style="fill:#29aac9"/><rect x="137.47" y="287.09" width="41.97" height="41.97" style="fill:#29aac9"/></g><g style="clip-path:url(#clip-path-2)"><rect x="95.5" y="203.16" width="41.97" height="41.97" style="fill:#29aac9"/></g><path d="M136.17,260.82a27.14,27.14,0,0,0-.79,3.2c-.21,1.19-.51,2.44-.65,3.68-19.31-5-22.51-15.59-22.51-15.59l-.48-.42c-.39-2.42,17.53,4.64,24.26,7.37A15.1,15.1,0,0,1,136.17,260.82Z" style="fill:#2f92c2"/><path d="M114.32,255s-6.63-4.73-.1-10.6c4.19-3.76,21.55,13.6,29,10.6,1.06-.43,9.79-26.22,9.79-26.22l4,1.15s-3.46,27.86-8.38,32.08C144.07,265.94,130.14,266,114.32,255Z" style="fill:#f5a784"/><path d="M130.92,317.12c0,.26-.1.51-.14.73a53.92,53.92,0,0,1-1.54,5.3c-3.89-1.51-13.67-5.77-19.76-12.57-.07-3-.14-5.93-.19-8.88,0-1.43,0-2.89,0-4.36C111,300.78,116,307,130.92,317.12Z" style="fill:#040038"/><path d="M506.94,185.69H449.7c-15.35,0-63.6,2.29-68.05-2-9.92-9.49,19.42-12.06,23.44-9.23A15,15,0,0,1,416,147.3c11.61,1.77,17,15.49,26.84,21.86-2.55-5.87,3.84-12.81,10.21-12.24s11.24,6.54,12.48,12.81c3.66-2.21,7.75-4.38,12-3.75s8,5.48,5.83,9.2A126,126,0,0,1,513,178.44c2.61.6,5.7,1.83,6,4.49C519.57,187.18,511.12,186.6,506.94,185.69Z" style="fill:#d0def2"/><path d="M99.88,129.93H144.4c11.94,0,49.46,1.77,52.92-1.54,7.72-7.39-15.1-9.39-18.23-7.18a11.7,11.7,0,0,0-8.5-21.14c-9,1.37-13.2,12-20.87,17,2-4.57-3-10-7.94-9.52s-8.74,5.08-9.71,10c-2.84-1.71-6-3.4-9.32-2.92s-6.18,4.27-4.53,7.16a98.49,98.49,0,0,0-23.08,2.53c-2,.47-4.43,1.43-4.68,3.5C90.06,131.08,96.63,130.63,99.88,129.93Z" style="fill:#d0def2"/><path d="M486.2,409.28c1.29.89,13.11.05,13.23-.78s.28-1.67.38-2.38a1.13,1.13,0,0,0,0-.18c-1-7.35-2.37-18.36-2.37-18.36s-5.63-.73-8,2.56c0,0,6.31,14.54,3.48,15.92l-.4.18A22.76,22.76,0,0,1,486.4,408S484.92,408.39,486.2,409.28Z" style="fill:#f5a784"/><path d="M486.2,409.28c1.29.89,13.11.05,13.23-.78s.28-1.67.38-2.38l0-.18a23.49,23.49,0,0,1-7.3.3A22.76,22.76,0,0,1,486.4,408S484.92,408.39,486.2,409.28Z" style="fill:#011948"/><path d="M568.11,408.2c-1.28.89-13.11.05-13.23-.78s-.28-1.67-.37-2.38l0-.18c-.47-3.44-6-13.82-6-13.82s5.09-4.37,7.46-1.08c0,0,2.61,13.64,5.44,15l.39.18a22.72,22.72,0,0,0,6.15,1.74S569.4,407.31,568.11,408.2Z" style="fill:#f5a784"/><path d="M568.11,408.2c-1.28.89-13.11.05-13.23-.78s-.28-1.67-.37-2.38l0-.18a23.4,23.4,0,0,0,7.29.3,22.72,22.72,0,0,0,6.15,1.74S569.4,407.31,568.11,408.2Z" style="fill:#011948"/><path d="M568.64,392.15S556,398,546.74,393.71c0,0-.24-.43-.66-1.24-.16-.29-.32-.63-.52-1-.9-1.83-2.25-4.7-3.72-8.43-.14-.33-.27-.67-.4-1-1.18-3.05-2.42-6.62-3.57-10.61-.09-.32-.18-.65-.28-1-1-3.51-1.89-7.35-2.63-11.45-.07-.37-.14-.75-.2-1.12-.33-1.92-.62-3.88-.85-5.88,0,0-.25-1.18-2.61-5.34l-.56-1c-.86-1.47-1.94-3.26-3.31-5.43-.49-.77-1-1.62-1.55-2.53l-.67-1.15c-2.19-3.79-4.65-8.45-7-13.12l-.54-1.09c-1.23-2.53-2.41-5-3.46-7.41l-.54-1.24A62,62,0,0,1,510,303.51s-2.11,4.94-6.18,15.29c-.21.54-8.39,21.89-10.5,27.56a4,4,0,0,0-.26,1.23,3.86,3.86,0,0,0,.06,1.12,3.6,3.6,0,0,0,.23.82l16.95,43.4a43.46,43.46,0,0,1-23.09-1s-.12-.3-.32-.86c-.12-.34-.28-.76-.47-1.27-.81-2.24-2.13-6.1-3.54-10.86l-.36-1.23c-.81-2.8-1.63-5.87-2.38-9.09-.11-.47-.22-1-.32-1.44-.83-3.67-1.54-7.49-2-11.27,0-.28-.07-.56-.09-.84a81.58,81.58,0,0,1-.52-10.88s3.07-17.26,3.14-17.61c.81-4.16,1.71-8.66,2.75-13,.13-.54.26-1.09.38-1.62.81-3.42,1.67-6.74,2.55-9.72.11-.39.23-.77.34-1.14.6-2,1.23-3.82,1.85-5.4a17.79,17.79,0,0,1,3-5.45c2-2.12,6.75-2.84,12.33-2.68l1.58.07a83.09,83.09,0,0,1,16.76,2.86l1,.29c4.65,1.37,8.43,3,10.13,4.62a3.06,3.06,0,0,1,.92,1.32c.06.23,8.48,27.67,8.65,28.18,1.17,3.55,2.29,6.81,3.25,9.31.12.3.23.6.35.87,0,.09.07.18.1.26,1,2.57,2.63,7.06,4.52,12.43.1.29,8.93,24.94,9,25.25,1.39,3.7,2.75,7.15,4,10.11l.24.55C565.92,388,567.53,391.18,568.64,392.15Z" style="fill:#011948"/><path d="M536.31,304.8a26.3,26.3,0,0,1-18.33-.93c-5.76-2.44-12.19-4.57-19.68-4.17a12.86,12.86,0,0,1-10.07-4.06,17.79,17.79,0,0,1,3-5.45c2-2.12,6.75-2.84,12.33-2.68l1.58.07a83.09,83.09,0,0,1,16.76,2.86l1,.29c4.65,1.37,8.43,3,10.13,4.62a3.06,3.06,0,0,1,.92,1.32C534,296.9,534.92,300.17,536.31,304.8Z" style="fill:#040038"/><path d="M506.44,239.69c-.19,3-5,13.89-9.81,23.54-3.48,7-6.94,13.39-8.54,15.53-6.75,9-23.06,21.84-23.06,21.84s-4.34-2-3.44-6.16c0,0,15.9-18.72,18.11-22.48,1.17-2,3.65-7.36,6.14-13.07,2.28-5.17,4.56-10.6,5.9-13.9,2.47-6.07,8.82-13.84,13.05-9.77A5.77,5.77,0,0,1,506.44,239.69Z" style="fill:#f5a784"/><path d="M466.5,299s-1.45,1.46-3.05,3.46-5.09,6.44-6.83,7.15a4.78,4.78,0,0,1-.91,0l-.24,0a4.64,4.64,0,0,1-1.68-.57l-.15-.08a4.76,4.76,0,0,1-1.24-1.09,1.13,1.13,0,0,1-.1-.13,6.51,6.51,0,0,1-.81-1.34s3.65-4.43,4.27-6.26c0,0-2.87,2.07-3.88,1.59l-.41-.63s2.83-2.59,4-3.85a10.66,10.66,0,0,1,7.21-3.06S467,296.06,466.5,299Z" style="fill:#f5a784"/><path d="M452.4,307.87l-.1-.13a57.54,57.54,0,0,0,4.78-6s.1,0,.08.05A18.52,18.52,0,0,1,452.4,307.87Z" style="fill:#e0855c"/><path d="M453.79,309l-.15-.08a59.79,59.79,0,0,0,4.79-6s.1,0,.07,0A18.35,18.35,0,0,1,453.79,309Z" style="fill:#e0855c"/><path d="M455.71,309.64l-.24,0a62.92,62.92,0,0,0,4.5-5.72c0-.05.1,0,.08,0A16.72,16.72,0,0,1,455.71,309.64Z" style="fill:#e0855c"/><path d="M506.44,239.69c-.19,3-6.24,17.13-11,26.78a10.22,10.22,0,0,1-10.79-4.82c2.28-5.17,5.77-13.36,7.11-16.66,2.47-6.07,8.82-13.84,13.05-9.77A5.77,5.77,0,0,1,506.44,239.69Z" style="fill:#2c88b5"/><rect x="481.42" y="232.51" width="7.45" height="14.15" rx="1.17" transform="translate(-46.31 137.98) rotate(-15.46)" style="fill:#011948"/><path d="M536.24,297.66s-.73.22-1.91.48c-.54.11-1.2.23-1.9.34s-1.36.19-2.11.24a18.76,18.76,0,0,1-5.77-.34c-2.37-.57-4.76-1.48-7.23-2.22-.49-.15-1-.29-1.49-.42a19.88,19.88,0,0,0-7.83-.69,56.35,56.35,0,0,1-9.54.56c-.62,0-1.24-.06-1.84-.12a17.2,17.2,0,0,1-7.41-2.15,8.06,8.06,0,0,1-2.17-1.89A88,88,0,0,0,493.15,280a19.32,19.32,0,0,0,1.8-6.91s1.41-20,1.43-20.33c.1-1.45,2.44-15.39,3.61-17.72a1.5,1.5,0,0,1,.91-.69c2.26-.74,7.63.65,10.09.73,0,.1,0,.21-.05.31l0,.23c-.36,2.89.72,6.17-.34,9.57-1.39,4.51,8.56-4.78,12.35-8.68.24-.24.43-.45.62-.63l.49-.54.16-.2c8.44.84,10.72,2,10.75,2,1.17.81,1.43,2,1.25,3.74-.25,2.39-1.41,5.77-2.36,10.53-.72,3.52-1.55,7.72-2.26,12.68a53,53,0,0,0-.42,9.71A79.82,79.82,0,0,0,536.24,297.66Z" style="fill:#39c"/><path d="M511.88,251.09A154.17,154.17,0,0,1,523,236.57c.21-.24,1.13-1.36,1.19-1.42a4.75,4.75,0,0,1-1.72-.12.6.6,0,0,1-.39-.31s0,0,0,0c-.36-.85-.26-3.59-.11-5.65,0-.78.11-1.46.14-1.91,0,0,0-.07,0-.11a3.92,3.92,0,0,1,0-.46,2.53,2.53,0,0,0,0-.39,1.15,1.15,0,0,0-.06-.34c-.41-1.59-2.76-1.19-5.06-.39-1.1.4-2.2.89-3,1.3-.51.24-.93.46-1.2.6l-.41.22s0,.26.12.68c.09.58.21,1.48.28,2.43,0,.34,0,.69.06,1,0,1.5-.11,2.9-.76,3.25a2.26,2.26,0,0,1-1.06.14c0,.1,0,.21-.05.31l0,.23C510.28,239.74,509.28,255.11,511.88,251.09Z" style="fill:#f5a784"/><path d="M512.35,227.55s0,.26.12.68c.09.58.21,1.48.28,2.43,0,.34,0,.69.06,1a8.84,8.84,0,0,0,4.48.36,5.58,5.58,0,0,0,1.05-.3,8,8,0,0,0,3.59-2.73c0-.78.11-1.46.14-1.91,0,0,0-.07,0-.11a3.92,3.92,0,0,1,0-.46,2.53,2.53,0,0,0,0-.39,1.15,1.15,0,0,0-.06-.34c-.41-1.59-2.76-1.19-5.06-.39-1.1.4-2.2.89-3,1.3-.51.24-.93.46-1.2.6Z" style="fill:#e0855c"/><path d="M512.68,217.11c-.47-.24-1.34-.3-1.67.18a.14.14,0,0,0,.12.22c.23,0,.43-.13.67-.15a1.79,1.79,0,0,1,.72.12C512.74,217.54,512.88,217.21,512.68,217.11Z" style="fill:#3b2645"/><path d="M519.51,217.67c-.26-.65-1.42-.72-1.91-.31a.19.19,0,0,0,.08.31,4.41,4.41,0,0,0,.89,0,2.92,2.92,0,0,1,.71.22A.19.19,0,0,0,519.51,217.67Z" style="fill:#3b2645"/><path d="M509,220.58a5.17,5.17,0,0,1-1-2.62c-.13-1.42.12-2.85,0-4.27-.22-2-1.22-4.19-.27-6a3.19,3.19,0,0,1,4.19-1.27c1.06.57,1.94,1.79,3.12,1.58a6.08,6.08,0,0,0,1.55-.82,2.81,2.81,0,0,1,2.88.24c1,.75,1.42,2.12,2.46,2.84s2.11.62,3,1.2a3.82,3.82,0,0,1,1.57,2.56c.44,2.4-.4,5.12-1.12,7.4-.12.35-.23,1.78-.76,1.8-.19,0-.26-.19-.33-.2l-.64,0c-3.31-.2-6.61-.43-9.91-.75-1.48-.14-2.82.24-4-.8A6.31,6.31,0,0,1,509,220.58Z" style="fill:#011948"/><path d="M509.46,220.07a1.79,1.79,0,0,0-2.89,0c-1.44,1.74,1,5.06,2.89,5.2A40.53,40.53,0,0,0,509.46,220.07Z" style="fill:#e0855c"/><path d="M508.66,221.54a26,26,0,0,0,.09,2.61,2,2,0,0,1,0,.22.39.39,0,0,1,0,.09c0,.23.13.86.14.95a8.25,8.25,0,0,0,1.37,3.48,5,5,0,0,0,2.46,1.77,7.34,7.34,0,0,0,1.75.37,9.37,9.37,0,0,0,2.81-.08,6.48,6.48,0,0,0,4.76-3.83c.1-.21.18-.38.26-.57a15,15,0,0,0,.52-1.67c.07-.32.14-.65.21-1,0-.2.06-.4.08-.61s0-.17,0-.25a.09.09,0,0,1,0,0c.09-.79.17-1.55.25-2.28.26-2.53.3-4.71-.68-5.87-1.65-1.95-8.09-2.67-11.64-.74a5.47,5.47,0,0,0-1.12.79l-.2.2a1.55,1.55,0,0,0-.23.27,4.81,4.81,0,0,0-.65,1.93c-.05.29-.09.6-.12.92s-.06.87-.09,1.32,0,.84,0,1.27v.15C508.66,221.13,508.65,221.34,508.66,221.54Z" style="fill:#f5a784"/><path d="M522.64,222s1.17-3.11,3-1.46-.7,6.34-3.53,6C522.13,226.55,521.74,223.07,522.64,222Z" style="fill:#f5a784"/><path d="M524.8,222a2.53,2.53,0,0,0-1.12.74,3.12,3.12,0,0,0-.83,1.05c-.05.12.12.2.21.12.24-.22.43-.49.66-.73a1.49,1.49,0,0,0,.54.43c.17.06.3-.15.22-.29a1.24,1.24,0,0,0-.45-.43,6.79,6.79,0,0,0,.9-.67A.13.13,0,0,0,524.8,222Z" style="fill:#e0855c"/><path d="M512,220.6s-.64.24-.55-.91.55-.89.55-.89.46,0,.39.9S512,220.6,512,220.6Z" style="fill:#011948"/><path d="M518.54,220.6s-.65.24-.55-.91.55-.89.55-.89.45,0,.38.9S518.54,220.6,518.54,220.6Z" style="fill:#011948"/><path d="M514.91,223.65c-.33-.05-1.08.15-1.24-.2a9.74,9.74,0,0,1,.48-2.34,31.32,31.32,0,0,0,.76-3.1.06.06,0,0,0-.12,0,36,36,0,0,0-1.5,5.66.16.16,0,0,0,.15.21c.48,0,.95.09,1.43.09C515,223.94,515.08,223.68,514.91,223.65Z" style="fill:#e0855c"/><path d="M512.93,225.28a7,7,0,0,0,4.17,0,3.46,3.46,0,0,1-2.36,1.54C513.25,227,512.93,225.28,512.93,225.28Z" style="fill:#fff"/><path d="M512.83,216.75c-.45-.22-1.29-.28-1.61.18a.14.14,0,0,0,.12.21c.22,0,.42-.12.64-.14a1.87,1.87,0,0,1,.7.11C512.88,217.17,513,216.85,512.83,216.75Z" style="fill:#011948"/><path d="M519.87,217.09c-.26-.64-1.36-.7-1.84-.3a.18.18,0,0,0,.08.29,3.45,3.45,0,0,0,.85,0,2.32,2.32,0,0,1,.69.22C519.77,217.35,519.92,217.21,519.87,217.09Z" style="fill:#011948"/><path d="M485.54,250.81s-1.17-1.42-2.8-3-5.27-5.11-5.74-6.74a4.11,4.11,0,0,1,.08-.8.8.8,0,0,1,.05-.21,4,4,0,0,1,.66-1.45.83.83,0,0,1,.08-.12,4.11,4.11,0,0,1,1.09-1l.12-.07a5.77,5.77,0,0,1,1.27-.6s3.6,3.65,5.18,4.37c0,0-1.58-2.74-1.07-3.59l.61-.31s2,2.76,3.06,3.9a9.54,9.54,0,0,1,2.06,6.7S488.13,251.52,485.54,250.81Z" style="fill:#f5a784"/><path d="M479,237.45l.12-.07a52,52,0,0,0,4.93,4.8s0,.09-.05.07A16.47,16.47,0,0,1,479,237.45Z" style="fill:#e0855c"/><path d="M477.79,238.58a.83.83,0,0,1,.08-.12,52.11,52.11,0,0,0,4.93,4.81s0,.09,0,.06A16.32,16.32,0,0,1,477.79,238.58Z" style="fill:#e0855c"/><path d="M477.08,240.24a.8.8,0,0,1,.05-.21,55.6,55.6,0,0,0,4.68,4.52,0,0,0,0,1-.05.07A14.83,14.83,0,0,1,477.08,240.24Z" style="fill:#e0855c"/><path d="M536.18,240.9c-.25,2.39-1.41,5.77-2.36,10.53-.72,3.52-1.55,7.72-2.26,12.68a53,53,0,0,0-.42,9.71c-1,.69-2.17,1.35-3.37,2-13.42,7.15-18.21,1.28-18.21,1.28l9.37-9.74,11.71-20.48Z" style="fill:#2c88b5"/><path d="M532.2,260a48.28,48.28,0,0,1-3.52,5.15c-7.68,9.9-16.64,13.34-20.84,11.39-6.76-3.18-18.62-19.72-21.8-24.5-1.11-1.67-1.77-2.71-1.77-2.71s2.18-3.69,5.8-2.5c0,0,.64.69,1.7,1.78,4.05,4.2,17.63,14.7,20.11,16.54.82.62,2.89-2.69,5.54-7.25,5-8.63,12-21.76,16.26-21.18C536.63,237.16,542.71,242.41,532.2,260Z" style="fill:#f5a784"/><path d="M532.2,260a48.28,48.28,0,0,1-3.52,5.15c-6.42-1.85-9.69-5.06-11.26-7.25,5-8.63,12-21.76,16.26-21.18C536.63,237.16,542.71,242.41,532.2,260Z" style="fill:#39c"/><path d="M93,219.51c5.58-3.42,9-8,9-13,0-10.6-15.29-19.2-34.15-19.2s-34.15,8.6-34.15,19.2S49,225.73,67.89,225.73a55.66,55.66,0,0,0,16.84-2.5C89,230.51,98.39,231,98.39,231,93.79,228.29,93.07,222.54,93,219.51Z" style="fill:#b0beea"/><path d="M51.24,207a2.7,2.7,0,0,1,.18-1,2.29,2.29,0,0,1,.51-.8,2.51,2.51,0,0,1,.8-.54,2.68,2.68,0,0,1,1-.19,2.71,2.71,0,0,1,1.06.19,2.51,2.51,0,0,1,.8.54,2.29,2.29,0,0,1,.51.8,2.7,2.7,0,0,1,.18,1,2.73,2.73,0,0,1-.18,1,2.53,2.53,0,0,1-.51.81,2.33,2.33,0,0,1-.8.53,2.71,2.71,0,0,1-1.06.19,2.68,2.68,0,0,1-1-.19,2.33,2.33,0,0,1-.8-.53,2.53,2.53,0,0,1-.51-.81A2.73,2.73,0,0,1,51.24,207Z" style="fill:#fff"/><path d="M65.35,207a2.7,2.7,0,0,1,.18-1,2.29,2.29,0,0,1,.51-.8,2.51,2.51,0,0,1,.8-.54,2.68,2.68,0,0,1,1-.19,2.71,2.71,0,0,1,1.06.19,2.51,2.51,0,0,1,.8.54,2.29,2.29,0,0,1,.51.8,2.7,2.7,0,0,1,.18,1,2.73,2.73,0,0,1-.18,1,2.53,2.53,0,0,1-.51.81,2.33,2.33,0,0,1-.8.53,2.71,2.71,0,0,1-1.06.19,2.68,2.68,0,0,1-1-.19,2.33,2.33,0,0,1-.8-.53,2.53,2.53,0,0,1-.51-.81A2.73,2.73,0,0,1,65.35,207Z" style="fill:#fff"/><path d="M79.46,207a2.7,2.7,0,0,1,.18-1,2.29,2.29,0,0,1,.51-.8,2.51,2.51,0,0,1,.8-.54,2.68,2.68,0,0,1,1-.19,2.71,2.71,0,0,1,1.06.19,2.4,2.4,0,0,1,.8.54,2.29,2.29,0,0,1,.51.8,2.7,2.7,0,0,1,.18,1,2.73,2.73,0,0,1-.18,1,2.53,2.53,0,0,1-.51.81,2.24,2.24,0,0,1-.8.53,2.71,2.71,0,0,1-1.06.19,2.68,2.68,0,0,1-1-.19,2.33,2.33,0,0,1-.8-.53,2.53,2.53,0,0,1-.51-.81A2.73,2.73,0,0,1,79.46,207Z" style="fill:#fff"/><path d="M233.1,285.52a14.71,14.71,0,0,1-15.81-14.66q0-3.32.1-6.39a92,92,0,0,1,2.39-18.36,67.88,67.88,0,0,1,6-16,91,91,0,0,1,10-15q4.53-5.88,8.36-11.43a79.51,79.51,0,0,0,6.45-11.1,54.83,54.83,0,0,0,3.94-11.38,42.12,42.12,0,0,0,.81-12.42Q253,138.2,233.22,139.7a16.7,16.7,0,0,0-7,2.29,19,19,0,0,0-6.27,6.1,31.52,31.52,0,0,0-4.22,10.1l0,.12a20.36,20.36,0,0,1-18.24,15.48l-12.53,1a19.8,19.8,0,0,1-21.06-23.1,71.4,71.4,0,0,1,2.23-9.06,64.25,64.25,0,0,1,13.74-24.49,63.47,63.47,0,0,1,21.9-15.41A87.53,87.53,0,0,1,229.91,96a89.14,89.14,0,0,1,30.55,2.48A59.15,59.15,0,0,1,300,132.24q6,13,7.29,30.46a67.3,67.3,0,0,1-1.66,21.9,88,88,0,0,1-7.24,18.91A128.31,128.31,0,0,1,287.36,221c-4.25,5.68-8.68,11.4-13.08,17.33a56.4,56.4,0,0,0-6,10.05,49.51,49.51,0,0,0-3.46,10.32A67.39,67.39,0,0,0,263.4,270v.12a14.74,14.74,0,0,1-13.58,14.1Zm-15.66,57.66a30.67,30.67,0,0,1,1.17-11.34,26.46,26.46,0,0,1,5-9.33,26.73,26.73,0,0,1,8.45-6.64,29.75,29.75,0,0,1,11.48-3.09,30.31,30.31,0,0,1,12,1.31,26.93,26.93,0,0,1,9.35,5.29,26.27,26.27,0,0,1,6.36,8.47,32.12,32.12,0,0,1,1.7,22.39,27.73,27.73,0,0,1-5,9.42,25.16,25.16,0,0,1-8.45,6.64,31.43,31.43,0,0,1-11.67,3A31,31,0,0,1,236,368.08a25.29,25.29,0,0,1-9.35-5.29,27.57,27.57,0,0,1-6.37-8.56A30.49,30.49,0,0,1,217.44,343.18Z" style="fill:#f5a42a"/><path d="M227.34,285.52a14.71,14.71,0,0,1-15.81-14.66q0-3.32.09-6.39A93.44,93.44,0,0,1,214,246.11a68.77,68.77,0,0,1,6-16,91.66,91.66,0,0,1,10-15q4.54-5.88,8.37-11.43a79.51,79.51,0,0,0,6.45-11.1,54.22,54.22,0,0,0,3.93-11.38,41.77,41.77,0,0,0,.82-12.42q-2.32-30.65-22.15-29.15a16.7,16.7,0,0,0-7,2.29,19.11,19.11,0,0,0-6.28,6.1,31.51,31.51,0,0,0-4.21,10.1l0,.12a20.37,20.37,0,0,1-18.25,15.48l-12.52,1a19.8,19.8,0,0,1-21.06-23.1,73.14,73.14,0,0,1,2.22-9.06,64.26,64.26,0,0,1,13.75-24.49A63.47,63.47,0,0,1,196,102.68,87.53,87.53,0,0,1,224.14,96a89.12,89.12,0,0,1,30.55,2.48,59.2,59.2,0,0,1,39.57,33.73q6,13,7.29,30.46a67.58,67.58,0,0,1-1.66,21.9,88.05,88.05,0,0,1-7.25,18.91,129.21,129.21,0,0,1-11,17.45c-4.25,5.68-8.68,11.4-13.08,17.33a55.8,55.8,0,0,0-6,10.05,49.51,49.51,0,0,0-3.46,10.32A68.41,68.41,0,0,0,257.63,270v.12a14.75,14.75,0,0,1-13.58,14.1Zm-15.66,57.66a30.26,30.26,0,0,1,1.17-11.34,26.16,26.16,0,0,1,13.46-16,29.85,29.85,0,0,1,11.49-3.09,30.28,30.28,0,0,1,12,1.31,26.88,26.88,0,0,1,9.36,5.29,26.56,26.56,0,0,1,6.36,8.47,32,32,0,0,1,1.69,22.39,27.54,27.54,0,0,1-5,9.42,25.26,25.26,0,0,1-8.45,6.64,31.43,31.43,0,0,1-11.68,3,30.9,30.9,0,0,1-11.81-1.22,25.29,25.29,0,0,1-9.35-5.29,27.41,27.41,0,0,1-6.37-8.56A30.49,30.49,0,0,1,211.68,343.18Z" style="fill:#fed32c"/><path d="M192.76,114.67c.76-1-.72-2.43-1.73-1.73-5.54,3.84-10.33,9.38-14.69,14.5-3.89,4.58-7.37,9.62-8.87,15.51-1.25,4.91-1.23,10.54,1.52,15,1.79,2.87,5.21,5.85,8.69,4.28a.45.45,0,0,0,.09-.7c-4-3.15-7-5.18-7.49-10.82-.47-5.15,1.4-10.18,4.05-14.51C179.33,128,187.13,122.26,192.76,114.67Z" style="fill:#ffe47a"/><path d="M232.93,355.24c-6.27-3.81-10.45-8.26-10.58-16.06-.12-7.63,3.68-13.56,9.51-18a.69.69,0,0,0-.53-1.25c-16.49,3.83-16.66,35.51,1,37.65C233.59,357.69,233.89,355.82,232.93,355.24Z" style="fill:#ffe47a"/><path d="M556.61,152.74a29.56,29.56,0,0,0-8.05,51,13.34,13.34,0,0,1-3.88,13.51s9-1.38,11.76-9.08a29.56,29.56,0,1,0,.17-55.4Z" style="fill:#b0beea"/><path d="M587.64,171.27H546a1,1,0,0,1,0-2h41.61a1,1,0,0,1,0,2Z" style="fill:#fff"/><path d="M587.64,178.17H546a1,1,0,0,1,0-2h41.61a1,1,0,0,1,0,2Z" style="fill:#fff"/><path d="M587.64,185.06H546a1,1,0,0,1,0-2h41.61a1,1,0,0,1,0,2Z" style="fill:#fff"/><path d="M571.27,192H546a1,1,0,0,1,0-2h25.24a1,1,0,0,1,0,2Z" style="fill:#fff"/><path d="M392.05,342.14a31.24,31.24,0,0,1,3.26-11,26.37,26.37,0,0,1,6.67-8.33,26.8,26.8,0,0,1,9.53-5,30.24,30.24,0,0,1,12-.88,29.72,29.72,0,0,1,11.37,3.48,27,27,0,0,1,8.22,6.94,26.32,26.32,0,0,1,4.67,9.59,31.2,31.2,0,0,1,.76,11.47,30.42,30.42,0,0,1-3.25,10.93,26.44,26.44,0,0,1-6.66,8.25,25.66,25.66,0,0,1-9.52,4.86,31,31,0,0,1-11.85.82,31.49,31.49,0,0,1-11.56-3.42,25.76,25.76,0,0,1-8.22-6.84,26.34,26.34,0,0,1-4.69-9.5A30.41,30.41,0,0,1,392.05,342.14Zm34.77-53.73A22.33,22.33,0,0,1,407,264.47L418,124a22.34,22.34,0,0,1,24.75-20.47l9.16,1A22.34,22.34,0,0,1,471.54,130L451.4,269.4A22.33,22.33,0,0,1,426.82,288.41Z" style="fill:#f5a42a"/><path d="M387.16,342.14a31.25,31.25,0,0,1,3.27-11,26.21,26.21,0,0,1,6.66-8.33,27,27,0,0,1,9.53-5,30.29,30.29,0,0,1,12.05-.88A29.82,29.82,0,0,1,430,320.42a27,27,0,0,1,8.21,6.94,26.32,26.32,0,0,1,4.67,9.59,31,31,0,0,1,.76,11.47,30.22,30.22,0,0,1-3.25,10.93,26.56,26.56,0,0,1-6.65,8.25,25.7,25.7,0,0,1-9.53,4.86,30.94,30.94,0,0,1-11.84.82,31.49,31.49,0,0,1-11.57-3.42,25.76,25.76,0,0,1-8.22-6.84,26.49,26.49,0,0,1-4.68-9.5A30.41,30.41,0,0,1,387.16,342.14Zm34.77-53.73a22.34,22.34,0,0,1-19.81-23.94l11-140.47a22.35,22.35,0,0,1,24.75-20.47l9.16,1A22.34,22.34,0,0,1,466.65,130L446.51,269.4A22.33,22.33,0,0,1,421.93,288.41Z" style="fill:#fed32c"/><path d="M411,361.71c-6.69-4.25-11.6-10.89-11.1-19.17s6-13,11.69-18.06c.25-.21.07-.74-.28-.69-8.64,1.12-14.29,10.68-14.84,18.75a22.48,22.48,0,0,0,13.37,21.93C411.5,365.15,412.41,362.59,411,361.71Z" style="fill:#ffe47a"/><path d="M433.62,112c-13.59,1.65-13.17,17.8-14.29,28.09q-1.38,12.85-2.78,25.71c-.94,8.81-2.55,17.83-2.35,26.71a.63.63,0,0,0,1.24.16c3.24-13.44,3.52-28,5-41.7.77-7.25,1.44-14.52,2.31-21.76.95-8,3.63-13,11.17-16.21C434.37,112.77,434.14,111.91,433.62,112Z" style="fill:#ffe47a"/><path d="M327.58,401.28a23.73,23.73,0,0,1,1,3.73c0,.2.08.41.12.64.12.68.25,1.47.37,2.34s11.72,1.63,13,.76-.2-1.28-.2-1.28a18.18,18.18,0,0,1-6.42-1.88c-3.38-2.21-3.62-15.14-3.62-15.14C328,380.47,320.82,370.67,327.58,401.28Z" style="fill:#f5a784"/><path d="M275.66,408.59c1.29.9,13.15.05,13.27-.78s.28-1.68.38-2.38l0-.19c.46-3.45,1.17-9.67,1.17-9.67s-3.16-3.42-5.55-.12c0,0,.3,8.53-2.54,9.91l-.4.18a22.78,22.78,0,0,1-6.17,1.75S274.37,407.7,275.66,408.59Z" style="fill:#f5a784"/><path d="M333.67,397.45s-3.46,2.57-8.88.52c0,0-5.13-23.17-9.49-43.57-.51-2.38-8.38-23.22-11.73-32.23-.76-2-1.28-3.46-1.44-3.95a2.32,2.32,0,0,0-1.42-1.49c-.8-.27-1.79-.06-2.21,2.23-.07.4-.2,1.47-.36,3.06-1.51,14.76-6.44,75-6.44,75s-4.54.87-7.8-.71c0,0-3.54-45.7-4-75.54,0-2-.05-3.92-.05-5.75,0-5.46.14-9.95.43-12.9l37.28-1.48s9.56,47.24,10.34,52C329.44,361.59,333.67,397.45,333.67,397.45Z" style="fill:#05004a"/><path d="M328.55,405c0,.2.08.41.12.64.12.68.25,1.47.37,2.34s11.72,1.63,13,.76-.2-1.28-.2-1.28a18.18,18.18,0,0,1-6.42-1.88A14.35,14.35,0,0,1,328.55,405Z" style="fill:#05004a"/><path d="M275.66,408.59c1.29.9,13.15.05,13.27-.78s.28-1.68.38-2.38l0-.19a23.62,23.62,0,0,1-7.32.3,22.78,22.78,0,0,1-6.17,1.75S274.37,407.7,275.66,408.59Z" style="fill:#05004a"/><path d="M321.82,321.35a130.63,130.63,0,0,1-18.25.82c-.76-2-1.28-3.46-1.44-3.95a2.32,2.32,0,0,0-1.42-1.49c-.8-.27-1.79-.06-2.21,2.23-.07.4-.2,1.47-.36,3.06-7.4-.28-14.1-.87-18.21-1.28,0-2-.05-3.92-.05-5.75,0-5.46.14-9.95.43-12.9l37-1.47.88,2.84C318.94,307.17,320.32,313.93,321.82,321.35Z" style="fill:#040038"/><path d="M308.88,258.75c-2.1-4.09,55.54-26.64,27.06-38.87-9.29-4-27.48-7.6-27.48-7.6s-2.84,3.23-.6,6.31c0,0,19.25,6.49,22.44,8.77s-17.88,10.46-27.2,12.2C297.32,240.64,309.56,260.08,308.88,258.75Z" style="fill:#f5a784"/><path d="M310.18,212.71s-1.75-.6-3.84-1.57-6.64-3.16-8.33-3a4,4,0,0,0-.73.35l-.18.12A4.31,4.31,0,0,0,296,209.7a.5.5,0,0,0-.08.12,4,4,0,0,0-.57,1.37l0,.14a5.58,5.58,0,0,0-.12,1.4s4.69,2.12,5.92,3.35c0,0-3.13-.53-3.75.25l-.08.68s3.3,1,4.74,1.51a9.55,9.55,0,0,0,7-.4S311.75,214.9,310.18,212.71Z" style="fill:#f5a784"/><path d="M285.49,224.34a2,2,0,0,1-.21-.79,20.89,20.89,0,0,1,.05-5.18,9.64,9.64,0,0,1,.67-2.91,7.94,7.94,0,0,1,4-3.54,21,21,0,0,1,11.14-2,6.45,6.45,0,0,1,2.53.66,2.8,2.8,0,0,1,1.51,2,4.72,4.72,0,0,1-.25,1.66c-.94,3.71.15,7.38-1.13,10.93-.4,1.09-.47,1.26-1.11,1.22q-5.1-.31-10.19-.79a45.05,45.05,0,0,1-5.91-.76C286,224.7,285.66,224.62,285.49,224.34Z" style="fill:#05004a"/><path d="M303.05,223.25a1.92,1.92,0,0,1,3.1,0c1.55,1.86-1.09,5.42-3.1,5.58A44.65,44.65,0,0,1,303.05,223.25Z" style="fill:#e0855c"/><path d="M275.77,244.2c.94,2.23,4.42,10.81,5.55,17.78.6,3.71,2.88,16.45,2.88,16.45,13.14,3.61,27.57,0,27.57,0s7.92-33.26,1.83-37.18a13.5,13.5,0,0,0-4.87-1.39,63.08,63.08,0,0,0-7.89-.51l-.17-1.92s-.45-4.74-.45-4.74A13.5,13.5,0,0,1,289.35,230a38.45,38.45,0,0,1,.45,4.37c.05,1,.09,1.92.12,2.74,0,1.43.05,2.47.05,2.47a30.76,30.76,0,0,0-5.11.52,28.11,28.11,0,0,0-8.8,3.19A.72.72,0,0,0,275.77,244.2Z" style="fill:#f5a784"/><path d="M289.35,230c1.68,7.66,9.39,7.14,11.2,6.12l-.33-3.46A13.44,13.44,0,0,1,289.35,230Z" style="fill:#e0855c"/><path d="M302.69,217.88c1,1.07,1.12,3.47,1.2,6.13.26,8-2.14,10.55-6.25,11s-8.41-1.14-9.29-8.59c-.44-3.73-.91-7.18.44-8.79C290.81,215.22,299.53,214.59,302.69,217.88Z" style="fill:#f5a784"/><path d="M288.92,225.33s-1.26-3.33-3.24-1.56.76,6.79,3.79,6.42C289.47,230.19,289.89,226.47,288.92,225.33Z" style="fill:#f5a784"/><path d="M278.22,243.3a5.14,5.14,0,0,0-3.59,2.32c-2.54,3.84-7.9,32.21-7.91,37.91,0,10.1,4.75,28.09,4.75,28.09s4.2.9,5.79-2.56c0,0-1.3-22-.87-25.89s4.19-19.34,5.92-25.83C283.82,251.66,283.46,242.66,278.22,243.3Z" style="fill:#f5a784"/><path d="M286.61,225.28a2.8,2.8,0,0,1,1.2.79,3.45,3.45,0,0,1,.89,1.12c.05.14-.14.22-.23.14-.26-.24-.46-.53-.7-.79a1.5,1.5,0,0,1-.58.46c-.19.07-.32-.16-.24-.31a1.41,1.41,0,0,1,.48-.46,7,7,0,0,1-1-.71A.15.15,0,0,1,286.61,225.28Z" style="fill:#e0855c"/><path d="M300.36,223.82s.7.25.59-1-.59-1-.59-1-.48,0-.41,1S300.36,223.82,300.36,223.82Z" style="fill:#05004a"/><path d="M293.32,223.82s.69.25.59-1-.59-1-.59-1-.48,0-.41,1S293.32,223.82,293.32,223.82Z" style="fill:#05004a"/><path d="M297.21,227.09c.35-.05,1.16.16,1.32-.22a10.27,10.27,0,0,0-.51-2.51,33.74,33.74,0,0,1-.81-3.32c0-.06.1-.09.13,0a40.16,40.16,0,0,1,1.61,6.07.17.17,0,0,1-.17.22c-.51,0-1,.1-1.53.1C297.08,227.41,297,227.12,297.21,227.09Z" style="fill:#e0855c"/><path d="M299.6,220.08c.5-.26,1.43-.32,1.79.19a.16.16,0,0,1-.13.24c-.25,0-.47-.14-.71-.16a2.06,2.06,0,0,0-.78.12C299.54,220.55,299.38,220.19,299.6,220.08Z" style="fill:#05004a"/><path d="M292.28,220.69c.28-.71,1.51-.78,2-.34a.2.2,0,0,1-.09.33,5,5,0,0,1-1,0,2.92,2.92,0,0,0-.76.24C292.39,221,292.22,220.82,292.28,220.69Z" style="fill:#05004a"/><path d="M322.62,317.73c1,5.67-45.32-2-45.06-4.54,1.69-16.76,3.15-43.95,3.15-43.95s0-1.41,0-3.72c0,.21-.05.32-.05.32l-2,8.57a18.18,18.18,0,0,1-12-3.26s2.42-10.57,5.22-20.39c2-6.94,5.68-9.34,7.37-10.09a3.29,3.29,0,0,1,.6-.23l.29-.09a54.49,54.49,0,0,1,7.62-.91s-1.31,7.1,7.19,7.78c9.59.77,9.07-8.18,9.07-8.18S322.84,233,326,231a43.36,43.36,0,0,1,6.77,13.28s-11.62,5.82-17.16,13c0,1.07-.07,1.73-.07,1.73S316.51,282.11,322.62,317.73Z" style="fill:#39c"/><path d="M271.27,309.69s.25,1.83.32,4.14.18,7.35,1.05,8.8a4.42,4.42,0,0,0,.64.5l.19.1a3.94,3.94,0,0,0,1.52.5l.14,0a4.09,4.09,0,0,0,1.49-.11l.13,0a6,6,0,0,0,1.31-.53s-.23-5.14.31-6.79c0,0,.95,3,1.92,3.23l.64-.23s-.64-3.38-.79-4.91a9.54,9.54,0,0,0-3.52-6.08S272.52,307.3,271.27,309.69Z" style="fill:#f5a784"/><path d="M276.62,323.64l.13,0a51.24,51.24,0,0,1-.17-6.91s-.07-.05-.09,0A16.62,16.62,0,0,0,276.62,323.64Z" style="fill:#e0855c"/><path d="M275,323.73l.14,0a54.59,54.59,0,0,1-.18-6.9s-.07-.06-.07,0A16.33,16.33,0,0,0,275,323.73Z" style="fill:#e0855c"/><path d="M273.28,323.13l.19.1a56.7,56.7,0,0,1-.14-6.53s-.06-.05-.08,0A15.2,15.2,0,0,0,273.28,323.13Z" style="fill:#e0855c"/><path d="M299.63,229.41c-.76,0-1.46.35-2.22.39s-1.37-.25-2,0c.45.54,1.47.5,2.12.48a3.66,3.66,0,0,0,2.17-.6A.14.14,0,0,0,299.63,229.41Z" style="fill:#e0855c"/><path d="M332.72,244.24s-11.62,5.82-17.16,13l-1.09-7.66Z" style="fill:#2c88b5"/><path d="M392.94,407.48a12,12,0,0,1-4.73-2.31c-.77-.6-1.39-1.16-1.49-1.59a47.39,47.39,0,0,1-.22-7.66c.51-25.22,6.25-50.14,3.84-75.43-.55-5.68-1.36-11.48-4-16.55a3.82,3.82,0,0,0-1.08-1.43,3.49,3.49,0,0,0-2.73-.34,11.38,11.38,0,0,0-7.52,6.35,22.54,22.54,0,0,0-1.87,9.93,45.17,45.17,0,0,0,2.29,14.07,33.06,33.06,0,0,1,2,7c.27,2.73-.7,4.86-1.11,7.44-.6,3.81-.25,8.11-.22,12,.12,14,3,27.47,5.63,41.16.08.8.17,2,.2,3.53,0,.75,0,1.61,0,2.56s9.54,3.37,11.05,2.67S392.94,407.48,392.94,407.48Z" style="fill:#f5a784"/><path d="M381.87,406.21c0,.88,9.54,3.37,11.05,2.67s0-1.4,0-1.4a12,12,0,0,1-4.73-2.31,14.08,14.08,0,0,1-6.32-1.52C381.9,404.4,381.9,405.26,381.87,406.21Z" style="fill:#011948"/><path d="M365.87,407.56a12,12,0,0,1-4.24-3.12,4.11,4.11,0,0,1-1.18-1.84A48.14,48.14,0,0,1,361.6,395c5-24.72,15.14-48.2,17.29-73.52.49-5.69.73-11.54-1-17a4,4,0,0,0-.81-1.61,3.47,3.47,0,0,0-2.62-.82A11.37,11.37,0,0,0,366,307a22.58,22.58,0,0,0-3.62,9.43,45.42,45.42,0,0,0-.27,14.25,32.58,32.58,0,0,1,.67,7.28c-.22,2.74-1.56,4.66-2.42,7.13-1.28,3.64-1.7,7.93-2.36,11.72-2.4,13.83-1.94,27.57-1.84,41.5-.06.8-.18,2-.44,3.51-.12.74-.28,1.59-.48,2.51s8.79,5,10.4,4.61S365.87,407.56,365.87,407.56Z" style="fill:#f5a784"/><path d="M355.2,404.32c-.18.87,8.79,5,10.4,4.61s.27-1.37.27-1.37a12,12,0,0,1-4.24-3.12,14.18,14.18,0,0,1-5.95-2.63C355.56,402.55,355.4,403.4,355.2,404.32Z" style="fill:#011948"/><path d="M391.47,266.66c-.72,2.38.7,15,.7,15s-13.19,4.58-21.87-.92c0,0-2.14-16.33-4.64-22.79l.3-11.24s5.31-1,7-3a1.07,1.07,0,0,0,.14-.16c.87-1.22.83-4.87.65-7.65-.12-1.93-.31-3.44-.31-3.44s9.24,3.28,9.38,4.94c0,0,0,.06,0,.18,0,.3-.07.93-.08,1.7-.05,1.94.13,4.71,1.45,4.85a5.44,5.44,0,0,0,1.06-.1c1.82-.12,3.6-.12,3.6-.12s3.7,9.13,6.53,12.76S392.18,264.27,391.47,266.66Z" style="fill:#f5a784"/><path d="M398.91,344.48C396.24,335.8,397,326,396.16,317c-.87-5.22-.76-10.63-1.4-15.89q-1-8.55-1.86-17.15c-.3-3.1-.79-6.4-.91-9.67a24.86,24.86,0,0,1,.83-8.05c.54-1.82,3.32-3.83,3.39-6.28a3.73,3.73,0,0,0-.9-2.48,34.26,34.26,0,0,1-4.17-7.51,17.83,17.83,0,0,0-1.72-3.7c-.64-.85-.76-2.47-1.9-2.84a2.38,2.38,0,0,0-1.32.07l-1.35.31a3,3,0,0,0-1.31.39,9.53,9.53,0,0,1-7.13,2.11,6.16,6.16,0,0,1-3.65-2,6.39,6.39,0,0,0-3.17.83c-1.12.63-2,1.67-3.06,2.3-.56.31-.59.34-.62,1,0,.47-.23,8.61-.27,10.33-.06,2.1,1.8,5.18,2.24,7.34a18.68,18.68,0,0,1,.37,5.32c-.31,4.12-.13,9.22-2,13s-3.85,6.47-4.74,10.73c-1.62,7.78-1.07,15.83-2.43,23.64q-.27,1.56-.66,3.12c-2,7.74-6.3,14.63-9.32,22a2,2,0,0,0-.22,1.26c.3,1.19,2,.95,3.21.59a13.94,13.94,0,0,1,8.72.58c2.47.87,4.73,2.69,7.39,3.06,3.52.49,6.82-1.67,10.32-2.32,4.85-.91,11.15.5,15.63,2.39C398.3,351.26,400.27,348.9,398.91,344.48Z" style="fill:#39c"/><path d="M426.93,251.6l4.41-3.77c1.33-1.14,4.56-3.26,5-4.46a3,3,0,0,0,0-.62.9.9,0,0,0,0-.16,3.27,3.27,0,0,0-.42-1.14l-.06-.1a3.41,3.41,0,0,0-.76-.83l-.09-.06a4.74,4.74,0,0,0-.93-.53,23.86,23.86,0,0,1-4.19,3s1.36-2,1-2.67l-.44-.27s-1.7,2-2.55,2.79a8.51,8.51,0,0,0-2.29,4.85S424.91,252,426.93,251.6Z" style="fill:#f5a784"/><path d="M435.07,240.52l-.09-.06a38.34,38.34,0,0,1-4,3.37s0,.07,0,.06A12.64,12.64,0,0,0,435.07,240.52Z" style="fill:#e0855c"/><path d="M435.89,241.45l-.06-.1a39.7,39.7,0,0,1-4,3.38s0,.07,0,.05A12.42,12.42,0,0,0,435.89,241.45Z" style="fill:#e0855c"/><path d="M436.34,242.75a.9.9,0,0,0,0-.16,40.39,40.39,0,0,1-3.82,3.17s0,.07,0,.06A11.47,11.47,0,0,0,436.34,242.75Z" style="fill:#e0855c"/><path d="M388.18,230.84l0,.51c-.38,4.13-2,5.8-5.52,6.29-2.64.36-8.32-.53-9.71-7.78-.7-3.63-.89-6.7-.19-8.65,1.48-4.08,9.16-8.74,13.24-3.8.93,1.13,1.75,6.4,2,9A34.23,34.23,0,0,1,388.18,230.84Z" style="fill:#f5a784"/><path d="M354.34,263.85c-.17-2.78,1.28-5.36,2.35-7.93s1.69-5.73.07-8a18.79,18.79,0,0,1-1.95-2.44,4.66,4.66,0,0,1,.6-4.41c.83-1.31,2-2.37,3-3.59a13,13,0,0,0,2.75-7.92c0-2.32-.53-4.94.95-6.73.91-1.1,2.39-1.57,3.44-2.55,1.47-1.36,1.94-3.32,3.3-4.78a11.15,11.15,0,0,1,4.86-3,14.64,14.64,0,0,1,8.69.23c2.45.79,5,3,4.7,5.79a1,1,0,0,1-.09.33.86.86,0,0,1-.26.24c-.37.25-.85.44-1.19.71a2.45,2.45,0,0,0-.66,1.31,26.47,26.47,0,0,1-.46,3.11,1.49,1.49,0,0,1-1.28,1c-.58,0-1.09-.43-1.67-.4a1.64,1.64,0,0,0-1.08.55,3.54,3.54,0,0,0-1,2.69,4.11,4.11,0,0,0,1.21,2.56c3.46,3.4-2.1,7.5-1.89,11a16.94,16.94,0,0,0,.45,2.23,6.79,6.79,0,0,1-.48,4,22.49,22.49,0,0,0-1.26,2.56c-.52,1.65,0,3.42.4,5.1a15.68,15.68,0,0,1-1,9.26,11.29,11.29,0,0,1-2.86,4.13,8.24,8.24,0,0,1-4.25,2.18,19.83,19.83,0,0,1-4.78.62,16.75,16.75,0,0,1-5-.83A8.59,8.59,0,0,1,354.34,263.85Z" style="fill:#011948"/><path d="M387.29,223a8.63,8.63,0,0,0,2.06,3.91c1.35,1.41-2.75,2.54-2.75,2.54S386.64,223.76,387.29,223Z" style="fill:#f5a784"/><path d="M382.29,227.68a2,2,0,0,0-.9-1,.26.26,0,0,0-.26.46,1.94,1.94,0,0,1,.6.79,2.66,2.66,0,0,0-.67.23.24.24,0,0,0,.18.44,5.88,5.88,0,0,1,.7-.16,4.63,4.63,0,0,0,.42.9c.12.2.52.15.48-.13A5.11,5.11,0,0,0,382.29,227.68Z" style="fill:#e0855c"/><path d="M388.18,230.84a4.36,4.36,0,0,1,0,.51l-.21,0c-.44.05-1.16.1-1.45-.31a.07.07,0,0,1,0-.11c.36-.18.83,0,1.24,0A2,2,0,0,0,388.18,230.84Z" style="fill:#e0855c"/><path d="M382.75,237.57c0,.3-.07.93-.08,1.7a3.36,3.36,0,0,1-1.52-2.31A3.8,3.8,0,0,0,382.75,237.57Z" style="fill:#e0855c"/><path d="M392.82,266.25a24.86,24.86,0,0,0-.83,8.05c-4.3-6.66-3.79-16.59-3.79-16.59,2.53-.61,5.48.64,8,2.26C396.14,262.42,393.36,264.43,392.82,266.25Z" style="fill:#2c88b5"/><path d="M385,252.52s-2.66-10.28,5.2-8.4c7.61,1.83,11.52,19.21,18.9,19.6,1.06,0,18.33-18.08,18.33-18.08l2.88,2.51S416.64,270,410.9,271.66C405.57,273.17,393.93,267.84,385,252.52Z" style="fill:#f5a784"/><path d="M385.44,243.68a10.21,10.21,0,0,1,7.22.52c3.84,1.76,3.89,2.54,7.35,2.38,0,0-9.95,12.75-16.41,12.24C383.6,258.82,381.2,249.69,385.44,243.68Z" style="fill:#39c"/><path d="M391,284.08c-3.51,1.37-7,2.69-10.77,3-3.65.3-8.42.17-11.28-2.41a.5.5,0,0,0-.7.7,8.83,8.83,0,0,0,5.56,2.76l0,.09a5.94,5.94,0,0,0-3.49,3.69c-.49,1.43-.15,2.92-.52,4.38s-1.3,3-1.85,4.55a16.2,16.2,0,0,0-.92,8.84c.79,3.86,2.75,7,1.54,11.07a.25.25,0,0,0,.45.19,8,8,0,0,0,.7-6c-.78-3.58-2.26-6.64-1.58-10.42.51-2.82,2.09-5.19,2.8-7.91.34-1.34.05-2.74.4-4.07a5.45,5.45,0,0,1,2-2.9,10.75,10.75,0,0,0,1.22,6.83c1.3,2.65.67,4.57-.11,7.26a12.37,12.37,0,0,0-.49,5c.47,4,3.45,7,3.82,11,.41,4.39-1,8.69-.58,13.09a.24.24,0,0,0,.47,0c.37-4.07,1.46-8.14,1.35-12.24-.1-3.92-2.22-6.51-3.37-10.1a10.83,10.83,0,0,1,0-6.45c.47-1.68,1.27-3.31,1.14-5.11-.1-1.45-.91-2.49-1.51-3.77a10.74,10.74,0,0,1-.71-6.42.39.39,0,0,0,.12-.49,28.85,28.85,0,0,0,4.69.11,20.73,20.73,0,0,0,11.79-3.93C391.35,284.3,391.17,284,391,284.08Z" style="fill:#2c88b5"/></g></g></svg>